<svg width="266" height="102" viewBox="0 0 266 102" fill="none" xmlns="http://www.w3.org/2000/svg">
<g clip-path="url(#clip0_243_96)">
<path d="M265.435 0.11792V18.9899L264.581 19.4015C261.308 21.0018 258.308 23.1099 255.693 25.6476C254.87 26.4502 254.088 27.2837 253.348 28.1584C251.729 30.0581 250.322 32.1282 249.151 34.3324C248.801 34.9807 248.472 35.6392 248.174 36.3184C244.707 44.0719 244.191 52.825 246.723 60.9322C246.939 61.632 247.186 62.3214 247.443 62.9902C249.28 67.7357 252.139 72.0183 255.817 75.5338C256.506 76.2027 257.226 76.8407 257.966 77.4375C260.246 79.3161 262.756 80.8964 265.435 82.1401V101.012L0.0383301 101.012L0.0383301 82.1401C6.09828 79.3783 11.2354 74.93 14.8362 69.3263C18.4369 63.7227 20.3491 57.2007 20.3442 50.5393C20.347 45.8327 19.3886 41.1752 17.5277 36.8524C15.6669 32.5296 12.9428 28.6327 9.52265 25.4006C9.03917 24.9376 8.49398 24.4848 8.0105 24.0526C6.00693 22.3378 3.80741 20.8664 1.45789 19.6691C0.994991 19.4221 0.532091 19.1854 0.0486168 18.9693L0.0486168 0.11792L265.435 0.11792Z" fill="#F3ADB8"/>
<g opacity="0.2">
<path d="M0.0383301 8.79279C2.81585 5.90117 3.59766 6.14814 3.60795 6.14814C3.8857 6.2922 4.50293 7.69171 4.35891 10.3364C4.15317 13.4955 2.89814 17.0869 0.460101 17.9719C0.322898 18.0239 0.181889 18.0652 0.0383301 18.0954L0.0383301 18.9907C0.521824 19.2068 0.984743 19.4434 1.44766 19.6904C4.77039 18.2703 6.21059 13.8043 6.33403 10.3467C6.39575 9.18383 6.4369 5.3249 4.46178 4.36788C3.36106 3.83278 1.96202 4.33701 0.0383301 6.03494L0.0383301 8.79279Z" fill="#5454FC" fill-opacity="0.5"/>
<path d="M9.52264 25.4006C9.03917 24.9376 8.49397 24.4848 8.0105 24.0526L8.1648 23.9497C13.0613 20.6981 14.6145 12.3322 13.9871 5.96268C13.8154 3.96267 13.3689 1.9959 12.6601 0.11792L14.7791 0.11792C15.3879 1.95263 15.7814 3.85188 15.9518 5.77746C16.641 12.8262 14.9129 21.5624 9.52264 25.4006Z" fill="#5454FC" fill-opacity="0.5"/>
<path d="M47.5432 0.11792C47.2409 0.371718 46.925 0.608755 46.5968 0.827964L46.3293 0.97203C43.8398 2.54647 41.3195 2.71112 38.6551 2.87577C34.4333 3.10884 30.2064 2.52176 26.2077 1.14697C25.408 0.84623 24.6251 0.502719 23.8623 0.11792L29.8699 0.11792C32.721 0.800521 35.6557 1.0674 38.5831 0.910287C40.296 0.889014 41.9969 0.622176 43.6341 0.11792L47.5432 0.11792Z" fill="#5454FC" fill-opacity="0.5"/>
<path d="M48.8486 47.8227C46.3284 49.4073 43.8493 49.5617 41.185 49.7263C36.9438 49.9484 32.6997 49.3474 28.6867 47.9564C25.4876 46.804 21.342 44.643 19.7579 40.8254C18.1737 37.0078 19.3773 31.1322 22.8439 25.3903C26.8888 18.8002 32.9121 13.6572 40.0535 10.6961C40.2743 10.6718 40.497 10.7197 40.6883 10.8325C40.8796 10.9453 41.0293 11.1171 41.115 11.322C41.2006 11.527 41.2177 11.7542 41.1636 11.9697C41.1094 12.1852 40.9871 12.3773 40.8147 12.5174C34.0656 15.3126 28.3731 20.1714 24.5515 26.3988C21.4655 31.5438 20.2722 36.9049 21.5786 40.064C23.7491 45.2707 33.398 48.296 41.0616 47.7609C43.6333 47.5963 45.8655 47.4522 47.9743 46.0322C52.8707 42.76 54.424 34.4147 53.7965 28.0554C53.2822 22.8281 51.3997 18.7944 49.0029 17.7654C46.6061 16.7364 42.1006 18.6709 37.5127 22.6223C32.1122 27.2734 28.7587 32.9124 29.5405 35.9994C29.7968 36.6286 30.175 37.2007 30.6535 37.6829C31.132 38.165 31.7012 38.5476 32.3282 38.8086C34.9102 40.1772 38.3974 40.7122 40.2695 40.0331C42.7075 39.1481 43.983 35.5672 44.1682 32.3979C44.3122 29.7636 43.695 28.3539 43.4173 28.2098C43.4173 28.2098 42.1829 27.8291 37.4098 33.6224C37.3472 33.7697 37.2511 33.9003 37.1292 34.0039C37.0072 34.1076 36.8628 34.1813 36.7074 34.2193C36.552 34.2573 36.3898 34.2585 36.2338 34.2228C36.0779 34.1871 35.9324 34.1155 35.8089 34.0137C35.6854 33.9119 35.5874 33.7827 35.5226 33.6363C35.4579 33.49 35.4281 33.3305 35.4357 33.1707C35.4433 33.0108 35.4881 32.8549 35.5665 32.7154C35.645 32.5759 35.7548 32.4566 35.8874 32.367C40.0021 27.3557 42.5223 25.5858 44.271 26.4399C46.2461 27.3866 46.2049 31.2557 46.1432 32.4184C45.9581 35.9891 44.4871 40.6505 40.9999 41.8956C38.5722 42.7702 34.5604 42.2043 31.4539 40.5476C29.3965 39.4466 28.0695 38.0368 27.6786 36.4316C26.5471 31.9245 31.1761 25.4829 36.2783 21.0891C41.5759 16.5203 46.637 14.5755 49.8053 15.944C52.9736 17.3126 55.1646 21.7271 55.7613 27.9011C56.4608 35.1041 54.6709 43.9639 49.0749 47.7198C49.0021 47.7596 48.9265 47.794 48.8486 47.8227Z" fill="#5454FC" fill-opacity="0.5"/>
<path d="M64.9473 11.7359C64.1037 8.35031 66.4492 3.96656 69.8028 0.11792L72.4774 0.11792C68.4963 4.23412 66.2126 8.64873 66.9018 11.2522C67.1581 11.8814 67.5364 12.4536 68.0149 12.9358C68.4933 13.418 69.0625 13.8006 69.6896 14.0615C72.2614 15.4302 75.7487 15.9653 77.6313 15.2861C80.0693 14.4011 81.3346 10.82 81.5198 7.65056C81.6741 5.01619 81.0569 3.6064 80.7688 3.47262C80.7688 3.47262 79.5447 3.08158 74.7612 8.87513C74.5772 8.99941 74.358 9.06085 74.1363 9.05028C73.9146 9.0397 73.7023 8.95767 73.531 8.81644C73.3597 8.67521 73.2387 8.48235 73.186 8.26666C73.1333 8.05097 73.1518 7.82401 73.2387 7.61969C77.3535 2.61851 79.8739 0.838254 81.6329 1.69236C83.5978 2.63909 83.5566 6.50831 83.4949 7.67114C83.3097 11.2419 81.8387 15.9035 78.3514 17.1487C75.9339 18.0234 71.9219 17.4574 68.8152 15.8109C66.6446 14.6995 65.3382 13.2897 64.9473 11.7359Z" fill="#5454FC" fill-opacity="0.5"/>
<path d="M86.4464 22.9104L86.2201 23.0545C83.7307 24.6392 81.2105 24.7935 78.5463 24.9684C74.3078 25.1859 70.0673 24.5814 66.0582 23.1883C62.7871 22.0358 58.6724 19.8749 57.0883 16.0572C55.5041 12.2396 56.7076 6.36399 60.1743 0.622133L60.4829 0.12821L62.8488 0.12821C62.499 0.622133 62.1562 1.12635 61.8201 1.64085C58.7341 6.78588 57.5306 12.1573 58.8473 15.3061C61.0075 20.5128 70.6564 23.5381 78.3199 23.003C80.9019 22.8384 83.1238 22.7046 85.2429 21.2846C90.1291 18.0021 91.6823 9.65681 91.0549 3.29755C90.9616 2.22781 90.7966 1.16555 90.5611 0.11792L92.6184 0.11792C92.8229 1.10029 92.974 2.09302 93.071 3.09175C93.7911 10.2536 91.9909 19.1648 86.4464 22.9104Z" fill="#5454FC" fill-opacity="0.5"/>
<path d="M121.751 0.11792C119.974 0.646273 118.132 0.926762 116.278 0.951449C113.168 1.12276 110.049 0.841992 107.02 0.11792L121.751 0.11792Z" fill="#5454FC" fill-opacity="0.5"/>
<path d="M67.4163 93.9228C66.0413 96.1198 65.0012 98.5094 64.3302 101.013H62.2727C62.9526 98.1423 64.092 95.4005 65.6469 92.8938C69.707 86.3013 75.7497 81.1643 82.9086 78.2195C83.0328 78.1186 83.1787 78.048 83.3348 78.0134C83.491 77.9788 83.653 77.981 83.8082 78.02C83.9633 78.059 84.1072 78.1336 84.2284 78.238C84.3497 78.3423 84.4449 78.4735 84.5066 78.6211C84.5683 78.7687 84.5947 78.9287 84.5838 79.0883C84.5729 79.248 84.5249 79.4028 84.4437 79.5406C84.3625 79.6785 84.2502 79.7955 84.1159 79.8823C83.9816 79.9692 83.8289 80.0235 83.6699 80.041C76.9254 82.8399 71.237 87.6983 67.4163 93.9228Z" fill="#5454FC" fill-opacity="0.5"/>
<path d="M80.3979 101.012C85.0683 95.3833 86.2616 95.7538 86.2719 95.7538C86.5599 95.8979 87.1771 97.2974 87.0228 99.942C87.0228 100.292 87.0228 100.652 86.9199 100.971H88.9053C88.9465 100.614 88.9774 100.271 88.9979 99.942C89.0597 98.7792 89.1008 94.91 87.136 93.953C85.3769 93.1091 82.8668 94.8791 78.7417 99.8906C78.613 100.041 78.5348 100.229 78.5182 100.426C78.5016 100.624 78.5474 100.822 78.6491 100.992L80.3979 101.012Z" fill="#5454FC" fill-opacity="0.5"/>
<path d="M98.6567 101.012H96.6611C96.8259 99.2048 96.8259 97.3862 96.6611 95.5789C96.157 90.3515 94.2746 86.3178 91.8675 85.2888C89.4604 84.2598 84.9651 86.1944 80.3876 90.1457C76.2729 93.7164 73.3 97.853 72.5182 100.981H70.4609C71.2736 96.8652 75.0385 92.1317 79.0709 88.6331C84.3891 84.1158 89.4398 82.1709 92.6184 83.4675C95.797 84.764 98.0189 89.2299 98.6258 95.3525C98.8081 97.2342 98.8184 99.1285 98.6567 101.012Z" fill="#5454FC" fill-opacity="0.5"/>
<path d="M129.044 90.578C126.554 92.1626 124.034 92.317 121.37 92.4816C117.126 92.6905 112.882 92.0755 108.871 90.6706C105.672 89.5181 101.527 87.3572 99.9426 83.5395C98.3584 79.7219 99.562 73.8463 103.029 68.1044C107.071 61.5253 113.087 56.3902 120.218 53.4308C120.46 53.3425 120.727 53.3485 120.965 53.4476C121.203 53.5467 121.395 53.7317 121.503 53.9659C121.556 54.0845 121.583 54.2124 121.585 54.342C121.587 54.4716 121.562 54.6002 121.513 54.7201C121.464 54.8401 121.392 54.949 121.3 55.0404C121.208 55.1318 121.099 55.2038 120.979 55.2522C114.23 58.0474 108.537 62.9061 104.716 69.1335C101.63 74.2785 100.436 79.6396 101.753 82.7987C103.913 88.0054 113.562 90.9793 121.226 90.4956C123.797 90.331 126.03 90.1869 128.138 88.7669C133.035 85.4947 134.588 77.1494 133.961 70.7902C133.446 65.5628 131.564 61.5291 129.167 60.5001C126.77 59.4711 122.265 61.4056 117.677 65.357C112.276 70.0081 108.933 75.6471 109.705 78.7341C109.961 79.3633 110.339 79.9354 110.818 80.4176C111.296 80.8997 111.865 81.2823 112.492 81.5433C115.074 82.9119 118.561 83.4469 120.434 82.7678C122.872 81.8828 124.147 78.3019 124.332 75.1326C124.476 72.488 123.859 71.0886 123.581 70.9445C123.581 70.9445 122.347 70.5638 117.574 76.3571C117.511 76.5044 117.415 76.635 117.293 76.7386C117.171 76.8423 117.027 76.916 116.871 76.954C116.716 76.992 116.554 76.9932 116.398 76.9575C116.242 76.9218 116.096 76.8502 115.973 76.7484C115.85 76.6466 115.752 76.5174 115.687 76.371C115.622 76.2247 115.592 76.0652 115.6 75.9054C115.607 75.7455 115.652 75.5896 115.731 75.4501C115.809 75.3106 115.919 75.1913 116.051 75.1017C120.166 70.0904 122.686 68.3205 124.435 69.1746C126.41 70.1213 126.369 73.9904 126.307 75.1531C126.122 78.7238 124.651 83.3852 121.164 84.6303C118.747 85.5049 114.735 84.939 111.618 83.2823C109.561 82.1813 108.234 80.7715 107.843 79.1663C106.711 74.6592 111.34 68.2176 116.442 63.8238C121.74 59.255 126.801 57.3102 129.969 58.6787C133.138 60.0473 135.38 64.4412 135.977 70.5638C136.676 77.7668 134.886 86.6266 129.29 90.3824L129.044 90.578Z" fill="#5454FC" fill-opacity="0.5"/>
<path d="M166.847 66.5713C164.358 68.1457 161.837 68.3 159.173 68.475C154.931 68.6977 150.686 68.0931 146.675 66.6948C143.476 65.5526 139.33 63.3814 137.746 59.5638C136.162 55.7462 137.365 49.8705 140.832 44.1287C144.878 37.5394 150.901 32.3968 158.042 29.4345C158.265 29.4065 158.491 29.4527 158.686 29.5658C158.88 29.6788 159.033 29.8526 159.119 30.0605C159.205 30.2684 159.221 30.4989 159.164 30.7166C159.107 30.9344 158.98 31.1274 158.803 31.2661C152.059 34.064 146.368 38.9178 142.54 45.1371C139.454 50.2821 138.26 55.6535 139.577 58.8126C141.737 64.0091 151.386 66.9829 159.05 66.4993C161.621 66.3346 163.854 66.2009 165.962 64.7808C170.859 61.4983 172.412 53.1634 171.785 46.7938C171.27 41.5664 169.388 37.5327 166.991 36.5037C164.594 35.4747 160.089 37.4093 155.501 41.3606C150.111 46.0118 146.757 51.6507 147.529 54.7377C147.785 55.3669 148.163 55.9391 148.642 56.4212C149.12 56.9034 149.689 57.286 150.316 57.5469C152.898 58.9155 156.385 59.4609 158.258 58.7817C160.696 57.8968 161.971 54.3055 162.156 51.1362C162.3 48.502 161.683 47.1025 161.405 46.9584C161.405 46.9584 160.171 46.5777 155.398 52.3607C155.335 52.508 155.239 52.6387 155.117 52.7423C154.995 52.8459 154.851 52.9196 154.696 52.9576C154.54 52.9956 154.378 52.9968 154.222 52.9611C154.066 52.9254 153.92 52.8538 153.797 52.752C153.674 52.6502 153.576 52.521 153.511 52.3747C153.446 52.2283 153.416 52.0689 153.424 51.909C153.431 51.7491 153.476 51.5933 153.555 51.4537C153.633 51.3142 153.743 51.1949 153.876 51.1053C157.99 46.1044 160.51 44.3345 162.259 45.1783C164.234 46.1249 164.193 49.994 164.131 51.1568C163.946 54.7274 162.475 59.3888 158.937 60.6339C156.519 61.5086 152.507 60.9426 149.391 59.2962C147.333 58.1849 146.006 56.7752 145.615 55.1802C144.484 50.6834 149.113 44.2316 154.215 39.8377C159.513 35.2689 164.574 33.3344 167.752 34.6927C170.931 36.051 173.153 40.4448 173.749 46.5674C174.449 53.7705 172.659 62.6405 167.063 66.3861L166.847 66.5713Z" fill="#5454FC" fill-opacity="0.5"/>
<path d="M204.887 42.9349C202.398 44.5092 199.878 44.6739 197.213 44.8385C192.975 45.0612 188.733 44.4566 184.725 43.0583C181.526 41.9161 177.381 39.7449 175.797 35.9273C174.212 32.1097 175.416 26.2341 178.883 20.4922C182.92 13.9104 188.932 8.77158 196.061 5.80829C196.186 5.71063 196.332 5.64314 196.487 5.61109C196.642 5.57904 196.803 5.5833 196.956 5.62352C197.109 5.66375 197.251 5.73885 197.371 5.84299C197.49 5.94712 197.584 6.07746 197.645 6.22384C197.706 6.37022 197.732 6.52868 197.721 6.68685C197.711 6.84503 197.664 6.99865 197.584 7.13573C197.505 7.2728 197.395 7.38963 197.262 7.47708C197.13 7.56454 196.98 7.62027 196.822 7.63992C190.081 10.4379 184.393 15.2919 180.57 21.5109C177.484 26.656 176.28 32.0274 177.597 35.1864C179.757 40.3315 189.406 43.3568 197.069 42.8731C199.651 42.7085 201.873 42.5747 203.992 41.1547C208.878 37.8721 210.432 29.5372 209.804 23.1676C209.3 17.9403 207.407 13.9066 205.011 12.8776C202.614 11.8486 198.108 13.7831 193.531 17.7345C188.13 22.3856 184.777 28.0245 185.548 31.1116C185.806 31.7417 186.186 32.3144 186.666 32.7967C187.146 33.2789 187.717 33.6609 188.346 33.9208C190.918 35.2893 194.405 35.8347 196.288 35.1556C198.726 34.2706 199.991 30.6794 200.176 27.51C200.33 24.8758 199.713 23.4763 199.425 23.3323C199.425 23.3323 198.201 22.9515 193.418 28.7346C193.355 28.8819 193.259 29.0125 193.137 29.1161C193.015 29.2197 192.871 29.2935 192.715 29.3315C192.56 29.3695 192.398 29.3707 192.242 29.335C192.086 29.2993 191.94 29.2277 191.817 29.1259C191.693 29.0241 191.595 28.8949 191.53 28.7485C191.466 28.6022 191.436 28.4427 191.443 28.2829C191.451 28.123 191.496 27.9671 191.574 27.8276C191.653 27.6881 191.763 27.5688 191.895 27.4792C196.01 22.4782 198.53 20.7083 200.289 21.5521C202.254 22.5091 202.213 26.3678 202.151 27.5306C201.966 31.1013 200.495 35.7627 196.956 37.0078C194.539 37.8824 190.527 37.3268 187.42 35.6701C185.363 34.5587 184.026 33.1593 183.635 31.554C182.503 27.0573 187.143 20.6054 192.235 16.2115C197.532 11.6428 202.593 9.70823 205.772 11.0665C208.95 12.4248 211.172 16.8187 211.779 22.9515C212.479 30.1546 210.679 39.0143 205.093 42.7599L204.887 42.9349Z" fill="#5454FC" fill-opacity="0.5"/>
<path d="M235.686 0.11792C234.045 1.49676 232.556 3.04554 231.242 4.73835C231.058 4.86263 230.839 4.92408 230.617 4.9135C230.395 4.90292 230.183 4.82089 230.012 4.67966C229.84 4.53843 229.719 4.34557 229.667 4.12988C229.614 3.91419 229.632 3.68724 229.719 3.48291C230.83 2.17602 231.828 1.01319 232.723 0.11792L235.686 0.11792Z" fill="#5454FC" fill-opacity="0.5"/>
<path d="M239.719 0.11792L237.661 0.11792C237.963 1.22286 238.068 2.37248 237.97 3.51378C237.785 6.68325 236.519 10.2643 234.081 11.1493C232.199 11.8285 228.711 11.2934 226.14 9.92476C225.513 9.6638 224.943 9.28119 224.465 8.79902C223.986 8.31684 223.608 7.74465 223.352 7.11545C222.91 5.37636 223.784 2.83461 225.584 0.11792L223.259 0.11792C221.696 2.76258 220.893 5.40723 221.438 7.59911C221.829 9.15297 223.136 10.5628 225.224 11.7153C228.31 13.3721 232.343 13.938 234.76 13.0634C238.299 11.777 239.77 7.15661 239.955 3.58581C240.029 2.42447 239.949 1.25853 239.719 0.11792Z" fill="#5454FC" fill-opacity="0.5"/>
<path d="M242.917 18.7738L242.691 18.9179C240.201 20.4923 237.681 20.6569 235.017 20.8215C230.779 21.0423 226.539 20.4413 222.529 19.0516C219.33 17.8992 215.184 15.7382 213.6 11.9206C212.355 8.9468 212.839 4.63526 214.814 0.11792L216.984 0.11792C214.927 4.3883 214.33 8.5352 215.421 11.1592C217.581 16.3659 227.23 19.3912 234.893 18.8561C237.475 18.6915 239.697 18.5474 241.816 17.1274C246.456 14.0404 248.091 6.33312 247.7 0.11792L249.686 0.11792C250.097 7.05343 248.204 15.2135 242.917 18.7738Z" fill="#5454FC" fill-opacity="0.5"/>
<path d="M201.658 98.7792C200.131 99.4157 198.653 100.162 197.234 101.012H193.634C195.893 99.3893 198.329 98.029 200.896 96.9577C201.14 96.8664 201.409 96.8709 201.65 96.9702C201.89 97.0694 202.084 97.2562 202.192 97.4928C202.281 97.7353 202.275 98.0021 202.176 98.2403C202.077 98.4786 201.892 98.6709 201.658 98.7792Z" fill="#5454FC" fill-opacity="0.5"/>
<path d="M223.444 89.024C220.832 93.3458 219.587 97.822 220.039 101.012H218.044C217.632 97.3692 218.949 92.6358 221.757 88.0053C225.8 81.4232 231.815 76.2846 238.946 73.3213C239.167 73.2971 239.39 73.3449 239.581 73.4578C239.773 73.5706 239.922 73.7423 240.008 73.9473C240.094 74.1523 240.111 74.3795 240.056 74.5949C240.002 74.8104 239.88 75.0026 239.708 75.1427C232.963 77.9452 227.272 82.8022 223.444 89.024Z" fill="#5454FC" fill-opacity="0.5"/>
<path d="M245.037 95.0646C244.941 97.1294 244.427 99.1532 243.524 101.013H241.21C242.352 99.2265 242.989 97.1636 243.051 95.0441C243.205 92.4097 242.588 90.9999 242.31 90.8661C242.31 90.8661 241.076 90.4751 236.303 96.2686C236.24 96.4159 236.144 96.5466 236.022 96.6502C235.9 96.7538 235.756 96.8276 235.6 96.8656C235.445 96.9036 235.283 96.9048 235.127 96.8691C234.971 96.8334 234.825 96.7618 234.702 96.66C234.578 96.5582 234.48 96.4289 234.416 96.2826C234.351 96.1362 234.321 95.9768 234.329 95.8169C234.336 95.657 234.381 95.5011 234.459 95.3616C234.538 95.2221 234.648 95.1028 234.78 95.0132C238.895 90.012 241.415 88.2318 243.164 89.0859C245.139 90.0326 245.088 93.9018 245.037 95.0646Z" fill="#5454FC" fill-opacity="0.5"/>
<path d="M253.852 101.012H251.794C252.719 97.6657 253.023 94.1779 252.689 90.722C252.175 85.4947 250.293 81.461 247.886 80.432C245.478 79.4029 240.993 81.3375 236.406 85.2786C231.005 89.94 227.652 95.5686 228.433 98.6557C228.803 99.6719 229.536 100.515 230.491 101.022H227.508C227.031 100.478 226.68 99.8348 226.479 99.1393C225.347 94.6323 229.976 88.1907 235.079 83.7968C240.376 79.228 245.437 77.2935 248.606 78.6518C251.774 80.0101 254.016 84.4142 254.613 90.5368C254.972 94.0463 254.714 97.5914 253.852 101.012Z" fill="#5454FC" fill-opacity="0.5"/>
<path d="M265.435 84.4968V86.5549C262.236 85.4127 258.09 83.2414 256.506 79.4339C256.024 78.2057 255.794 76.8937 255.827 75.575C256.516 76.2438 257.236 76.8818 257.977 77.4787C258.048 77.8885 258.166 78.2889 258.327 78.6724C259.263 81.1421 262.02 83.1179 265.435 84.4968Z" fill="#5454FC" fill-opacity="0.5"/>
<path d="M6.05628 81.9653C3.94938 82.8426 1.93372 83.9249 0.0383301 85.1965L0.0383301 82.8503C1.71389 81.8063 3.47199 80.9011 5.29504 80.1438C5.41915 80.0429 5.56507 79.9724 5.72122 79.9377C5.87737 79.9031 6.03943 79.9054 6.19455 79.9443C6.34967 79.9833 6.49357 80.058 6.61481 80.1623C6.73605 80.2667 6.8313 80.3978 6.893 80.5455C6.95469 80.6931 6.98113 80.853 6.9702 81.0126C6.95928 81.1723 6.91131 81.3271 6.83008 81.465C6.74886 81.6028 6.63663 81.7198 6.50231 81.8066C6.36798 81.8935 6.21526 81.9478 6.05628 81.9653Z" fill="#5454FC" fill-opacity="0.5"/>
<path d="M11.4055 101.012L9.43038 101.012C9.43038 98.9541 8.91603 97.8016 8.65885 97.6781C8.65885 97.6781 7.75359 97.4003 4.44114 101.012H1.81793C5.54186 96.6285 7.86674 95.1055 9.52297 95.867C11.1792 96.6285 11.3541 99.4172 11.4055 101.012Z" fill="#5454FC" fill-opacity="0.5"/>
<path d="M21.1475 101.013H19.162C19.1943 99.8415 19.1531 98.6695 19.0386 97.5036C18.5345 92.276 16.652 88.2421 14.2448 87.2131C11.8376 86.184 7.34217 88.1186 2.76441 92.0702C1.80824 92.9014 0.898185 93.7843 0.0383301 94.7149L0.0383301 91.9055C0.511536 91.4528 0.984743 91.0206 1.46824 90.6089C6.77638 86.04 11.8273 84.0951 15.0061 85.4637C18.1848 86.8323 20.4068 91.2264 21.0137 97.3492C21.1299 98.5667 21.1745 99.7899 21.1475 101.013Z" fill="#5454FC" fill-opacity="0.5"/>
<path d="M51.9038 93.2534C49.4144 94.838 46.8941 94.9924 44.271 95.1673C40.0326 95.3848 35.792 94.7803 31.783 93.3871C28.5839 92.2449 24.4383 90.0737 22.8542 86.2561C21.27 82.4385 22.4736 76.5629 25.9402 70.821C29.9808 64.2415 35.9919 59.1034 43.1189 56.1371C43.3423 56.1092 43.5686 56.1553 43.7632 56.2684C43.9578 56.3815 44.1099 56.5553 44.1963 56.7631C44.2827 56.971 44.2986 57.2015 44.2414 57.4193C44.1843 57.637 44.0574 57.83 43.8801 57.9687C37.1324 60.7603 31.4374 65.6109 27.6066 71.8295C24.5206 76.9745 23.3274 82.3459 24.6338 85.4947C26.794 90.7014 36.4532 93.7267 44.1065 93.1916C46.6884 93.027 48.9103 92.8932 51.0294 91.4732C55.9156 88.1907 57.4688 79.8557 56.8516 73.4862C56.3373 68.2588 54.4549 64.2251 52.0478 63.1961C49.6407 62.1671 45.1454 64.1016 40.5678 68.053C35.1673 72.7041 31.8139 78.3431 32.5957 81.4301C32.8519 82.0592 33.2302 82.6314 33.7086 83.1136C34.1871 83.5957 34.7563 83.9783 35.3834 84.2393C37.955 85.6079 41.4422 86.1532 43.3247 85.4638C45.7626 84.5891 47.0382 80.9979 47.213 77.8286C47.3673 75.1943 46.7501 73.7846 46.4621 73.6508C46.4621 73.6508 45.238 73.2598 40.4547 79.0531C40.3921 79.2004 40.296 79.331 40.174 79.4346C40.0521 79.5383 39.9077 79.612 39.7522 79.65C39.5968 79.688 39.4347 79.6892 39.2787 79.6535C39.1227 79.6178 38.9772 79.5462 38.8537 79.4444C38.7303 79.3426 38.6323 79.2134 38.5675 79.067C38.5027 78.9207 38.4729 78.7612 38.4806 78.6014C38.4882 78.4415 38.533 78.2856 38.6114 78.1461C38.6898 78.0066 38.7997 77.8873 38.9323 77.7977C43.0469 72.7967 45.5672 71.0268 47.3262 71.8706C49.2909 72.8173 49.2498 76.6864 49.1881 77.8491C49.0132 81.4198 47.5319 86.0812 43.9933 87.3263C41.5759 88.201 37.5641 87.635 34.4576 85.9886C32.4002 84.8773 31.0629 83.4675 30.6721 81.8726C29.5405 77.3655 34.1798 70.9239 39.2717 66.5301C44.5796 61.9613 49.6407 60.0267 52.809 61.385C55.9773 62.7433 58.2095 67.1475 58.8164 73.2701C59.5159 80.4731 57.726 89.3431 52.1301 93.0887L51.9038 93.2534Z" fill="#5454FC" fill-opacity="0.5"/>
<path d="M89.2341 68.4955C86.7447 70.0699 84.2245 70.2345 81.5602 70.3992C77.3182 70.6219 73.0733 70.0173 69.0619 68.619C65.8731 67.4768 61.7584 65.3056 60.1331 61.488C58.5078 57.6704 59.7525 51.7947 63.2191 46.0529C67.2623 39.4638 73.2865 34.3237 80.4287 31.3689C80.6711 31.2769 80.9393 31.2799 81.1796 31.3772C81.4199 31.4745 81.6147 31.659 81.7248 31.8937C81.8161 32.1375 81.8117 32.4067 81.7124 32.6473C81.6132 32.8879 81.4265 33.0819 81.1899 33.1903C74.4427 35.9885 68.751 40.8466 64.9267 47.0716C61.8407 52.2166 60.6474 57.5777 61.9641 60.7368C64.1243 65.9333 73.7732 68.9071 81.4368 68.4235C84.0085 68.2588 86.2407 68.1251 88.3597 66.705C93.2459 63.4225 94.7992 55.0876 94.1717 48.718C93.6574 43.4906 91.7749 39.4569 89.3781 38.4279C86.9813 37.3989 82.4758 39.3335 77.8879 43.2848C72.4977 47.936 69.1442 53.5749 69.9157 56.6619C70.1731 57.292 70.553 57.8648 71.0333 58.347C71.5136 58.8292 72.0847 59.2113 72.7137 59.4711C75.2854 60.8397 78.7725 61.3851 80.6447 60.7059C83.093 59.821 84.3582 56.2297 84.5434 53.0707C84.6874 50.4261 84.0702 49.0267 83.7924 48.8826C83.7924 48.8826 82.558 48.5019 77.785 54.2952C77.6004 54.422 77.3794 54.4851 77.1556 54.4748C76.9319 54.4645 76.7176 54.3814 76.5454 54.2382C76.3731 54.095 76.2523 53.8995 76.2013 53.6813C76.1502 53.4632 76.1718 53.2343 76.2626 53.0295C80.3773 48.0286 82.8975 46.2587 84.6462 47.1025C86.6213 48.0594 86.5801 51.9182 86.5184 53.081C86.3333 56.6516 84.8623 61.313 81.3751 62.5581C78.9577 63.4328 74.9459 62.8771 71.829 61.2204C69.7717 60.1091 68.4447 58.7097 68.0538 57.1044C66.9017 52.6694 71.5102 46.2175 76.6021 41.8236C81.8997 37.2549 86.9607 35.3203 90.1393 36.6786C93.3179 38.0369 95.5398 42.4308 96.1365 48.5636C96.8462 55.7667 95.0461 64.6264 89.4501 68.372L89.2341 68.4955Z" fill="#5454FC" fill-opacity="0.5"/>
<path d="M127.038 44.4785C124.507 46.0631 122.028 46.2175 119.364 46.4233C115.123 46.6454 110.878 46.0444 106.865 44.6534C103.666 43.5009 99.5311 41.34 97.9366 37.5224C96.3422 33.7048 97.5663 27.8291 101.023 22.0873C105.059 15.4726 111.082 10.3041 118.232 7.32102C118.476 7.22971 118.745 7.23415 118.986 7.33343C119.226 7.43272 119.42 7.61948 119.528 7.85611C119.617 8.09855 119.611 8.36532 119.512 8.60355C119.413 8.84179 119.228 9.0341 118.993 9.14236C112.247 11.9382 106.558 16.7971 102.741 23.0237C99.6545 28.1687 98.451 33.5298 99.7677 36.6889C101.928 41.8957 111.577 44.9209 119.24 44.3859C121.812 44.2212 124.044 44.0772 126.163 42.6571C131.049 39.3849 132.603 31.0396 131.975 24.6804C131.461 19.453 129.578 15.4193 127.182 14.3903C124.785 13.3613 120.279 15.3061 115.691 19.2472C110.301 23.8983 106.948 29.5373 107.719 32.6243C107.977 33.2544 108.357 33.8272 108.837 34.3094C109.317 34.7916 109.888 35.1737 110.517 35.4335C113.089 36.8021 116.576 37.3372 118.448 36.658C120.897 35.7731 122.162 32.1921 122.347 29.0228C122.491 26.3885 121.874 24.9788 121.596 24.8347C121.596 24.8347 120.362 24.454 115.589 30.2473C115.526 30.3946 115.43 30.5252 115.308 30.6289C115.186 30.7325 115.042 30.8062 114.886 30.8442C114.731 30.8822 114.569 30.8834 114.413 30.8477C114.257 30.812 114.111 30.7404 113.988 30.6386C113.864 30.5368 113.766 30.4076 113.701 30.2613C113.637 30.1149 113.607 29.9555 113.614 29.7956C113.622 29.6357 113.667 29.4798 113.745 29.3403C113.824 29.2008 113.934 29.0815 114.066 28.9919C118.181 23.9909 120.701 22.2108 122.45 23.0648C124.425 24.0115 124.384 27.8806 124.322 29.0434C124.137 32.614 122.666 37.2754 119.179 38.5205C116.761 39.3952 112.749 38.8292 109.633 37.1725C107.575 36.0715 106.248 34.6617 105.857 33.0565C104.726 28.5494 109.365 22.1079 114.457 17.714C119.755 13.1452 124.816 11.2004 127.994 12.569C131.173 13.9375 133.395 18.3314 133.991 24.454C134.701 31.657 132.901 40.5168 127.305 44.2727L127.038 44.4785Z" fill="#5454FC" fill-opacity="0.5"/>
<path d="M157.425 0.11792C155.433 1.63218 153.658 3.41177 152.148 5.40723C152.061 5.61156 152.042 5.83851 152.095 6.0542C152.148 6.26989 152.269 6.46275 152.44 6.60398C152.611 6.74522 152.824 6.82724 153.045 6.83782C153.267 6.8484 153.486 6.78696 153.67 6.66267C158.454 0.869126 159.626 1.24987 159.637 1.24987C159.925 1.39394 160.542 2.80374 160.388 5.4381C160.203 8.60757 158.937 12.1887 156.499 13.0736C154.617 13.7528 151.129 13.2177 148.558 11.8491C147.93 11.5881 147.361 11.2055 146.883 10.7233C146.404 10.2412 146.026 9.66897 145.77 9.03977C145.225 6.89935 146.675 3.53436 149.432 0.11792L146.942 0.11792C144.587 3.38 143.167 6.80674 143.856 9.52343C144.247 11.0773 145.554 12.4871 147.642 13.5882C150.728 15.2449 154.761 15.8109 157.178 14.9362C160.717 13.6499 162.188 9.02948 162.373 5.45868C162.373 4.42963 162.466 1.56888 161.293 0.11792L157.425 0.11792Z" fill="#5454FC" fill-opacity="0.5"/>
<path d="M165.304 20.6981L165.078 20.8421C162.568 22.4268 160.068 22.5811 157.424 22.7561C153.186 22.9815 148.945 22.3804 144.936 20.9862C141.737 19.8337 137.592 17.6728 136.008 13.8552C134.567 10.408 135.401 5.26296 138.127 0.11792L140.369 0.11792C137.561 5.04686 136.553 10.0684 137.808 13.0834C139.968 18.2902 149.627 21.3155 157.28 20.7804C159.862 20.6157 162.084 20.4717 164.203 19.0516C169.09 15.7794 170.643 7.43416 170.015 1.0749C170.015 0.755904 169.943 0.436912 169.902 0.11792L171.898 0.11792C171.898 0.364882 171.97 0.622133 171.99 0.879385C172.69 8.04127 170.89 16.9422 165.304 20.6981Z" fill="#5454FC" fill-opacity="0.5"/>
<path d="M124.044 100.714L123.365 101.012H118.993C120.375 100.215 121.808 99.5103 123.283 98.9025C123.408 98.8049 123.554 98.7374 123.709 98.7053C123.864 98.6733 124.025 98.6775 124.178 98.7178C124.331 98.758 124.473 98.8331 124.593 98.9372C124.712 99.0414 124.806 99.1717 124.867 99.3181C124.928 99.4645 124.954 99.6229 124.943 99.7811C124.933 99.9393 124.886 100.093 124.806 100.23C124.727 100.367 124.617 100.484 124.484 100.571C124.352 100.659 124.202 100.715 124.044 100.734V100.714Z" fill="#5454FC" fill-opacity="0.5"/>
<path d="M145.595 90.5779C143.569 93.7058 142.366 97.2949 142.097 101.012H140.122C140.382 96.9298 141.685 92.9827 143.908 89.5489C147.951 82.9697 153.966 77.8347 161.097 74.8753C161.221 74.7738 161.368 74.7028 161.524 74.668C161.681 74.6332 161.844 74.6356 161.999 74.6749C162.155 74.7143 162.299 74.7895 162.421 74.8946C162.542 74.9997 162.637 75.1318 162.698 75.2802C162.759 75.4287 162.785 75.5894 162.773 75.7495C162.761 75.9096 162.712 76.0647 162.629 76.2024C162.546 76.34 162.433 76.4564 162.297 76.5422C162.161 76.6281 162.008 76.6809 161.848 76.6966C155.104 79.4955 149.415 84.3537 145.595 90.5779Z" fill="#5454FC" fill-opacity="0.5"/>
<path d="M167.177 96.6185C167.101 98.1162 166.813 99.5956 166.323 101.013H164.204C164.799 99.6114 165.147 98.1179 165.232 96.598C165.387 93.9533 164.77 92.5538 164.481 92.4097C164.481 92.4097 163.257 92.029 158.474 97.8225C158.411 97.9698 158.315 98.1005 158.193 98.2041C158.071 98.3077 157.927 98.3815 157.771 98.4195C157.616 98.4574 157.454 98.4586 157.298 98.423C157.142 98.3873 156.996 98.3157 156.873 98.2139C156.749 98.1121 156.651 97.9828 156.587 97.8365C156.522 97.6901 156.492 97.5307 156.5 97.3708C156.507 97.2109 156.552 97.055 156.63 96.9155C156.709 96.776 156.819 96.6567 156.951 96.5671C161.066 91.5556 163.597 89.7857 165.346 90.6295C167.28 91.5865 167.238 95.4557 167.177 96.6185Z" fill="#5454FC" fill-opacity="0.5"/>
<path d="M176.373 101.012H174.315C174.932 98.1295 175.106 95.1696 174.83 92.2346C174.315 87.0073 172.433 82.9735 170.026 81.9445C167.619 80.9155 163.123 82.8501 158.546 86.8015C153.145 91.4526 149.792 97.0915 150.574 100.179C150.653 100.469 150.782 100.744 150.954 100.991H148.753L148.66 100.662C147.518 96.1551 152.158 89.7033 157.26 85.3094C162.558 80.7509 167.619 78.8061 170.787 80.1644C173.955 81.5227 176.187 85.9268 176.794 92.0494C177.087 95.0416 176.945 98.0605 176.373 101.012Z" fill="#5454FC" fill-opacity="0.5"/>
<path d="M207.942 88.3656C205.453 89.94 202.933 90.1046 200.268 90.2692C196.026 90.492 191.782 89.8873 187.77 88.489C184.571 87.3468 180.426 85.1859 178.841 81.3683C177.257 77.5507 178.461 71.6648 181.927 65.9332C185.97 59.354 191.986 54.2189 199.116 51.2596C199.337 51.2353 199.56 51.2832 199.751 51.396C199.942 51.5088 200.092 51.6805 200.178 51.8855C200.264 52.0905 200.281 52.3177 200.226 52.5332C200.172 52.7486 200.05 52.9408 199.878 53.0809C193.128 55.8761 187.436 60.7349 183.614 66.9622C180.528 72.1073 179.335 77.4684 180.652 80.6274C182.812 85.8342 192.461 88.8595 200.124 88.3244C202.696 88.1598 204.928 88.0157 207.037 86.5957C211.934 83.3234 213.487 74.9782 212.859 68.6189C212.345 63.3916 210.463 59.3579 208.066 58.3289C205.669 57.2998 201.163 59.2344 196.576 63.1858C191.175 67.8369 187.832 73.4758 188.603 76.5629C189.121 77.822 190.116 78.8247 191.371 79.3515C193.952 80.72 197.44 81.2551 199.312 80.576C201.75 79.691 203.025 76.0998 203.21 72.9408C203.355 70.2962 202.737 68.8968 202.46 68.7527C202.46 68.7527 201.225 68.372 196.452 74.1653C196.39 74.3126 196.293 74.4432 196.171 74.5468C196.05 74.6505 195.905 74.7242 195.75 74.7622C195.594 74.8002 195.432 74.8014 195.276 74.7657C195.12 74.73 194.975 74.6584 194.851 74.5566C194.728 74.4548 194.63 74.3256 194.565 74.1792C194.5 74.0329 194.47 73.8734 194.478 73.7136C194.486 73.5537 194.53 73.3978 194.609 73.2583C194.687 73.1188 194.797 72.9995 194.93 72.9099C199.044 67.8986 201.565 66.1287 203.313 66.9725C205.288 67.9295 205.247 71.7986 205.186 72.9613C205 76.532 203.529 81.1934 199.991 82.4385C197.573 83.3131 193.562 82.7472 190.445 81.0905C188.387 79.9895 187.06 78.5797 186.67 77.0259C185.538 72.5189 190.167 66.067 195.269 61.6834C200.567 57.1146 205.628 55.1698 208.796 56.5384C211.964 57.907 214.207 62.3008 214.804 68.4234C215.503 75.6265 213.713 84.4862 208.117 88.2421L207.942 88.3656Z" fill="#5454FC" fill-opacity="0.5"/>
<path d="M246.682 60.9632C246.898 61.6629 247.145 62.3524 247.402 63.0212C246.96 63.4535 246.478 63.8429 245.962 64.184L245.746 64.328C243.257 65.9127 240.736 66.0671 238.072 66.242C233.83 66.4608 229.586 65.8563 225.574 64.4618C222.375 63.3196 218.229 61.1484 216.645 57.3308C215.061 53.5132 216.264 47.6375 219.731 41.8957C223.78 35.3141 229.803 30.179 236.941 27.222C237.164 27.1941 237.39 27.2403 237.585 27.3533C237.779 27.4664 237.931 27.6402 238.018 27.8481C238.104 28.056 238.12 28.2865 238.063 28.5042C238.006 28.722 237.879 28.915 237.702 29.0537C230.957 31.8516 225.267 36.7054 221.438 42.9247C218.352 48.0697 217.159 53.4412 218.476 56.5899C220.636 61.7967 230.285 64.7705 237.949 64.2869C240.52 64.1222 242.752 63.9885 244.861 62.5684C245.536 62.1156 246.148 61.5759 246.682 60.9632Z" fill="#5454FC" fill-opacity="0.5"/>
<path d="M249.11 34.3633C248.76 35.0115 248.431 35.6701 248.132 36.3492C247.604 35.4574 246.824 34.7415 245.89 34.2912C243.493 33.2622 238.988 35.1968 234.4 39.1378C229.009 43.7993 225.656 49.4279 226.428 52.5149C226.684 53.1441 227.062 53.7163 227.541 54.1984C228.019 54.6806 228.588 55.0632 229.215 55.3241C231.797 56.6927 235.284 57.2381 237.157 56.5487C239.594 55.674 240.87 52.0828 241.055 48.9134C241.199 46.2792 240.582 44.8694 240.304 44.7356C240.304 44.7356 239.07 44.3446 234.297 50.1379C234.234 50.2852 234.138 50.4159 234.016 50.5195C233.894 50.6231 233.75 50.6968 233.594 50.7348C233.439 50.7728 233.277 50.774 233.121 50.7383C232.965 50.7027 232.819 50.6311 232.696 50.5293C232.572 50.4274 232.474 50.2982 232.41 50.1519C232.345 50.0055 232.315 49.8461 232.323 49.6862C232.33 49.5264 232.375 49.3705 232.454 49.2309C232.532 49.0914 232.642 48.9721 232.774 48.8825C236.889 43.8816 239.409 42.1014 241.158 42.9555C243.133 43.9022 243.092 47.7712 243.03 48.934C242.845 52.5047 241.374 57.1661 237.835 58.4112C235.418 59.2858 231.406 58.7199 228.289 57.0734C226.232 55.9621 224.905 54.5524 224.514 52.9574C223.383 48.4504 228.012 42.0088 233.114 37.6149C238.412 33.0461 243.473 31.1116 246.651 32.4699C247.607 32.9008 248.449 33.5491 249.11 34.3633Z" fill="#5454FC" fill-opacity="0.5"/>
<path d="M265.435 7.71191V10.2948C262.831 12.561 260.593 15.2165 258.8 18.1671C257.381 20.4811 256.339 23.0064 255.714 25.6482C254.891 26.4509 254.109 27.2844 253.368 28.1591C253.718 24.2343 255.014 20.4527 257.144 17.138C259.334 13.5346 262.141 10.3441 265.435 7.71191Z" fill="#5454FC" fill-opacity="0.5"/>
<path d="M264.55 19.401C264.817 18.9999 265.105 18.6091 265.403 18.2183V18.9896L264.55 19.401Z" fill="#5454FC" fill-opacity="0.5"/>
</g>
<path d="M60.2154 47.6581C58.386 47.6642 56.5728 47.3147 54.8766 46.6291C53.2785 45.998 51.8207 45.0573 50.5871 43.861C49.3724 42.6906 48.4006 41.2919 47.7274 39.745C47.0375 38.118 46.6875 36.3672 46.6987 34.6C46.6731 32.8489 47.0162 31.1121 47.7056 29.5024C48.395 27.8926 49.4153 26.446 50.7002 25.2566C51.9821 24.0644 53.48 23.1284 55.1132 22.4988C56.8304 21.8421 58.6547 21.5106 60.4931 21.5213C62.6113 21.4829 64.7139 21.8895 66.6651 22.7149C68.4009 23.4394 69.936 24.5726 71.1398 26.018L66.8503 30.309C66.0735 29.3566 65.111 28.5723 64.0215 28.004C62.9082 27.4724 61.6852 27.2115 60.452 27.2426C59.1601 27.2193 57.8842 27.5313 56.7488 28.1481C55.6738 28.7502 54.7816 29.632 54.1668 30.7C53.5 31.8782 53.1657 33.2156 53.1999 34.5691C53.1701 35.9211 53.4814 37.2589 54.1051 38.4587C54.6864 39.5356 55.5554 40.4298 56.615 41.0415C57.7303 41.674 58.9954 41.994 60.2771 41.9677C61.5037 42.0094 62.7209 41.7404 63.8157 41.1856C64.7733 40.6691 65.5464 39.8671 66.0274 38.8909C66.5665 37.7796 66.8311 36.5551 66.7989 35.3203L71.1193 38.1089L59.5776 37.8208V32.6037H73.1869V33.571C73.2734 36.2357 72.7084 38.8814 71.541 41.2782C70.53 43.2873 68.9435 44.9496 66.984 46.0528C64.9039 47.1628 62.5722 47.7157 60.2154 47.6581Z" fill="#3F0129"/>
<path d="M85.3046 47.6581C83.3314 47.6983 81.3806 47.2343 79.6366 46.3101C78.0397 45.451 76.7198 44.1556 75.8306 42.5748C74.912 40.9207 74.4437 39.0542 74.4727 37.1622V21.9124H80.8402V37.6047C80.8183 38.4256 81.0211 39.2368 81.4265 39.9508C81.8063 40.5952 82.3634 41.1167 83.0313 41.4532C83.7383 41.8004 84.517 41.9766 85.3046 41.9677C86.0863 41.9829 86.8598 41.8063 87.5574 41.4532C88.1928 41.107 88.7225 40.5949 89.0901 39.9714C89.4883 39.2624 89.6874 38.4588 89.6662 37.6459V21.9124H96.0953V37.1622C96.1292 39.0548 95.6607 40.9225 94.7375 42.5748C93.8505 44.1413 92.5427 45.4282 90.9623 46.2895C89.2257 47.2257 87.2769 47.6971 85.3046 47.6581Z" fill="#3F0129"/>
<path d="M98.7904 47.2567V21.9122H105.189V47.2567H98.7904ZM103.862 36.9666V32.4287H108.686C109.561 32.4863 110.424 32.2106 111.104 31.6569C111.38 31.3919 111.596 31.0716 111.74 30.717C111.884 30.3623 111.951 29.9813 111.937 29.5989C111.948 29.2168 111.88 28.8366 111.736 28.4823C111.593 28.128 111.377 27.8074 111.104 27.5409C110.437 26.9601 109.568 26.6677 108.686 26.728L103.934 26.728V21.9122H109.653C111.216 21.8825 112.765 22.2135 114.179 22.8795C115.427 23.4676 116.493 24.3812 117.265 25.5241C118.001 26.7002 118.374 28.0677 118.335 29.4549C118.366 30.8547 117.976 32.2315 117.214 33.4062C116.45 34.5565 115.381 35.472 114.128 36.0508C112.658 36.7127 111.059 37.0362 109.447 36.9975L103.862 36.9666ZM112.513 47.2567L105.168 36.3904L110.929 35.0012L119.93 47.2567H112.513Z" fill="#3F0129"/>
<path d="M131.008 47.6581C129.035 47.6969 127.085 47.233 125.34 46.3101C123.746 45.4508 122.43 44.1552 121.545 42.5748C120.618 40.9233 120.146 39.0557 120.176 37.1622V21.9124H126.564V37.6047C126.543 38.4256 126.745 39.2368 127.151 39.9508C127.532 40.5982 128.093 41.1203 128.766 41.4532C129.469 41.8006 130.245 41.9769 131.029 41.9677C131.811 41.9829 132.584 41.8063 133.282 41.4532C133.91 41.104 134.432 40.5922 134.794 39.9714C135.192 39.2624 135.391 38.4589 135.37 37.6459V21.9124H141.799V37.1622C141.833 39.0548 141.364 40.9225 140.441 42.5748C139.555 44.1386 138.252 45.4249 136.676 46.2895C134.936 47.2256 132.984 47.697 131.008 47.6581Z" fill="#3F0129"/>
<path d="M52.1815 76.46V51.8667H54.7943V76.46H52.1815ZM53.8582 66.5918V64.2766H61.0589C61.9973 64.2919 62.9254 64.0801 63.7643 63.6592C64.5446 63.2717 65.2005 62.6727 65.657 61.9304C66.1155 61.104 66.356 60.1744 66.356 59.2293C66.356 58.2842 66.1155 57.3546 65.657 56.5281C65.2097 55.7917 64.5741 55.1878 63.8157 54.7788C62.9777 54.3544 62.0495 54.139 61.1103 54.1511H53.9096V51.8667H61.3469C62.7218 51.8453 64.0812 52.1597 65.3073 52.7826C66.4492 53.3628 67.4099 54.2455 68.0847 55.3345C68.7525 56.522 69.1033 57.8616 69.1033 59.2241C69.1033 60.5867 68.7525 61.9262 68.0847 63.1138C67.4137 64.211 66.4525 65.1013 65.3073 65.6863C64.0805 66.306 62.721 66.6168 61.3469 66.5918H53.8582Z" fill="#3F0129"/>
<path d="M73.7321 76.46L83.8027 51.8667H85.7675L95.7044 76.46H92.9167L84.2348 54.7273H85.2634L76.5198 76.46H73.7321ZM78.3405 70.0904V67.7443H91.2091V70.0904H78.3405Z" fill="#3F0129"/>
<path d="M110.003 76.82C108.293 76.8666 106.597 76.4921 105.065 75.7293C103.652 74.9626 102.412 73.9116 101.424 72.6423L103.245 70.8518C103.993 71.9425 104.991 72.8387 106.156 73.4655C107.386 74.06 108.74 74.3528 110.106 74.3195C111.458 74.3931 112.799 74.0326 113.932 73.2905C114.403 72.9571 114.783 72.5115 115.038 71.994C115.293 71.4765 115.415 70.9035 115.393 70.327C115.424 69.4699 115.187 68.6244 114.714 67.9088C114.25 67.2685 113.645 66.7439 112.945 66.3756C112.171 65.9685 111.366 65.6244 110.538 65.3466C109.653 65.0379 108.779 64.7086 107.915 64.3176C107.06 63.9792 106.249 63.5405 105.497 63.0108C104.754 62.4734 104.148 61.7684 103.728 60.9527C103.255 59.9947 103.029 58.9335 103.07 57.8657C103.034 56.6515 103.371 55.4555 104.037 54.4391C104.691 53.4693 105.608 52.7056 106.68 52.2371C107.881 51.7053 109.184 51.4419 110.497 51.4653C111.974 51.4353 113.437 51.7562 114.766 52.4017C115.965 52.9987 117.019 53.8524 117.852 54.9022L116.113 56.7132C115.422 55.8711 114.573 55.172 113.614 54.6552C112.624 54.162 111.53 53.9183 110.425 53.9452C109.199 53.8891 107.991 54.252 106.999 54.9742C106.581 55.3004 106.246 55.7216 106.022 56.2029C105.799 56.6843 105.693 57.2119 105.713 57.7422C105.675 58.5459 105.907 59.3392 106.372 59.9958C106.85 60.596 107.454 61.0842 108.141 61.4261C108.921 61.8277 109.729 62.1716 110.558 62.4551C111.422 62.7535 112.297 63.0725 113.182 63.4327C114.04 63.7779 114.849 64.2346 115.589 64.7909C116.32 65.3413 116.923 66.0434 117.358 66.849C117.846 67.8576 118.079 68.9706 118.037 70.0903C118.085 71.0263 117.914 71.9606 117.539 72.8196C117.165 73.6785 116.595 74.4386 115.877 75.0398C114.189 76.3057 112.109 76.936 110.003 76.82Z" fill="#3F0129"/>
<path d="M133.23 76.8201C131.52 76.8654 129.825 76.491 128.293 75.7294C126.879 74.9627 125.639 73.9116 124.651 72.6423L126.472 70.8519C127.22 71.9426 128.218 72.8387 129.383 73.4655C130.613 74.0601 131.967 74.3528 133.333 74.3196C134.686 74.3932 136.026 74.0327 137.16 73.2906C137.63 72.9572 138.011 72.5115 138.266 71.9941C138.521 71.4766 138.643 70.9036 138.62 70.3271C138.652 69.4699 138.414 68.6245 137.942 67.9089C137.477 67.2686 136.872 66.7439 136.172 66.3757C135.399 65.9686 134.594 65.6245 133.765 65.3467C132.88 65.038 132.006 64.7087 131.142 64.3177C130.287 63.9793 129.476 63.5406 128.725 63.0108C127.981 62.4735 127.375 61.7684 126.955 60.9528C126.482 59.9948 126.256 58.9336 126.297 57.8658C126.261 56.6515 126.599 55.4555 127.264 54.4392C127.919 53.4694 128.836 52.7057 129.908 52.2371C131.109 51.7063 132.411 51.443 133.724 51.4654C135.204 51.4369 136.67 51.7577 138.003 52.4018C139.203 52.9979 140.257 53.8517 141.089 54.9023L139.341 56.7133C138.652 55.8722 137.807 55.1732 136.851 54.6553C135.865 54.1634 134.774 53.9196 133.673 53.9453C132.444 53.8892 131.233 54.252 130.237 54.9743C129.816 55.2994 129.48 55.7201 129.254 56.2015C129.029 56.6829 128.921 57.2111 128.941 57.7423C128.902 58.546 129.134 59.3393 129.599 59.9958C130.077 60.5961 130.681 61.0843 131.368 61.4262C132.148 61.8277 132.956 62.1717 133.786 62.4552C134.65 62.7536 135.524 63.0726 136.409 63.4327C137.269 63.7802 138.082 64.2367 138.826 64.791C139.555 65.3442 140.158 66.0456 140.596 66.849C141.08 67.8586 141.309 68.9715 141.264 70.0904C141.312 71.0264 141.142 71.9607 140.767 72.8196C140.392 73.6786 139.823 74.4386 139.104 75.0399C137.416 76.3057 135.336 76.936 133.23 76.8201Z" fill="#3F0129"/>
<path d="M219.731 82.459H170.89V85.2682H219.731V82.459Z" fill="#3F0129"/>
<path d="M219.731 77.2214H170.89V78.6312H219.731V77.2214Z" fill="#3F0129"/>
<path d="M219.731 69.6067H170.89V71.0164H219.731V69.6067Z" fill="#3F0129"/>
<path d="M219.731 54.6038H170.89V57.4129H219.731V54.6038Z" fill="#3F0129"/>
<path d="M219.731 60.1604H170.89V65.2231H219.731V60.1604Z" fill="#3F0129"/>
<path d="M219.731 24.5979L170.89 24.5979V27.4071L219.731 27.4071V24.5979Z" fill="#3F0129"/>
<path d="M219.731 41.834H170.89V43.2437H219.731V41.834Z" fill="#3F0129"/>
<path d="M219.731 33.2004H170.89V34.0442L219.731 34.0442V33.2004Z" fill="#3F0129"/>
<path d="M219.731 37.656H170.89V38.4998L219.731 38.4998V37.656Z" fill="#3F0129"/>
<path d="M219.731 15.8513L170.89 15.8513V16.6951L219.731 16.6951V15.8513Z" fill="#3F0129"/>
<path d="M219.731 20.3071L170.89 20.3071V21.1509L219.731 21.1509V20.3071Z" fill="#3F0129"/>
<path d="M219.731 46.5056H170.89V47.9154H219.731V46.5056Z" fill="#3F0129"/>
<path d="M219.731 50.1997H170.89V52.1651H219.731V50.1997Z" fill="#3F0129"/>
</g>
<defs>
<clipPath id="clip0_243_96">
<rect width="265.365" height="100.894" fill="white" transform="translate(0.0383301 0.11792)"/>
</clipPath>
</defs>
</svg>
