<svg width="159" height="45" viewBox="0 0 159 45" fill="none" xmlns="http://www.w3.org/2000/svg">
<rect width="158.94" height="45" rx="8" fill="white"/>
<path fill-rule="evenodd" clip-rule="evenodd" d="M20.47 11.1859C17.1259 11.1859 14.4149 13.8969 14.4149 17.241V27.7592C14.4149 31.1033 17.1259 33.8143 20.47 33.8143C23.8141 33.8143 26.5251 31.1033 26.5251 27.7592V27.0079C26.5251 25.7324 25.8969 24.6037 24.9331 23.9142V26.2566C24.9331 28.7215 22.9349 30.7197 20.47 30.7197C18.0051 30.7197 16.0069 28.7215 16.0069 26.2566V25.7557C16.0069 23.0142 18.2294 20.7918 20.9709 20.7918H22.5182V18.7436C22.5182 17.6124 21.6012 16.6954 20.47 16.6954C19.3388 16.6954 18.4218 17.6124 18.4218 18.7436V18.994H16.0069V18.7436C16.0069 16.2787 18.0051 14.2805 20.47 14.2805C22.9349 14.2805 24.9331 16.2787 24.9331 18.7436V21.1958C27.2755 22.0866 28.94 24.3529 28.94 27.0079V27.7592C28.94 32.437 25.1479 36.2292 20.47 36.2292C15.7922 36.2292 12 32.437 12 27.7592L12 17.241C12 12.5631 15.7922 8.771 20.47 8.771C25.1479 8.771 28.94 12.5631 28.94 17.241V18.4932H26.5251V17.241C26.5251 13.8968 23.8141 11.1859 20.47 11.1859ZM22.5182 23.2067H20.9709C19.5631 23.2067 18.4218 24.3479 18.4218 25.7557V26.2566C18.4218 27.3878 19.3388 28.3048 20.47 28.3048C21.6012 28.3048 22.5182 27.3878 22.5182 26.2566V23.2067Z" fill="url(#paint0_linear_172_1551)"/>
<path d="M38.765 32C38.515 32 38.2733 31.9417 38.04 31.825C37.8233 31.6917 37.715 31.5 37.715 31.25V14.45C37.715 14.2 37.8233 14.0167 38.04 13.9C38.2733 13.7833 38.515 13.725 38.765 13.725C39.0317 13.725 39.2733 13.7833 39.49 13.9C39.7067 14.0167 39.815 14.2 39.815 14.45V31.25C39.815 31.5 39.7067 31.6917 39.49 31.825C39.2733 31.9417 39.0317 32 38.765 32ZM43.9291 32C43.6791 32 43.4374 31.9417 43.2041 31.825C42.9874 31.6917 42.8791 31.5 42.8791 31.25V14.45C42.8791 14.1833 42.9874 14 43.2041 13.9C43.4374 13.7833 43.6791 13.725 43.9291 13.725C44.1957 13.725 44.4207 13.775 44.6041 13.875C44.7874 13.975 44.9541 14.125 45.1041 14.325C45.2541 14.5083 45.4041 14.75 45.5541 15.05L51.7541 27.225V14.45C51.7541 14.2 51.8624 14.0167 52.0791 13.9C52.3124 13.7833 52.5541 13.725 52.8041 13.725C53.0707 13.725 53.3124 13.7833 53.5291 13.9C53.7457 14.0167 53.8541 14.2 53.8541 14.45V31.25C53.8541 31.5 53.7457 31.6917 53.5291 31.825C53.3124 31.9417 53.0707 32 52.8041 32C52.5374 32 52.2874 31.9083 52.0541 31.725C51.8374 31.5417 51.6541 31.3167 51.5041 31.05L44.9791 18.475V31.25C44.9791 31.5 44.8707 31.6917 44.6541 31.825C44.4374 31.9417 44.1957 32 43.9291 32ZM61.2798 32.2C60.2132 32.2 59.2798 32.0417 58.4798 31.725C57.6798 31.3917 57.0632 31.0083 56.6298 30.575C56.1965 30.125 55.9798 29.725 55.9798 29.375C55.9798 29.2083 56.0215 29.0417 56.1048 28.875C56.2048 28.6917 56.3215 28.5417 56.4548 28.425C56.6048 28.2917 56.7548 28.225 56.9048 28.225C57.1048 28.225 57.2965 28.325 57.4798 28.525C57.6798 28.725 57.9215 28.9667 58.2048 29.25C58.5048 29.5167 58.8882 29.75 59.3548 29.95C59.8215 30.15 60.4298 30.25 61.1798 30.25C61.8798 30.25 62.4882 30.1417 63.0048 29.925C63.5215 29.6917 63.9215 29.35 64.2048 28.9C64.5048 28.4333 64.6548 27.85 64.6548 27.15C64.6548 26.4333 64.5048 25.85 64.2048 25.4C63.9048 24.95 63.5048 24.575 63.0048 24.275C62.5215 23.975 61.9882 23.7083 61.4048 23.475C60.8382 23.2417 60.2548 23.0083 59.6548 22.775C59.0715 22.525 58.5382 22.225 58.0548 21.875C57.5715 21.5083 57.1798 21.0417 56.8798 20.475C56.5798 19.9083 56.4298 19.1917 56.4298 18.325C56.4298 17.4083 56.5965 16.65 56.9298 16.05C57.2632 15.45 57.7048 14.975 58.2548 14.625C58.8048 14.275 59.3965 14.0333 60.0298 13.9C60.6798 13.75 61.3132 13.675 61.9298 13.675C62.3798 13.675 62.8548 13.7083 63.3548 13.775C63.8548 13.8417 64.3298 13.9417 64.7798 14.075C65.2298 14.2083 65.5965 14.3833 65.8798 14.6C66.1632 14.8 66.3048 15.0417 66.3048 15.325C66.3048 15.4583 66.2715 15.6167 66.2048 15.8C66.1382 15.9667 66.0382 16.125 65.9048 16.275C65.7715 16.4083 65.6048 16.475 65.4048 16.475C65.2215 16.475 64.9965 16.4 64.7298 16.25C64.4632 16.0833 64.1048 15.925 63.6548 15.775C63.2215 15.6083 62.6465 15.525 61.9298 15.525C61.3298 15.525 60.7632 15.6083 60.2298 15.775C59.7132 15.9417 59.2965 16.2167 58.9798 16.6C58.6798 16.9833 58.5298 17.4917 58.5298 18.125C58.5298 18.725 58.6798 19.2167 58.9798 19.6C59.2798 19.9833 59.6715 20.3 60.1548 20.55C60.6382 20.8 61.1715 21.0333 61.7548 21.25C62.3382 21.45 62.9215 21.6917 63.5048 21.975C64.0882 22.2417 64.6215 22.575 65.1048 22.975C65.6048 23.375 66.0048 23.9 66.3048 24.55C66.6048 25.1833 66.7548 25.9833 66.7548 26.95C66.7548 28.15 66.5132 29.1417 66.0298 29.925C65.5632 30.6917 64.9215 31.2667 64.1048 31.65C63.2882 32.0167 62.3465 32.2 61.2798 32.2ZM73.231 32C72.9644 32 72.7227 31.9417 72.506 31.825C72.2894 31.6917 72.181 31.5 72.181 31.25V15.675H68.131C67.9144 15.675 67.7394 15.575 67.606 15.375C67.4727 15.175 67.406 14.9417 67.406 14.675C67.406 14.4417 67.4644 14.225 67.581 14.025C67.6977 13.825 67.881 13.725 68.131 13.725H78.331C78.581 13.725 78.7644 13.825 78.881 14.025C78.9977 14.225 79.056 14.4417 79.056 14.675C79.056 14.925 78.9977 15.1583 78.881 15.375C78.7644 15.575 78.581 15.675 78.331 15.675H74.281V31.25C74.281 31.5 74.1727 31.6917 73.956 31.825C73.7394 31.9417 73.4977 32 73.231 32ZM79.0964 32C78.9298 32 78.7381 31.9667 78.5214 31.9C78.3214 31.8167 78.1548 31.7083 78.0214 31.575C77.9048 31.4417 77.8464 31.2917 77.8464 31.125C77.8464 31.0583 77.8548 30.9917 77.8714 30.925L82.9964 14.3C83.0631 14.05 83.2214 13.8667 83.4714 13.75C83.7214 13.6333 83.9881 13.575 84.2714 13.575C84.5714 13.575 84.8464 13.6417 85.0964 13.775C85.3464 13.8917 85.5048 14.0667 85.5714 14.3L90.6714 30.925C90.7048 30.9917 90.7214 31.05 90.7214 31.1C90.7214 31.2667 90.6464 31.4167 90.4964 31.55C90.3631 31.6833 90.1964 31.7917 89.9964 31.875C89.7964 31.9583 89.6048 32 89.4214 32C89.2381 32 89.0798 31.9667 88.9464 31.9C88.8131 31.8167 88.7214 31.6917 88.6714 31.525L87.5464 27.8H80.9714L79.8964 31.525C79.8464 31.6917 79.7464 31.8167 79.5964 31.9C79.4631 31.9667 79.2964 32 79.0964 32ZM81.4714 26.075H87.0714L84.2714 16.675L81.4714 26.075ZM97.5927 32.15C96.5761 32.15 95.6594 31.975 94.8427 31.625C94.0427 31.2583 93.4011 30.675 92.9177 29.875C92.4511 29.075 92.2177 28.0167 92.2177 26.7V19.175C92.2177 17.8583 92.4511 16.8 92.9177 16C93.4011 15.2 94.0427 14.625 94.8427 14.275C95.6594 13.9083 96.5594 13.725 97.5427 13.725C98.6427 13.725 99.5927 13.9167 100.393 14.3C101.209 14.6667 101.843 15.1833 102.293 15.85C102.759 16.5167 102.993 17.3 102.993 18.2C102.993 18.6 102.901 18.875 102.718 19.025C102.534 19.1583 102.276 19.225 101.943 19.225C101.659 19.225 101.418 19.175 101.218 19.075C101.018 18.9583 100.909 18.7667 100.893 18.5C100.826 17.9167 100.676 17.4167 100.443 17C100.209 16.5667 99.8594 16.2333 99.3927 16C98.9261 15.75 98.3261 15.625 97.5927 15.625C96.5594 15.625 95.7511 15.9167 95.1677 16.5C94.6011 17.0667 94.3177 17.9583 94.3177 19.175V26.7C94.3177 27.9167 94.6011 28.8167 95.1677 29.4C95.7511 29.9667 96.5594 30.25 97.5927 30.25C98.6261 30.25 99.4344 29.9667 100.018 29.4C100.601 28.8167 100.893 27.9167 100.893 26.7V24.15H97.9177C97.6844 24.15 97.5011 24.0583 97.3677 23.875C97.2511 23.6917 97.1927 23.4917 97.1927 23.275C97.1927 23.0583 97.2511 22.8583 97.3677 22.675C97.5011 22.4917 97.6844 22.4 97.9177 22.4H102.268C102.501 22.4 102.676 22.475 102.793 22.625C102.926 22.775 102.993 22.9583 102.993 23.175V26.7C102.993 28.0167 102.751 29.075 102.268 29.875C101.801 30.675 101.159 31.2583 100.343 31.625C99.5261 31.975 98.6094 32.15 97.5927 32.15ZM115.289 32.05C115.089 32.05 114.906 31.9667 114.739 31.8C114.589 31.6333 114.456 31.4417 114.339 31.225L110.589 23.9H107.689V31.25C107.689 31.5 107.581 31.6917 107.364 31.825C107.147 31.9417 106.906 32 106.639 32C106.389 32 106.147 31.9417 105.914 31.825C105.697 31.6917 105.589 31.5 105.589 31.25V14.45C105.589 14.25 105.656 14.0833 105.789 13.95C105.939 13.8167 106.122 13.7417 106.339 13.725H110.914C111.931 13.725 112.856 13.8833 113.689 14.2C114.539 14.5 115.214 15.0167 115.714 15.75C116.214 16.4667 116.464 17.4583 116.464 18.725C116.464 19.7417 116.297 20.5833 115.964 21.25C115.647 21.9167 115.206 22.4417 114.639 22.825C114.072 23.1917 113.439 23.45 112.739 23.6L116.439 30.625C116.472 30.6917 116.497 30.7583 116.514 30.825C116.531 30.875 116.539 30.925 116.539 30.975C116.539 31.1583 116.472 31.3333 116.339 31.5C116.222 31.6667 116.064 31.8 115.864 31.9C115.681 32 115.489 32.05 115.289 32.05ZM107.689 22.15H110.914C111.947 22.15 112.781 21.9 113.414 21.4C114.047 20.9 114.364 20.0583 114.364 18.875C114.364 17.6917 114.047 16.8583 113.414 16.375C112.781 15.875 111.947 15.625 110.914 15.625H107.689V22.15ZM118.466 32C118.299 32 118.107 31.9667 117.891 31.9C117.691 31.8167 117.524 31.7083 117.391 31.575C117.274 31.4417 117.216 31.2917 117.216 31.125C117.216 31.0583 117.224 30.9917 117.241 30.925L122.366 14.3C122.432 14.05 122.591 13.8667 122.841 13.75C123.091 13.6333 123.357 13.575 123.641 13.575C123.941 13.575 124.216 13.6417 124.466 13.775C124.716 13.8917 124.874 14.0667 124.941 14.3L130.041 30.925C130.074 30.9917 130.091 31.05 130.091 31.1C130.091 31.2667 130.016 31.4167 129.866 31.55C129.732 31.6833 129.566 31.7917 129.366 31.875C129.166 31.9583 128.974 32 128.791 32C128.607 32 128.449 31.9667 128.316 31.9C128.182 31.8167 128.091 31.6917 128.041 31.525L126.916 27.8H120.341L119.266 31.525C119.216 31.6917 119.116 31.8167 118.966 31.9C118.832 31.9667 118.666 32 118.466 32ZM120.841 26.075H126.441L123.641 16.675L120.841 26.075ZM132.812 32C132.562 32 132.32 31.9417 132.087 31.825C131.87 31.6917 131.762 31.5 131.762 31.25V14.75C131.762 14.3667 131.87 14.1 132.087 13.95C132.32 13.8 132.562 13.725 132.812 13.725C133.079 13.725 133.304 13.775 133.487 13.875C133.687 13.975 133.862 14.125 134.012 14.325C134.179 14.5083 134.337 14.75 134.487 15.05L138.437 22.575L142.387 15.05C142.554 14.75 142.712 14.5083 142.862 14.325C143.029 14.125 143.204 13.975 143.387 13.875C143.587 13.775 143.812 13.725 144.062 13.725C144.345 13.725 144.587 13.8 144.787 13.95C145.004 14.1 145.112 14.3667 145.112 14.75V31.25C145.112 31.5 145.004 31.6917 144.787 31.825C144.57 31.9417 144.329 32 144.062 32C143.795 32 143.554 31.9417 143.337 31.825C143.12 31.6917 143.012 31.5 143.012 31.25V18.125L139.212 25.225C139.095 25.425 138.97 25.575 138.837 25.675C138.704 25.7583 138.562 25.8 138.412 25.8C138.295 25.8 138.162 25.7583 138.012 25.675C137.879 25.5917 137.754 25.4417 137.637 25.225L133.862 18.025V31.25C133.862 31.5 133.754 31.6917 133.537 31.825C133.32 31.9417 133.079 32 132.812 32Z" fill="black"/>
<defs>
<linearGradient id="paint0_linear_172_1551" x1="12" y1="8.771" x2="37.6906" y2="27.2878" gradientUnits="userSpaceOnUse">
<stop stop-color="#D9D9D9"/>
<stop offset="0.0001" stop-color="#7300E4"/>
<stop offset="0.455965" stop-color="#E300A4"/>
<stop offset="1" stop-color="#FFB763"/>
</linearGradient>
</defs>
</svg>
