<svg width="221" height="73" viewBox="0 0 221 73" fill="none" xmlns="http://www.w3.org/2000/svg">
<path d="M101.575 34.812C99.5264 34.812 97.6488 34.4124 95.8281 33.6133C94.0074 32.8141 92.4712 31.7295 91.1057 30.3596C89.7402 28.9896 88.7161 27.3342 87.9195 25.5076C87.123 23.681 86.7816 21.6831 86.7816 19.571C86.7816 17.459 87.1799 15.4611 87.9195 13.6345C88.7161 11.8079 89.7402 10.2096 91.1057 8.78253C92.4712 7.41256 94.0643 6.328 95.885 5.52885C97.7057 4.7297 99.6971 4.38721 101.859 4.38721C104.192 4.38721 106.354 4.84386 108.345 5.75718C110.337 6.67049 111.987 7.9263 113.352 9.58168L110.052 12.8924C109.199 11.6366 108.004 10.7233 106.582 10.0383C105.102 9.35335 103.566 9.06794 101.859 9.06794C99.8109 9.06794 98.0471 9.5246 96.5109 10.3808C94.9747 11.2941 93.7799 12.4929 92.9264 14.0912C92.073 15.6895 91.6747 17.5161 91.6747 19.571C91.6747 21.6831 92.1299 23.5097 92.9833 25.108C93.8368 26.7063 94.9747 27.9621 96.454 28.8184C97.9333 29.7317 99.5833 30.1883 101.404 30.1883C103.395 30.1883 105.045 29.8458 106.468 29.1038C107.89 28.3617 108.971 27.3342 109.711 25.9072C110.45 24.4801 110.849 22.7106 110.849 20.6556L113.864 22.8247H101.29V18.3723H115.856V19.0573C115.856 22.5964 115.23 25.5076 113.978 27.848C112.726 30.1883 111.019 31.9579 108.857 33.0995C106.866 34.2412 104.363 34.812 101.575 34.812Z" fill="#3F0129"/>
<path d="M117.619 34.4125V14.1483H122.228V34.4125H117.619ZM122.285 23.1102L120.692 22.311C120.692 19.7424 121.261 17.6874 122.399 16.0891C123.537 14.4908 125.244 13.6917 127.576 13.6917C128.6 13.6917 129.511 13.8629 130.307 14.2625C131.104 14.605 131.9 15.2329 132.583 16.032L129.568 19.1715C129.226 18.772 128.771 18.4865 128.373 18.3153C127.918 18.1441 127.406 18.087 126.837 18.087C125.528 18.087 124.504 18.4865 123.65 19.2857C122.683 20.0848 122.285 21.3977 122.285 23.1102Z" fill="#3F0129"/>
<path d="M140.947 34.812C138.956 34.812 137.192 34.3554 135.599 33.385C134.006 32.4146 132.754 31.1588 131.787 29.5605C130.819 27.9622 130.364 26.1926 130.364 24.1948C130.364 22.1969 130.819 20.4273 131.787 18.8861C132.754 17.2878 134.006 16.032 135.599 15.1187C137.192 14.1483 138.956 13.6917 140.947 13.6917C142.938 13.6917 144.759 14.1483 146.352 15.0616C147.945 15.9749 149.197 17.2307 150.164 18.829C151.131 20.4273 151.587 22.1969 151.587 24.1948C151.587 26.1926 151.131 27.9622 150.164 29.5605C149.197 31.1588 147.945 32.4146 146.352 33.385C144.702 34.3554 142.938 34.812 140.947 34.812ZM140.947 30.3596C142.085 30.3596 143.109 30.0742 144.019 29.5605C144.93 29.0467 145.612 28.3047 146.068 27.3914C146.58 26.478 146.807 25.3935 146.807 24.2518C146.807 23.1102 146.58 22.0256 146.068 21.1123C145.556 20.199 144.873 19.514 144.019 19.0003C143.166 18.4865 142.142 18.2011 141.004 18.2011C139.866 18.2011 138.899 18.4865 137.988 19.0003C137.078 19.514 136.395 20.2561 135.94 21.1123C135.428 22.0256 135.2 23.0531 135.2 24.2518C135.2 25.4506 135.428 26.478 135.94 27.3914C136.452 28.3047 137.135 29.0467 137.988 29.5605C138.842 30.0742 139.809 30.3596 140.947 30.3596Z" fill="#3F0129"/>
<path d="M162.112 34.812C160.121 34.812 158.357 34.3554 156.764 33.385C155.171 32.4146 153.919 31.1588 152.952 29.5605C151.985 27.9622 151.53 26.1926 151.53 24.1948C151.53 22.1969 151.985 20.4273 152.952 18.8861C153.919 17.2878 155.171 16.032 156.764 15.1187C158.357 14.1483 160.121 13.6917 162.112 13.6917C164.104 13.6917 165.924 14.1483 167.517 15.0616C169.111 15.9749 170.362 17.2307 171.33 18.829C172.297 20.4273 172.752 22.1969 172.752 24.1948C172.752 26.1926 172.297 27.9622 171.33 29.5605C170.362 31.1588 169.111 32.4146 167.517 33.385C165.867 34.3554 164.104 34.812 162.112 34.812ZM162.112 30.3596C163.25 30.3596 164.274 30.0742 165.185 29.5605C166.095 29.0467 166.778 28.3047 167.233 27.3914C167.745 26.478 167.973 25.3935 167.973 24.2518C167.973 23.1102 167.745 22.0256 167.233 21.1123C166.721 20.199 166.038 19.514 165.185 19.0003C164.331 18.4865 163.307 18.2011 162.169 18.2011C161.031 18.2011 160.064 18.4865 159.154 19.0003C158.243 19.514 157.561 20.2561 157.105 21.1123C156.593 22.0256 156.366 23.0531 156.366 24.2518C156.366 25.4506 156.593 26.478 157.105 27.3914C157.618 28.3047 158.3 29.0467 159.154 29.5605C160.007 30.0742 160.974 30.3596 162.112 30.3596Z" fill="#3F0129"/>
<path d="M180.148 34.4123L170.931 14.1482H176.052L183.107 30.6449H180.092L187.147 14.1482H192.097L182.879 34.4123H180.148Z" fill="#3F0129"/>
<path d="M201.029 34.8121C198.981 34.8121 197.217 34.3554 195.567 33.4421C193.974 32.5288 192.666 31.273 191.755 29.6747C190.788 28.0764 190.333 26.2498 190.333 24.2519C190.333 22.254 190.788 20.4845 191.698 18.8862C192.609 17.2879 193.86 16.0321 195.454 15.1187C197.047 14.2054 198.81 13.7488 200.745 13.7488C202.622 13.7488 204.272 14.2054 205.752 15.0617C207.174 15.9179 208.312 17.1166 209.166 18.6578C210.019 20.1991 210.417 21.9115 210.417 23.8523C210.417 24.1948 210.417 24.5373 210.36 24.8798C210.303 25.2223 210.247 25.6219 210.19 26.0214H193.576V22.1969H207.743L206.036 23.7381C205.979 22.4823 205.752 21.4549 205.297 20.5986C204.898 19.7424 204.272 19.1145 203.533 18.6578C202.736 18.2012 201.826 17.9729 200.688 17.9729C199.493 17.9729 198.469 18.2012 197.616 18.7149C196.762 19.2287 196.079 19.9136 195.567 20.827C195.112 21.7403 194.828 22.8248 194.828 24.0806C194.828 25.3364 195.055 26.4781 195.567 27.3914C196.079 28.3618 196.762 29.1039 197.729 29.6176C198.64 30.1313 199.721 30.4168 200.916 30.4168C201.94 30.4168 202.907 30.2455 203.817 29.8459C204.728 29.5034 205.467 28.9326 206.093 28.2476L209.052 31.273C208.085 32.4146 206.89 33.3279 205.467 33.8988C204.045 34.5267 202.566 34.8121 201.029 34.8121Z" fill="#3F0129"/>
<path d="M114.206 66.2072C112.157 66.2072 110.28 65.8077 108.459 65.0085C106.638 64.2094 105.102 63.1248 103.737 61.7548C102.371 60.3849 101.347 58.7295 100.551 56.9028C99.754 55.0762 99.4126 53.0784 99.4126 50.9663C99.4126 48.8543 99.8109 46.8564 100.551 45.0298C101.347 43.2031 102.371 41.6048 103.737 40.1778C105.102 38.8078 106.695 37.7233 108.516 36.9241C110.337 36.125 112.328 35.7825 114.49 35.7825C116.823 35.7825 118.985 36.2391 120.976 37.1524C122.968 38.0658 124.618 39.3216 125.983 40.9769L122.683 44.2877C121.83 43.0319 120.635 42.1186 119.213 41.4336C117.733 40.7486 116.197 40.4632 114.49 40.4632C112.442 40.4632 110.678 40.9199 109.142 41.7761C107.606 42.6894 106.411 43.8881 105.557 45.4864C104.704 47.0847 104.306 48.9114 104.306 50.9663C104.306 53.0784 104.761 54.905 105.614 56.5033C106.468 58.1016 107.606 59.3574 109.085 60.2136C110.564 61.1269 112.214 61.5836 114.035 61.5836C116.026 61.5836 117.676 61.2411 119.099 60.499C120.521 59.757 121.602 58.7295 122.342 57.3024C123.081 55.8754 123.48 54.1058 123.48 52.0509L126.495 54.22H113.921V49.7676H128.487V50.4526C128.487 53.9917 127.861 56.9029 126.609 59.2432C125.357 61.5836 123.65 63.3531 121.488 64.4948C119.497 65.6364 116.994 66.2072 114.206 66.2072Z" fill="#3F0129"/>
<path d="M138.557 66.2072C136.85 66.2072 135.314 65.8076 134.006 65.0655C132.697 64.3235 131.616 63.2389 130.876 61.926C130.137 60.6131 129.738 59.0719 129.738 57.3024V45.5435H134.347V57.074C134.347 58.0444 134.518 58.9007 134.859 59.5857C135.2 60.2706 135.656 60.7844 136.281 61.184C136.907 61.5264 137.647 61.7548 138.557 61.7548C139.923 61.7548 140.947 61.3552 141.63 60.556C142.312 59.7569 142.711 58.6153 142.711 57.1311V45.5435H147.319V57.3024C147.319 59.0719 146.921 60.6131 146.181 61.9831C145.442 63.296 144.418 64.3806 143.109 65.1226C141.857 65.8647 140.321 66.2072 138.557 66.2072Z" fill="#3F0129"/>
<path d="M149.538 65.8075V45.5433H154.147V65.8075H149.538ZM154.147 54.5052L152.554 53.7061C152.554 51.1374 153.123 49.0824 154.261 47.4841C155.399 45.8858 157.105 45.0867 159.438 45.0867C160.462 45.0867 161.373 45.2579 162.169 45.6575C162.966 46 163.762 46.6279 164.445 47.427L161.43 50.5666C161.088 50.167 160.633 49.8816 160.235 49.7103C159.78 49.5391 159.268 49.482 158.699 49.482C157.39 49.482 156.366 49.8816 155.512 50.6807C154.545 51.4799 154.147 52.7928 154.147 54.5052Z" fill="#3F0129"/>
<path d="M172.411 66.2072C170.704 66.2072 169.167 65.8076 167.859 65.0655C166.55 64.3235 165.469 63.2389 164.73 61.926C163.99 60.6131 163.592 59.0719 163.592 57.3024V45.5435H168.2V57.074C168.2 58.0444 168.371 58.9007 168.712 59.5857C169.054 60.2706 169.509 60.7844 170.135 61.184C170.761 61.5264 171.5 61.7548 172.411 61.7548C173.776 61.7548 174.8 61.3552 175.483 60.556C176.166 59.7569 176.564 58.6153 176.564 57.1311V45.5435H181.173V57.3024C181.173 59.0719 180.774 60.6131 180.035 61.9831C179.295 63.296 178.271 64.3806 176.962 65.1226C175.711 65.8647 174.174 66.2072 172.411 66.2072Z" fill="#3F0129"/>
<path d="M189.991 66.2071C188.854 66.2071 187.773 66.0359 186.748 65.7504C185.724 65.465 184.757 65.0084 183.904 64.4946C183.05 63.9238 182.254 63.2959 181.628 62.4968L184.586 59.5285C185.269 60.3276 186.123 60.9555 187.033 61.3551C187.943 61.7547 188.967 61.983 190.105 61.983C191.129 61.983 191.926 61.8118 192.438 61.5264C192.95 61.241 193.235 60.7843 193.235 60.1564C193.235 59.5285 193.007 59.0718 192.495 58.7293C191.983 58.3869 191.357 58.1014 190.56 57.8731C189.764 57.6448 188.91 57.3594 188.057 57.131C187.204 56.9027 186.35 56.5602 185.554 56.1036C184.757 55.6469 184.074 55.0761 183.619 54.334C183.107 53.592 182.879 52.5645 182.879 51.3658C182.879 50.0529 183.164 48.9683 183.79 48.055C184.416 47.1417 185.269 46.3996 186.35 45.8859C187.431 45.3721 188.797 45.1438 190.333 45.1438C191.983 45.1438 193.405 45.4292 194.657 46C195.909 46.5709 196.933 47.4271 197.786 48.6258L194.828 51.5941C194.259 50.852 193.576 50.3383 192.779 49.9387C192.04 49.5962 191.129 49.3679 190.162 49.3679C189.252 49.3679 188.512 49.482 188 49.7674C187.488 50.0529 187.26 50.4524 187.26 50.9662C187.26 51.537 187.488 51.9937 188 52.2791C188.512 52.5645 189.138 52.8499 189.935 53.0782C190.731 53.3065 191.585 53.5349 192.438 53.8203C193.348 54.1057 194.145 54.4482 194.941 54.9048C195.738 55.3615 196.421 55.9894 196.876 56.7886C197.388 57.5877 197.616 58.5581 197.616 59.8139C197.616 61.8118 196.933 63.353 195.567 64.4946C194.202 65.6363 192.324 66.2071 189.991 66.2071Z" fill="#3F0129"/>
<path d="M41.6629 73C35.8026 73 31.4215 70.5455 26.756 67.9768C19.7578 64.0952 12.6458 57.9874 7.69579 51.5942C3.54236 46.2856 -1.12314 38.237 0.242373 30.0743C2.97339 14.605 32.5595 -4.80292 66.4697 1.07654C67.5507 1.24779 68.2334 2.27526 68.0628 3.35982C67.8921 4.44438 66.8679 5.12937 65.7869 4.95812C51.3921 2.44651 36.4853 4.55855 23.6836 10.9517C12.9871 16.2604 5.30614 24.0806 4.11132 30.8163C2.17685 41.8902 15.2061 57.2453 28.6336 64.6089C33.1284 67.1205 37.0543 69.2326 42.118 69.1184C53.8387 68.833 65.3317 56.4462 71.0783 45.0298C75.8007 35.6683 76.9386 26.8777 73.98 22.6536C71.0214 18.4295 61.4059 16.7741 49.5146 18.5437C35.4043 20.5415 23.7974 26.421 21.8061 32.4717C21.1802 34.4125 21.7492 37.1524 23.513 40.1778C26.3578 45.2581 31.6491 49.8817 35.5181 50.738C40.5818 51.8796 46.4991 47.1989 50.1973 42.0615C53.2697 37.7803 53.7249 34.755 53.3835 34.2412C53.3835 34.2412 51.7335 32.3004 37.5094 36.9241C36.4853 37.2666 35.3474 36.6958 35.006 35.6683C34.6646 34.6408 35.2336 33.4992 36.2577 33.1567C48.5473 29.1609 54.6352 28.8184 56.6835 32.1292C58.9593 35.8395 54.8059 42.2898 53.4404 44.1735C49.3439 49.9959 41.9474 56.2179 34.6077 54.5625C29.6009 53.4779 23.4561 48.2264 20.0423 42.1186C17.7095 38.0087 17.0268 34.2412 18.0509 31.2159C21.0095 22.4253 35.6319 16.5458 48.8887 14.605C62.6576 12.6071 73.2403 14.7192 77.1662 20.3703C81.092 25.9643 80.1248 35.8395 74.6058 46.7993C68.1765 59.5857 55.6594 72.7146 42.2318 73C42.0043 73 41.8336 73 41.6629 73Z" fill="#3F0129"/>
<path d="M210.588 5.81424V4.95801H215.14V5.81424H210.588ZM212.409 10.5521V5.12925H213.319V10.5521H212.409Z" fill="#3F0129"/>
<path d="M215.481 10.5521V4.95801H216.107L218.44 8.78251H218.041L220.374 4.95801H221V10.5521H220.09V6.55631L220.317 6.61339L218.61 9.46749H217.985L216.278 6.61339L216.505 6.55631V10.5521H215.481Z" fill="#3F0129"/>
</svg>
