<svg width="221" height="42" viewBox="0 0 221 42" fill="none" xmlns="http://www.w3.org/2000/svg">
<g clip-path="url(#clip0_20_15)">
<path d="M60.0648 31.819C58.6549 31.8268 57.2589 31.542 55.9664 30.9831C54.7 30.4398 53.5536 29.655 52.5923 28.6731C51.6255 27.6784 50.8551 26.5127 50.3213 25.2363C49.7683 23.9048 49.4915 22.4764 49.5073 21.0363C49.4907 19.6015 49.7676 18.1781 50.3213 16.8525C50.8576 15.5784 51.6339 14.4175 52.6086 13.4319C53.5855 12.4426 54.7539 11.6596 56.0437 11.13C57.395 10.5793 58.8443 10.3046 60.305 10.3223C61.9015 10.308 63.4824 10.6344 64.9407 11.2794C66.3352 11.892 67.5639 12.8234 68.5263 13.9973L66.1779 16.3315C65.5446 15.4463 64.6809 14.7484 63.679 14.3123C62.6182 13.8405 61.4674 13.6009 60.305 13.6096C58.9745 13.5782 57.6597 13.8988 56.4955 14.5385C55.4139 15.1542 54.5304 16.0616 53.9476 17.1554C53.325 18.3555 53.0144 19.6909 53.0441 21.0404C53.0172 22.3966 53.3335 23.7379 53.9639 24.9415C54.5396 26.028 55.3984 26.9414 56.4507 27.5867C57.5213 28.2294 58.7527 28.5597 60.0038 28.5398C61.2558 28.572 62.4979 28.3119 63.6301 27.7806C64.6314 27.2867 65.4493 26.4907 65.9663 25.5069C66.5423 24.3526 66.8219 23.0749 66.7803 21.7875L68.9496 23.3423H59.9427V20.1923H70.3619V20.6688C70.3619 23.1619 69.9155 25.2337 69.0229 26.884C68.2081 28.4592 66.9308 29.7519 65.3599 30.5913C63.7245 31.4293 61.9051 31.8511 60.0648 31.819Z" fill="white"/>
<path d="M71.6317 31.5202V17.1756H74.9447V31.5202H71.6317ZM74.9447 23.5443L73.801 22.9748C73.801 21.1629 74.208 19.6929 75.022 18.5648C75.836 17.4421 77.057 16.8768 78.7094 16.8768C79.3837 16.8696 80.0515 17.0074 80.6671 17.2806C81.2958 17.5743 81.8516 18.0017 82.2951 18.5325L80.1258 20.7456C79.8861 20.4802 79.5861 20.2753 79.2507 20.1479C78.893 20.022 78.5151 19.9618 78.1355 19.9702C77.7155 19.9562 77.2969 20.0255 76.9042 20.1739C76.5115 20.3222 76.1525 20.5468 75.8482 20.8345C75.2431 21.4052 74.9406 22.3085 74.9406 23.5443H74.9447Z" fill="white"/>
<path d="M88.3715 31.819C87.0295 31.8367 85.7081 31.4904 84.5498 30.8175C83.4195 30.1676 82.4796 29.2364 81.8229 28.1158C81.1466 26.9643 80.7977 25.6523 80.8136 24.3196C80.7906 22.9971 81.1341 21.6937 81.8067 20.5517C82.4713 19.4447 83.4099 18.5244 84.5335 17.8783C85.6925 17.2071 87.0134 16.8609 88.3553 16.8767C89.7068 16.8588 91.0387 17.199 92.2136 17.8621C93.3408 18.5041 94.2793 19.427 94.9364 20.5396C95.6145 21.6845 95.9636 22.9918 95.9458 24.3196C95.9637 25.6526 95.6147 26.9651 94.9364 28.1158C94.2802 29.2353 93.3419 30.1663 92.2136 30.8175C91.0479 31.4903 89.72 31.8365 88.3715 31.819ZM88.3715 28.6529C89.1371 28.6678 89.8924 28.4766 90.5571 28.0996C91.1855 27.7347 91.6975 27.2014 92.0345 26.561C92.3928 25.8681 92.5732 25.0982 92.5596 24.3196C92.576 23.5478 92.3894 22.785 92.0182 22.1065C91.6701 21.4815 91.1601 20.9601 90.5408 20.5962C89.879 20.2342 89.1355 20.0443 88.3797 20.0443C87.6239 20.0443 86.8804 20.2342 86.2185 20.5962C85.5964 20.9533 85.0863 21.4748 84.7452 22.1025C84.3814 22.7833 84.1992 23.5452 84.2161 24.3156C84.2018 25.0947 84.3837 25.8651 84.7452 26.5569C85.0794 27.198 85.5904 27.7316 86.2185 28.0956C86.8705 28.4775 87.6145 28.677 88.3715 28.6731V28.6529Z" fill="white"/>
<path d="M103.614 31.8191C102.27 31.8372 100.947 31.4909 99.7878 30.8175C98.6583 30.1666 97.7186 29.2356 97.0609 28.1158C96.3846 26.9643 96.0357 25.6523 96.0516 24.3196C96.0335 22.9956 96.3827 21.6921 97.0609 20.5517C97.7267 19.4455 98.6651 18.5255 99.7878 17.8783C100.948 17.2066 102.27 16.8604 103.614 16.8767C104.964 16.8588 106.294 17.199 107.468 17.8621C108.595 18.5051 109.535 19.4278 110.195 20.5396C110.873 21.6845 111.222 22.9918 111.204 24.3196C111.22 25.6523 110.871 26.9643 110.195 28.1158C109.536 29.2347 108.596 30.1654 107.468 30.8175C106.299 31.493 104.966 31.8393 103.614 31.8191ZM103.614 28.6529C104.378 28.6673 105.132 28.4761 105.795 28.0996C106.424 27.7359 106.937 27.2023 107.273 26.561C107.631 25.8681 107.811 25.0982 107.798 24.3196C107.814 23.5478 107.627 22.785 107.256 22.1066C106.908 21.4829 106.4 20.9618 105.783 20.5962C105.121 20.2342 104.378 20.0443 103.622 20.0443C102.866 20.0443 102.122 20.2342 101.461 20.5962C100.836 20.952 100.325 21.4737 99.9832 22.1025C99.6226 22.7844 99.442 23.5457 99.4581 24.3156C99.4445 25.0942 99.6249 25.8641 99.9832 26.5569C100.318 27.1991 100.83 27.7329 101.461 28.0956C102.112 28.4784 102.856 28.678 103.614 28.6731V28.6529Z" fill="white"/>
<path d="M116.625 31.5202L110.028 17.1756H113.691L118.717 28.8629H116.564L121.623 17.1756H125.148L118.55 31.5202H116.625Z" fill="white"/>
<path d="M131.623 31.8191C130.259 31.8399 128.913 31.5058 127.72 30.8498C126.581 30.2176 125.635 29.2927 124.981 28.1723C124.472 27.3212 124.138 26.3788 123.998 25.3992C123.858 24.4197 123.914 23.4222 124.163 22.4642C124.412 21.5062 124.85 20.6064 125.45 19.8167C126.051 19.0269 126.803 18.3627 127.663 17.8621C128.816 17.1993 130.128 16.8588 131.46 16.8767C132.714 16.853 133.949 17.1745 135.03 17.8056C136.06 18.4182 136.904 19.2959 137.472 20.3458C138.076 21.4765 138.382 22.741 138.359 24.0208C138.358 24.2651 138.343 24.5091 138.314 24.7517C138.282 25.0021 138.237 25.2714 138.18 25.5594H126.292V22.886H136.442L135.221 23.9602C135.207 23.196 135.035 22.4428 134.716 21.7471C134.435 21.1739 133.989 20.6962 133.434 20.3741C132.811 20.0383 132.108 19.8738 131.399 19.8975C130.632 19.8783 129.873 20.0638 129.202 20.4346C128.583 20.789 128.081 21.3136 127.757 21.945C127.398 22.6634 127.222 23.4578 127.244 24.2591C127.227 25.0786 127.413 25.8897 127.785 26.6216C128.131 27.2829 128.666 27.828 129.324 28.1885C130.024 28.5681 130.813 28.7589 131.611 28.7417C132.319 28.7438 133.02 28.6065 133.675 28.3379C134.3 28.092 134.857 27.7032 135.302 27.2031L137.411 29.3233C136.717 30.1328 135.839 30.768 134.851 31.1769C133.83 31.6051 132.732 31.8235 131.623 31.8191Z" fill="white"/>
<path d="M153.548 31.819C152.14 31.8267 150.745 31.542 149.454 30.9831C148.188 30.4399 147.041 29.655 146.08 28.6731C145.112 27.6786 144.34 26.5129 143.805 25.2364C143.252 23.9049 142.975 22.4764 142.991 21.0364C142.974 19.6015 143.251 18.1781 143.805 16.8525C144.348 15.5761 145.131 14.4139 146.112 13.4279C147.09 12.4395 148.258 11.6566 149.547 11.126C150.899 10.5753 152.348 10.3006 153.809 10.3183C155.407 10.304 156.989 10.6304 158.449 11.2754C159.841 11.8892 161.068 12.8204 162.03 13.9933L159.682 16.3275C159.048 15.4423 158.185 14.7444 157.183 14.3083C156.122 13.8365 154.971 13.5968 153.809 13.6056C152.471 13.5718 151.149 13.8939 149.979 14.5385C148.899 15.1544 148.016 16.0619 147.435 17.1554C146.81 18.352 146.495 19.6845 146.519 21.0323C146.491 22.3882 146.806 23.7295 147.435 24.9335C148.012 26.019 148.871 26.9321 149.922 27.5787C150.992 28.2213 152.224 28.5516 153.475 28.5317C154.727 28.5632 155.969 28.3031 157.101 27.7725C158.101 27.2779 158.917 26.482 159.433 25.4989C160.009 24.3445 160.289 23.0668 160.247 21.7794L162.417 23.3342H153.438V20.1923H163.862V20.6689C163.862 23.1619 163.414 25.2337 162.518 26.884C161.705 28.4601 160.427 29.7531 158.855 30.5914C157.216 31.4312 155.393 31.8531 153.548 31.819Z" fill="white"/>
<path d="M171.045 31.8191C169.907 31.8367 168.785 31.5583 167.789 31.0114C166.852 30.4888 166.081 29.7167 165.563 28.7821C165.01 27.7803 164.73 26.653 164.749 25.511V17.1756H168.062V25.3656C168.044 25.976 168.162 26.5828 168.408 27.1425C168.621 27.6163 168.98 28.0108 169.433 28.2693C169.93 28.5463 170.492 28.6858 171.061 28.6731C171.471 28.6999 171.881 28.6375 172.263 28.4903C172.646 28.3431 172.991 28.1147 173.275 27.821C173.826 27.1358 174.1 26.2723 174.045 25.3979V17.1756H177.358V25.515C177.377 26.6673 177.096 27.805 176.544 28.8185C176.029 29.746 175.261 30.5115 174.33 31.0275C173.323 31.5713 172.191 31.8442 171.045 31.8191Z" fill="white"/>
<path d="M178.965 31.5202V17.1756H182.278V31.5202H178.965ZM182.278 23.5443L181.135 22.9748C181.135 21.1629 181.542 19.6929 182.356 18.5648C183.17 17.4368 184.399 16.8741 186.043 16.8768C186.728 16.8579 187.408 16.9965 188.03 17.2816C188.652 17.5668 189.199 17.9907 189.629 18.5204L187.459 20.7335C187.22 20.469 186.922 20.2643 186.588 20.1358C186.01 19.9443 185.39 19.9069 184.793 20.0274C184.195 20.1478 183.639 20.422 183.182 20.8223C182.579 21.4012 182.278 22.3085 182.278 23.5443Z" fill="white"/>
<path d="M195.441 31.8191C194.303 31.8367 193.18 31.5583 192.185 31.0114C191.247 30.4888 190.476 29.7167 189.958 28.7821C189.405 27.7803 189.125 26.653 189.144 25.511V17.1756H192.457V25.3656C192.439 25.976 192.557 26.5828 192.803 27.1425C193.016 27.6163 193.375 28.0108 193.829 28.2693C194.325 28.5463 194.887 28.6858 195.457 28.6731C195.866 28.6999 196.276 28.6375 196.659 28.4903C197.041 28.3431 197.387 28.1147 197.671 27.821C198.221 27.1358 198.495 26.2723 198.44 25.3979V17.1756H201.753V25.515C201.772 26.6673 201.492 27.805 200.939 28.8185C200.424 29.746 199.657 30.5115 198.725 31.0275C197.719 31.5713 196.586 31.8442 195.441 31.8191Z" fill="white"/>
<path d="M208.09 31.819C207.306 31.8208 206.526 31.7161 205.77 31.5081C205.053 31.3057 204.368 31.0038 203.735 30.6116C203.119 30.2278 202.569 29.7477 202.107 29.19L204.215 27.0981C204.685 27.6543 205.275 28.0987 205.941 28.3985C206.64 28.6971 207.395 28.8444 208.155 28.8306C208.736 28.8648 209.315 28.7523 209.84 28.5035C210.018 28.4147 210.167 28.2776 210.269 28.1081C210.371 27.9387 210.423 27.7438 210.418 27.5464C210.425 27.3446 210.379 27.1446 210.284 26.9661C210.189 26.7876 210.048 26.6368 209.877 26.5287C209.442 26.2592 208.971 26.0538 208.477 25.9189L206.67 25.3939C206.041 25.2195 205.435 24.9742 204.863 24.6629C204.296 24.3629 203.815 23.9269 203.462 23.3948C203.075 22.7667 202.886 22.0385 202.917 21.3029C202.894 20.4694 203.119 19.6475 203.564 18.9404C204.016 18.2668 204.655 17.7378 205.404 17.4179C206.303 17.0366 207.275 16.852 208.253 16.8767C209.315 16.8566 210.369 17.0661 211.342 17.4906C212.237 17.9012 213.009 18.5342 213.585 19.3281L211.464 21.4039C211.077 20.9008 210.575 20.4971 209.998 20.2265C209.422 19.956 208.788 19.8266 208.151 19.849C207.623 19.8214 207.095 19.924 206.617 20.1479C206.452 20.2258 206.313 20.349 206.216 20.5029C206.119 20.6567 206.069 20.8349 206.071 21.0162C206.068 21.2052 206.116 21.3916 206.213 21.5548C206.309 21.718 206.449 21.8517 206.617 21.941C207.054 22.1955 207.525 22.3872 208.017 22.5104C208.587 22.6679 209.189 22.8456 209.824 23.0314C210.458 23.2251 211.068 23.4921 211.639 23.8269C212.203 24.1493 212.683 24.599 213.039 25.1394C213.427 25.785 213.615 26.5292 213.58 27.2798C213.607 27.9079 213.488 28.5337 213.232 29.1087C212.975 29.6836 212.589 30.1923 212.103 30.5954C211.118 31.4112 209.78 31.819 208.09 31.819Z" fill="white"/>
<path d="M23.8176 41.7214C20.4435 41.7214 17.8103 40.2837 15.2706 38.8944C8.11151 34.9973 -1.30643 25.7614 0.150624 17.4381C0.96462 12.8746 5.69801 7.94771 12.5478 4.57963C20.4129 0.769646 29.2893 -0.479708 37.9119 1.00963C38.2449 1.06639 38.5415 1.2521 38.7366 1.52588C38.9316 1.79967 39.009 2.13911 38.9518 2.46953C38.8946 2.79996 38.7074 3.0943 38.4315 3.2878C38.1556 3.48131 37.8135 3.55813 37.4805 3.50136C29.3877 2.10821 21.0582 3.28549 13.6792 6.8654C7.63939 9.81751 3.313 14.1346 2.6618 17.8702C1.58733 24.0248 8.95399 32.5621 16.4916 36.6773C19.0272 38.0625 21.2209 39.2619 24.0496 39.1892C30.6307 39.0237 37.106 32.1139 40.3295 25.7614C42.979 20.5639 43.6221 15.6894 41.9575 13.3471C40.2928 11.0048 34.8472 10.1487 28.2498 11.1058C20.3499 12.2527 13.8013 15.5117 12.6902 18.8475C12.3524 19.8692 12.6902 21.4039 13.6385 23.0516C15.2665 25.8785 18.201 28.4308 20.3621 28.9073C22.9832 29.4848 25.9502 27.2435 27.855 24.9537C29.8493 22.5589 30.5249 20.4023 30.3458 19.8652C30.1708 19.7521 28.7178 19.0939 21.5262 21.4241C21.3635 21.4888 21.1892 21.5195 21.0141 21.5143C20.839 21.5091 20.6668 21.4682 20.5084 21.394C20.3499 21.3198 20.2086 21.2139 20.0932 21.0831C19.9779 20.9522 19.891 20.7992 19.8379 20.6335C19.7849 20.4678 19.7668 20.293 19.785 20.1201C19.8031 19.9472 19.8569 19.7799 19.9432 19.6285C20.0295 19.4772 20.1462 19.3452 20.2862 19.2407C20.4263 19.1362 20.5865 19.0614 20.7569 19.0212C27.8753 16.7112 31.29 16.5577 32.507 18.5204C33.8623 20.685 31.4366 24.3883 30.6633 25.4746C28.2986 28.7781 24.0414 32.3077 19.8127 31.3748C16.9352 30.7408 13.4066 27.7685 11.4245 24.2994C10.0854 21.9652 9.68659 19.7885 10.2727 18.0519C11.9373 13.0523 20.3174 9.69232 27.8835 8.60194C30.8342 8.17386 40.7243 7.14405 44.0739 11.8973C46.3246 15.0877 45.7792 20.6971 42.6168 26.9042C38.9538 34.1412 31.7825 41.5275 24.1147 41.7173L23.8176 41.7214Z" fill="white"/>
<path d="M213.507 11.7116V11.1139H216.763V11.7116H213.507ZM214.806 15.0756V11.2269H215.461V15.0716L214.806 15.0756Z" fill="white"/>
<path d="M217.007 15.0716V11.1139H217.463L219.12 13.8237H218.827L220.483 11.1139H220.939V15.0716H220.284V12.2446L220.43 12.285L219.209 14.3042H218.753L217.532 12.285L217.683 12.2446V15.0716H217.007Z" fill="white"/>
</g>
<defs>
<clipPath id="clip0_20_15">
<rect width="221" height="42" fill="white"/>
</clipPath>
</defs>
</svg>
