<svg width="732" height="445" viewBox="0 0 732 445" fill="none" xmlns="http://www.w3.org/2000/svg">
<path d="M562.615 267.763L561.298 280.161C557.93 288.23 554.563 296.3 551.196 304.369C550.025 307.23 548.854 310.018 547.682 312.879C547.17 314.2 546.365 315.447 545.413 316.474C545.34 316.62 545.194 316.694 544.974 316.694C544.681 316.694 544.608 316.327 544.535 316.034C544.388 312.952 544.022 309.945 543.437 306.937C540.289 292.412 523.453 287.057 510.277 287.423C505.007 287.497 499.81 288.744 494.978 290.945C488.098 294.319 485.389 303.562 485.023 303.929L484.73 305.103L479.972 324.837C478.948 329.238 478.216 331.586 474.19 332.76C474.043 332.833 470.017 334.96 469.871 334.96C468.334 335.401 472.579 334.447 470.896 334.153L465.552 333.273L463.283 332.76L429.83 324.837C431.148 325.057 432.466 325.277 433.783 325.57L441.542 327.404L439.493 317.574C434.149 286.91 443.006 259.033 458.086 243.921C462.038 239.96 464.015 238.933 468.626 236.292L471.188 242.454C471.188 242.454 497.76 250.377 504.055 226.021C506.617 226.241 511.448 226.241 513.937 226.755C527.04 229.469 538.825 236.512 547.609 246.635C548.341 247.516 549.146 248.396 549.878 249.35L550.244 249.863C550.684 250.45 551.196 251.037 551.635 251.624L552.001 252.064C555.881 257.126 559.394 262.334 562.615 267.763Z" fill="#0A095E"/>
<path d="M246.684 139.457C250.93 118.329 268.79 97.8619 319.957 93.1669C433.637 82.7498 372.149 51.3518 409.188 17.0195C446.227 -17.3129 586.112 39.1741 549.512 127.499C512.912 215.824 633.766 117.816 684.932 229.689C692.326 245.902 695.912 263.655 695.4 281.481C694.741 300.335 689.91 318.821 681.199 335.547C664.876 367.532 634.498 396.069 590.578 413.749C584.063 416.39 577.328 418.737 570.228 420.865" stroke="#CCDDE2" stroke-width="4.52" stroke-miterlimit="10"/>
<path d="M600.679 439.498H462.331L458.232 438.251C458.232 438.251 457.427 391.154 451.864 379.123L472.36 386.092L492.197 391.814C492.197 391.814 519.5 392.401 535.092 364.451C535.092 364.451 537.727 357.775 540.07 345.744C542.119 335.327 552.953 277.813 557.491 264.975C562.396 273.558 570.082 288.304 573.742 297.327C577.768 307.084 581.135 316.841 583.916 325.864C588.528 340.683 592.115 355.868 594.75 371.127C598.703 393.722 600.679 416.61 600.679 439.498Z" fill="#0A095E"/>
<path d="M606.755 313.246C605.876 323.59 598.849 325.277 598.849 325.277C592.92 328.798 583.843 324.984 582.013 318.455C582.013 318.381 581.94 318.308 581.94 318.234C580.476 312.586 577.621 305.323 573.815 297.4C566.422 279.501 556.832 261.381 544.462 247.076C535.751 236.952 523.892 229.909 510.79 227.195C510.716 227.195 510.716 227.122 510.643 227.122C493.295 221.913 484.804 211.203 481.144 200.932C481.144 200.932 481.144 200.932 481.144 200.859C479.606 194.403 477.996 188.094 478.801 184.206C480.265 177.531 480.997 170.268 479.167 168.801C476.898 166.893 472.726 168.287 462.185 170.415C453.035 172.322 448.204 171.222 447.106 165.646C446.959 164.766 446.813 163.886 446.813 163.005C446.74 163.592 444.617 161.318 444.544 161.905C443.885 164.766 442.494 165.94 439.493 167.187C435.028 169.021 433.198 176.21 432.539 180.978C431.88 186.04 434.149 193.083 435.979 197.851C433.637 195.21 431.002 195.504 426.902 197.118C425.878 197.484 423.242 197.411 421.193 196.677C421.486 196.457 421.852 196.237 422.218 196.164C422.876 195.944 418.045 193.523 418.777 193.376C425.804 191.762 429.757 185.894 428.952 180.758C426.902 167.7 429.611 152.441 438.395 142.244C448.057 131.094 463.868 128.746 477.191 133.881C487.658 137.916 497.614 146.059 501.274 156.99C501.274 157.063 501.274 157.063 501.347 157.137C501.786 158.53 502.152 159.924 502.445 161.391C503.762 169.534 500.908 177.751 499.297 185.82C498.712 188.755 500.176 191.909 500.468 194.183C502.225 207.975 518.11 211.863 530.7 217.732C557.125 230.056 578.719 251.11 593.213 276.786C602.802 293.806 606.242 305.396 606.755 313.246Z" fill="#3FBDF1"/>
<path d="M467.455 233.577C467.162 233.724 466.87 233.871 466.65 234.091C461.892 236.805 457.573 240.18 453.694 244.068C438.614 259.18 429.757 287.057 435.101 317.721L437.15 327.551" stroke="black" stroke-width="4.52" stroke-miterlimit="10"/>
<path d="M600.679 439.498C600.679 416.61 598.703 393.722 594.75 371.127C592.115 355.795 588.528 340.682 583.916 325.864C581.135 316.841 577.768 307.157 573.742 297.327C570.008 288.157 565.69 279.28 560.858 270.697C556.174 262.261 550.61 254.338 544.388 247.002C535.678 236.878 523.819 229.836 510.716 227.122C508.228 226.608 505.666 226.241 503.104 225.948" stroke="black" stroke-width="4.52" stroke-miterlimit="10"/>
<path d="M330.132 240.106L329.766 240.033C320.689 238.492 311.466 241.72 305.244 248.543L280.21 275.906L277.282 279.134C277.135 279.354 276.916 279.574 276.769 279.721" stroke="black" stroke-width="4.52" stroke-miterlimit="10"/>
<path d="M293.971 286.91L307.733 271.578" stroke="black" stroke-width="4.52" stroke-miterlimit="10"/>
<path d="M413.507 365.772L478.142 388.586C502.079 397.023 528.358 384.478 536.776 360.416C537.508 358.289 538.093 356.161 538.532 353.961L553.831 275.759C555.442 267.616 553.612 259.253 548.854 252.431C548.195 251.477 547.463 250.597 546.731 249.716" stroke="black" stroke-width="4.52" stroke-miterlimit="10"/>
<path d="M370.758 362.617C362.56 368.192 356.484 385.065 353.263 396.216C352.165 400.031 348.652 402.672 344.626 402.672C343.308 402.672 341.99 402.378 340.819 401.865C337.086 400.104 334.963 395.996 335.842 391.888C341.258 365.551 360.217 313.466 425.438 324.984C426.756 325.204 428.074 325.424 429.391 325.717L437.15 327.551L458.891 332.833L464.747 334.227C466.943 334.74 469.285 334.667 471.481 334.007C471.628 334.007 471.774 333.933 471.847 333.86C475.946 332.466 479.021 329.092 480.046 324.837L485.023 304.223L485.316 303.049L491.758 276.126" stroke="black" stroke-width="4.52" stroke-miterlimit="10"/>
<path d="M338.916 278.18H316.81C311.539 278.18 307.294 273.925 307.294 268.643C307.294 263.361 311.539 259.106 316.81 259.106H348.139" stroke="black" stroke-width="4.52" stroke-miterlimit="10"/>
<path d="M321.934 278.18C321.641 282.068 320.104 284.929 317.981 286.91C312.344 292.045 302.023 291.458 294.923 287.937" stroke="black" stroke-width="4.52" stroke-miterlimit="10"/>
<path d="M280.21 275.906C273.841 268.203 275.159 257.786 280.063 249.716C294.044 226.828 325.96 231.23 346.675 240.767C363.438 248.469 378.151 259.987 392.425 271.504C399.379 277.153 406.26 282.948 412.921 289.111C417.386 293.145 424.267 292.779 428.293 288.377C428.879 287.717 429.391 287.057 429.757 286.25C433.417 279.501 437.37 272.091 438.102 270.037" stroke="black" stroke-width="4.52" stroke-miterlimit="10"/>
<path d="M317.981 286.983C317.981 286.983 350.994 304.956 375.516 330.706" stroke="black" stroke-width="4.52" stroke-miterlimit="10"/>
<path d="M362.706 372.374C359.046 378.61 362.194 387.853 369.148 390.054C378.005 392.915 387.301 393.868 396.524 392.841C406.626 391.668 413.287 383.305 417.679 373.841C418.924 371.053 417.679 367.752 414.898 366.505C414.751 366.432 414.532 366.358 414.312 366.285C411.53 365.405 408.529 366.725 407.431 369.44C405.967 372.814 403.698 377.069 400.697 378.976" stroke="black" stroke-width="4.52" stroke-miterlimit="10"/>
<path d="M379.908 371.2C379.908 371.2 370.831 380.957 378.005 391.227C378.298 391.668 378.664 392.034 379.103 392.401" stroke="black" stroke-width="4.52" stroke-miterlimit="10"/>
<path d="M391.84 372.814C391.84 372.814 383.495 391.668 394.182 393.061" stroke="black" stroke-width="4.52" stroke-miterlimit="10"/>
<path d="M688.592 439.571H170.922" stroke="black" stroke-width="4.52" stroke-miterlimit="10"/>
<path d="M374.564 403.992H322.958C321.86 414.116 313.369 421.745 303.194 421.745H129.637C129.637 431.502 137.543 439.498 147.352 439.498H374.564C384.373 439.498 392.279 431.575 392.352 421.745V409.787C392.352 406.56 389.717 403.919 386.496 403.919L374.564 403.992Z" stroke="black" stroke-width="4.52" stroke-miterlimit="10"/>
<path d="M294.85 288.01C296.387 290.138 297.485 292.485 298.07 295.053L322.519 397.243C323.032 399.444 323.178 401.791 322.958 404.065C321.86 414.189 313.369 421.818 303.194 421.818H126.416C117.193 421.818 109.214 415.509 107.092 406.56L82.716 304.296C80.154 293.586 86.742 282.875 97.356 280.307C98.8932 279.941 100.43 279.721 102.041 279.721H278.746C284.602 279.721 290.165 282.362 293.971 286.836L294.85 288.01Z" stroke="black" stroke-width="4.52" stroke-miterlimit="10"/>
<path d="M267.18 160.804C266.082 159.484 264.838 158.237 263.593 156.99C249.539 142.905 230.507 134.982 210.67 134.982H118.072C76.7136 134.908 43.188 168.434 43.188 209.882V209.955V210.469C43.188 217.438 44.9448 224.334 48.3852 230.423C56.0712 238.272 66.612 242.674 77.592 242.674H168.433C174.216 242.674 178.901 247.369 178.901 253.164C178.901 258.96 183.586 263.655 189.368 263.655H189.588L211.987 263.068C211.987 262.848 211.914 262.628 211.914 262.481C207.961 261.087 205.253 257.346 205.253 253.164V252.651C205.253 246.855 209.938 242.16 215.72 242.16H237.9C260.519 242.16 278.892 223.747 278.892 201.079C278.965 186.774 274.866 172.835 267.18 160.804ZM106.726 204.233C96.8436 204.233 88.7916 196.164 88.7916 186.26C88.7916 176.357 96.8436 168.287 106.726 168.287C116.608 168.287 124.66 176.357 124.66 186.26C124.66 196.237 116.608 204.233 106.726 204.233ZM165.212 204.233C155.33 204.233 147.278 196.164 147.278 186.26C147.278 176.357 155.33 168.287 165.212 168.287C175.094 168.287 183.146 176.357 183.146 186.26C183.146 196.237 175.094 204.233 165.212 204.233ZM220.844 204.233C210.962 204.233 202.91 196.164 202.91 186.26C202.91 176.357 210.962 168.287 220.844 168.287C230.726 168.287 238.778 176.357 238.778 186.26C238.778 196.237 230.8 204.233 220.844 204.233C220.918 204.233 220.918 204.233 220.844 204.233Z" fill="#D7E8F0"/>
<path d="M278.892 201.079C278.892 223.747 260.519 242.16 237.9 242.16H215.794C210.011 242.16 205.326 246.855 205.326 252.651V253.164C205.326 257.346 207.961 261.161 211.987 262.481C213.012 262.848 214.11 262.995 215.135 262.995L211.987 263.068L189.515 263.655H189.295C183.512 263.655 178.828 258.96 178.828 253.164C178.828 247.369 174.143 242.674 168.36 242.674H77.592C54.9732 242.674 36.6 224.261 36.6 201.592V201.079C36.6 159.704 70.1256 126.105 111.41 126.105H204.008C245.366 126.105 278.892 159.704 278.892 201.079Z" stroke="black" stroke-width="4.52" stroke-miterlimit="10"/>
<path d="M510.79 227.195C510.716 227.195 510.716 227.122 510.643 227.122C493.295 221.913 484.804 211.203 481.144 200.932C481.144 200.932 481.144 200.932 481.144 200.859C478.289 192.863 478.362 185.087 479.387 180.465C479.972 178.044 480.412 175.55 480.558 172.982C480.778 165.866 475.58 167.627 460.648 170.561C453.767 171.955 449.375 169.314 447.179 165.646C446.959 165.353 446.813 164.986 446.593 164.619C445.568 162.492 445.129 160.071 445.349 157.65" stroke="black" stroke-width="4.52" stroke-miterlimit="10"/>
<path d="M436.858 198.878C436.565 198.511 436.345 198.145 436.052 197.851C433.71 195.21 431.075 195.504 426.976 197.118C425.951 197.484 423.316 197.411 421.266 196.677C419.509 196.09 418.192 194.99 418.85 193.376C419.143 192.716 419.729 192.202 420.461 192.056C421.12 191.909 421.852 191.762 422.584 191.616C429.684 190.002 428.074 181.785 427.268 176.577C425.146 163.592 427.927 148.26 436.784 138.063C446.52 126.912 462.551 124.565 476.02 129.7C487.878 134.175 499.078 143.932 501.347 156.99C501.347 157.063 501.347 157.063 501.42 157.136C501.493 157.21 501.42 157.283 501.42 157.283C502.811 165.426 501.42 174.229 499.81 182.299C498.858 187.067 499.224 190.955 500.542 194.183C504.714 204.747 518.695 208.415 529.968 213.623C556.686 225.948 578.426 247.002 593.14 272.678C604.705 292.999 607.487 305.543 606.828 313.246C605.95 323.59 598.922 325.277 598.922 325.277C592.993 328.798 583.916 324.984 582.086 318.454C582.086 318.381 582.013 318.308 582.013 318.234C580.549 312.586 577.694 305.323 573.888 297.4" stroke="black" stroke-width="4.52" stroke-miterlimit="10"/>
<path d="M445.422 157.797C445.422 161.685 443.592 165.573 439.566 167.26C435.028 169.094 433.198 174.009 432.539 178.778C431.587 185.747 433.124 192.863 436.784 198.878C440.225 204.527 445.715 210.762 453.547 210.762C467.894 210.762 474.116 203.793 474.116 203.793" stroke="black" stroke-width="4.52" stroke-miterlimit="10"/>
<path d="M460.355 180.978C461.689 180.978 462.77 179.895 462.77 178.558C462.77 177.221 461.689 176.137 460.355 176.137C459.021 176.137 457.939 177.221 457.939 178.558C457.939 179.895 459.021 180.978 460.355 180.978Z" fill="black"/>
<path d="M438.834 182.446C440.168 182.446 441.25 181.362 441.25 180.025C441.25 178.688 440.168 177.604 438.834 177.604C437.5 177.604 436.418 178.688 436.418 180.025C436.418 181.362 437.5 182.446 438.834 182.446Z" fill="black"/>
<path d="M449.375 176.283C449.375 176.283 448.13 185.967 448.643 187.287C449.155 188.608 452.156 187.067 452.156 187.067" stroke="black" stroke-width="4.52" stroke-miterlimit="10"/>
<path d="M453.913 195.504C459.184 197.411 464.527 194.99 466.138 190.222" stroke="black" stroke-width="4.52" stroke-miterlimit="10"/>
<path d="M473.007 182.088C476.552 177.059 475.251 170.025 470.101 166.378C464.95 162.731 457.9 163.852 454.355 168.882C450.809 173.911 452.11 180.945 457.261 184.592C462.411 188.239 469.461 187.118 473.007 182.088Z" stroke="black" stroke-width="4.52" stroke-miterlimit="10"/>
<path d="M444.421 183.569C447.967 178.539 446.666 171.506 441.515 167.859C436.364 164.212 429.315 165.333 425.769 170.362C422.223 175.392 423.525 182.425 428.675 186.072C433.826 189.719 440.876 188.598 444.421 183.569Z" stroke="black" stroke-width="4.52" stroke-miterlimit="10"/>
<path d="M434.881 169.168C439.127 169.168 442.64 172.395 442.933 176.65C443.08 178.704 442.421 180.685 441.103 182.226C439.712 183.766 437.809 184.72 435.76 184.793H435.32C431.075 184.793 427.561 181.565 427.268 177.31C427.122 175.256 427.781 173.276 429.098 171.735C430.489 170.195 432.392 169.241 434.442 169.168H434.881ZM434.881 167.48H434.369C429.245 167.7 425.365 172.029 425.585 177.164C425.585 177.237 425.585 177.384 425.585 177.457C426.024 182.519 430.196 186.407 435.32 186.48H435.833C440.957 186.26 444.836 181.932 444.617 176.797C444.617 176.724 444.617 176.577 444.617 176.503C444.178 171.442 440.005 167.48 434.881 167.48Z" fill="white"/>
<path d="M452.376 176.137L446.374 176.43" stroke="black" stroke-width="4.52" stroke-miterlimit="10"/>
<path opacity="0.53" d="M471.572 181.072C474.581 176.804 473.488 170.842 469.129 167.756C464.771 164.67 458.799 165.629 455.789 169.898C452.78 174.166 453.874 180.128 458.232 183.214C462.59 186.3 468.563 185.341 471.572 181.072Z" fill="white"/>
<path opacity="0.53" d="M442.986 182.553C445.996 178.284 444.902 172.322 440.544 169.237C436.185 166.151 430.213 167.11 427.204 171.378C424.195 175.647 425.288 181.608 429.647 184.694C434.005 187.78 439.977 186.821 442.986 182.553Z" fill="white"/>
<path d="M457.939 210.762L471.262 242.527C471.262 242.527 496.955 249.496 503.25 225.068" stroke="black" stroke-width="4.52" stroke-miterlimit="10"/>
<path d="M204.955 375.196C215.018 372.016 220.288 360.26 216.726 348.939C213.164 337.618 202.119 331.018 192.056 334.197C181.993 337.377 176.723 349.133 180.285 360.454C183.847 371.775 194.892 378.376 204.955 375.196Z" fill="#D7E8F0"/>
<path d="M454.352 439.498C454.06 413.675 449.521 388.146 447.398 377.729" stroke="black" stroke-width="4.52" stroke-miterlimit="10"/>
<path d="M459.257 300.775C457.061 300.261 455.67 299.014 454.133 297.62C451.864 295.566 449.741 292.705 448.423 289.918C447.325 287.57 446.3 284.196 447.545 281.335C448.716 278.473 452.596 275.979 457.5 274.806C463.063 273.485 469.139 273.999 474.556 276.273C474.922 276.419 475.141 276.86 474.922 277.226C474.775 277.593 474.336 277.813 473.97 277.593C468.846 275.466 463.136 274.952 457.866 276.199C453.401 277.226 449.96 279.501 448.936 281.848C447.252 285.809 450.839 292.559 455.158 296.447C456.622 297.767 457.866 298.867 459.769 299.234C464.161 300.115 469.432 296.52 472.579 292.779C475.141 289.698 476.312 286.543 475.58 284.709C474.848 282.875 471.408 281.481 466.87 281.114C461.526 280.674 456.695 281.848 455.45 283.902C455.084 284.562 455.011 285.663 455.45 286.91C456.109 289.037 457.646 291.165 459.037 291.825C460.794 292.705 463.429 291.458 465.186 289.844C466.723 288.524 467.089 287.423 467.016 287.203C467.016 287.203 466.577 286.323 460.94 286.836C460.501 286.836 460.135 286.543 460.135 286.176C460.135 285.736 460.428 285.369 460.794 285.369C465.698 284.929 467.968 285.369 468.48 286.763C468.992 288.304 466.943 290.358 466.284 290.945C464.234 292.779 461.014 294.393 458.452 293.145C456.695 292.338 454.865 289.844 454.133 287.277C453.62 285.589 453.694 284.122 454.352 283.095C456.182 280.087 462.112 279.134 467.162 279.574C472.433 280.014 476.166 281.701 477.118 284.122C478.069 286.543 476.898 290.138 473.897 293.659C470.383 297.84 464.674 301.655 459.696 300.628C459.33 300.775 459.257 300.775 459.257 300.775Z" fill="white"/>
</svg>
