<svg width="118" height="45" viewBox="0 0 118 45" fill="none" xmlns="http://www.w3.org/2000/svg">
<rect x="0.940002" width="117" height="45" rx="8" fill="white"/>
<g clip-path="url(#clip0_151_206)">
<path d="M29.2441 19.0029C30.8492 20.153 32.8156 20.8297 34.9394 20.8297V16.7334C34.5374 16.7335 34.1366 16.6914 33.7433 16.6079V19.8323C31.6197 19.8323 29.6536 19.1557 28.0481 18.0056V26.3651C28.0481 30.547 24.6659 33.9367 20.4942 33.9367C18.9376 33.9367 17.4907 33.465 16.2889 32.656C17.6606 34.0619 19.5736 34.934 21.6899 34.934C25.862 34.934 29.2442 31.5443 29.2442 27.3622V19.0029H29.2441ZM30.7196 14.8702C29.8993 13.9719 29.3606 12.811 29.2441 11.5276V11.0007H28.1106C28.396 12.6319 29.3692 14.0255 30.7196 14.8702ZM18.9275 29.4471C18.4692 28.8448 18.2215 28.1079 18.2226 27.3502C18.2226 25.4377 19.7695 23.8869 21.6781 23.8869C22.0338 23.8867 22.3873 23.9414 22.7263 24.0492V19.8612C22.3301 19.8069 21.9304 19.7837 21.5307 19.7922V23.0518C21.1916 22.944 20.8379 22.8893 20.4821 22.8896C18.5736 22.8896 17.0267 24.4403 17.0267 26.3531C17.0267 27.7057 17.7999 28.8766 18.9275 29.4471Z" fill="#FF004F"/>
<path d="M28.0481 18.0056C29.6536 19.1556 31.6196 19.8322 33.7433 19.8322V16.6078C32.5579 16.3547 31.5085 15.7338 30.7195 14.8702C29.369 14.0254 28.3959 12.6318 28.1106 11.0007H25.1335V27.3621C25.1267 29.2695 23.5824 30.8139 21.678 30.8139C20.5558 30.8139 19.5587 30.2777 18.9274 29.447C17.7999 28.8766 17.0266 27.7056 17.0266 26.3532C17.0266 24.4405 18.5735 22.8897 20.482 22.8897C20.8476 22.8897 21.2001 22.9468 21.5307 23.0519V19.7923C17.4321 19.8772 14.136 23.2339 14.136 27.3621C14.136 29.423 14.9568 31.2912 16.289 32.6562C17.4908 33.465 18.9376 33.9369 20.4943 33.9369C24.6661 33.9369 28.0482 30.5469 28.0482 26.3651L28.0481 18.0056Z" fill="black"/>
<path d="M33.7433 16.6077V15.736C32.6743 15.7376 31.6265 15.4376 30.7195 14.8701C31.5224 15.7511 32.5795 16.3586 33.7433 16.6078M28.1105 11.0006C28.0834 10.8447 28.0625 10.6878 28.048 10.5303V10.0034H23.9373V26.3649C23.9307 28.2722 22.3864 29.8166 20.4819 29.8166C19.942 29.8174 19.4094 29.6908 18.9273 29.4471C19.5587 30.2776 20.5557 30.8137 21.6779 30.8137C23.5822 30.8137 25.1267 29.2695 25.1334 27.3621V11.0006L28.1105 11.0006ZM21.5308 19.7921V18.864C21.1873 18.8169 20.841 18.7934 20.4943 18.7935C16.3221 18.7935 12.94 22.1835 12.94 26.3649C12.94 28.9865 14.2692 31.2969 16.2891 32.656C14.9569 31.291 14.1361 29.4227 14.1361 27.362C14.1361 23.2338 17.4321 19.877 21.5308 19.7921Z" fill="#00F2EA"/>
</g>
<path d="M44.065 32C43.7983 32 43.5567 31.9417 43.34 31.825C43.1233 31.6917 43.015 31.5 43.015 31.25V15.675H38.965C38.7483 15.675 38.5733 15.575 38.44 15.375C38.3067 15.175 38.24 14.9417 38.24 14.675C38.24 14.4417 38.2983 14.225 38.415 14.025C38.5317 13.825 38.715 13.725 38.965 13.725H49.165C49.415 13.725 49.5983 13.825 49.715 14.025C49.8317 14.225 49.89 14.4417 49.89 14.675C49.89 14.925 49.8317 15.1583 49.715 15.375C49.5983 15.575 49.415 15.675 49.165 15.675H45.115V31.25C45.115 31.5 45.0067 31.6917 44.79 31.825C44.5733 31.9417 44.3317 32 44.065 32ZM52.5209 32C52.2709 32 52.0292 31.9417 51.7959 31.825C51.5792 31.6917 51.4709 31.5 51.4709 31.25V14.45C51.4709 14.2 51.5792 14.0167 51.7959 13.9C52.0292 13.7833 52.2709 13.725 52.5209 13.725C52.7875 13.725 53.0292 13.7833 53.2459 13.9C53.4625 14.0167 53.5709 14.2 53.5709 14.45V31.25C53.5709 31.5 53.4625 31.6917 53.2459 31.825C53.0292 31.9417 52.7875 32 52.5209 32ZM57.6849 32C57.4349 32 57.1933 31.9417 56.9599 31.825C56.7433 31.6917 56.6349 31.5 56.6349 31.25V14.45C56.6349 14.2 56.7433 14.0167 56.9599 13.9C57.1933 13.7833 57.4349 13.725 57.6849 13.725C57.9516 13.725 58.1933 13.7833 58.4099 13.9C58.6266 14.0167 58.7349 14.2 58.7349 14.45V22.725L65.4599 14.025C65.6099 13.825 65.8183 13.725 66.0849 13.725C66.2683 13.725 66.4516 13.7833 66.6349 13.9C66.8183 14 66.9683 14.1333 67.0849 14.3C67.2016 14.45 67.2599 14.6167 67.2599 14.8C67.2599 14.8667 67.2516 14.9417 67.2349 15.025C67.2183 15.1083 67.1766 15.1833 67.1099 15.25L62.0099 21.625L67.9349 30.625C68.0183 30.7417 68.0599 30.8667 68.0599 31C68.0599 31.1833 68.0016 31.3583 67.8849 31.525C67.7683 31.675 67.6183 31.8 67.4349 31.9C67.2516 32 67.0516 32.05 66.8349 32.05C66.7016 32.05 66.5683 32.0167 66.4349 31.95C66.3016 31.8833 66.1849 31.775 66.0849 31.625L60.6099 23.4L58.7349 25.725V31.25C58.7349 31.5 58.6266 31.6917 58.4099 31.825C58.1933 31.9417 57.9516 32 57.6849 32ZM73.7662 32C73.4995 32 73.2578 31.9417 73.0412 31.825C72.8245 31.6917 72.7162 31.5 72.7162 31.25V15.675H68.6662C68.4495 15.675 68.2745 15.575 68.1412 15.375C68.0078 15.175 67.9412 14.9417 67.9412 14.675C67.9412 14.4417 67.9995 14.225 68.1162 14.025C68.2328 13.825 68.4162 13.725 68.6662 13.725H78.8662C79.1162 13.725 79.2995 13.825 79.4162 14.025C79.5328 14.225 79.5912 14.4417 79.5912 14.675C79.5912 14.925 79.5328 15.1583 79.4162 15.375C79.2995 15.575 79.1162 15.675 78.8662 15.675H74.8162V31.25C74.8162 31.5 74.7078 31.6917 74.4912 31.825C74.2745 31.9417 74.0328 32 73.7662 32ZM85.9082 32.15C84.8915 32.15 83.9748 31.975 83.1582 31.625C82.3582 31.2583 81.7165 30.6833 81.2332 29.9C80.7665 29.1 80.5332 28.0333 80.5332 26.7V19.175C80.5332 17.8417 80.7665 16.7833 81.2332 16C81.7165 15.2 82.3582 14.625 83.1582 14.275C83.9748 13.9083 84.8915 13.725 85.9082 13.725C86.9248 13.725 87.8415 13.9083 88.6582 14.275C89.4748 14.625 90.1165 15.2 90.5832 16C91.0665 16.7833 91.3082 17.8417 91.3082 19.175V26.7C91.3082 28.0333 91.0665 29.1 90.5832 29.9C90.1165 30.6833 89.4748 31.2583 88.6582 31.625C87.8415 31.975 86.9248 32.15 85.9082 32.15ZM85.9082 30.25C86.9415 30.25 87.7498 29.9667 88.3332 29.4C88.9165 28.8167 89.2082 27.9167 89.2082 26.7V19.175C89.2082 17.9583 88.9165 17.0667 88.3332 16.5C87.7498 15.9167 86.9415 15.625 85.9082 15.625C84.8748 15.625 84.0665 15.9167 83.4832 16.5C82.9165 17.0667 82.6332 17.9583 82.6332 19.175V26.7C82.6332 27.9167 82.9165 28.8167 83.4832 29.4C84.0665 29.9667 84.8748 30.25 85.9082 30.25ZM95.223 32C94.973 32 94.7313 31.9417 94.498 31.825C94.2813 31.6917 94.173 31.5 94.173 31.25V14.45C94.173 14.2 94.2813 14.0167 94.498 13.9C94.7313 13.7833 94.973 13.725 95.223 13.725C95.4897 13.725 95.7313 13.7833 95.948 13.9C96.1647 14.0167 96.273 14.2 96.273 14.45V22.725L102.998 14.025C103.148 13.825 103.356 13.725 103.623 13.725C103.806 13.725 103.99 13.7833 104.173 13.9C104.356 14 104.506 14.1333 104.623 14.3C104.74 14.45 104.798 14.6167 104.798 14.8C104.798 14.8667 104.79 14.9417 104.773 15.025C104.756 15.1083 104.715 15.1833 104.648 15.25L99.548 21.625L105.473 30.625C105.556 30.7417 105.598 30.8667 105.598 31C105.598 31.1833 105.54 31.3583 105.423 31.525C105.306 31.675 105.156 31.8 104.973 31.9C104.79 32 104.59 32.05 104.373 32.05C104.24 32.05 104.106 32.0167 103.973 31.95C103.84 31.8833 103.723 31.775 103.623 31.625L98.148 23.4L96.273 25.725V31.25C96.273 31.5 96.1647 31.6917 95.948 31.825C95.7313 31.9417 95.4897 32 95.223 32Z" fill="url(#paint0_linear_151_206)"/>
<defs>
<linearGradient id="paint0_linear_151_206" x1="87.1692" y1="-6.5" x2="34.5851" y2="22.1279" gradientUnits="userSpaceOnUse">
<stop stop-color="#00F2EA"/>
<stop offset="1" stop-color="#FF004F"/>
</linearGradient>
<clipPath id="clip0_151_206">
<rect width="22" height="24.9932" fill="white" transform="translate(12.94 10.0034)"/>
</clipPath>
</defs>
</svg>
