<svg width="483" height="184" viewBox="0 0 483 184" fill="none" xmlns="http://www.w3.org/2000/svg">
<g opacity="0.95" clip-path="url(#clip0_289_8571)">
<path d="M483 0V34.3242C482.438 34.5117 482.064 34.8868 481.502 35.0744C475.512 38.0754 470.083 41.8267 465.402 46.5158C463.905 48.0163 462.407 49.5168 461.096 51.0173C458.101 54.581 455.667 58.3323 453.421 62.2711C452.859 63.3965 452.11 64.7095 451.549 65.8349C447.992 73.7125 446.12 82.528 446.12 91.7187C446.12 98.2834 447.056 104.661 448.928 110.663C449.302 111.976 449.677 113.288 450.238 114.414C453.608 123.042 458.85 130.919 465.402 137.297C466.713 138.422 468.023 139.735 469.334 140.673C473.452 144.049 477.945 146.862 483 149.113V183.812H-4.65512e-05V149.488C21.7162 139.547 36.8802 117.602 36.8802 91.9062C36.8802 73.9001 29.3918 57.5821 17.2232 45.9531C16.2872 45.0153 15.3511 44.265 14.4151 43.5148C10.8581 40.3262 6.73949 37.7003 2.43367 35.6371C1.68484 35.262 0.748791 34.6993 -0.187256 34.3242V0H483Z" fill="#FFAFBA"/>
<g opacity="0.2">
<path d="M0 15.7553C5.05465 10.5036 6.55233 10.8787 6.55233 10.8787C6.92674 11.2538 8.05 13.8797 7.86279 18.5688C7.48837 24.3833 5.24186 30.948 0.748837 32.6361C0.561628 32.8236 0.187209 32.8236 0 32.8236V34.5117C0.936047 34.8868 1.68488 35.262 2.62093 35.8247C8.61163 33.1988 11.2326 25.1335 11.4198 18.7564C11.607 16.6932 11.607 9.56574 8.05 7.87767C5.9907 6.75229 3.55698 7.69011 0 10.8787V15.7553Z" fill="#480025"/>
<path d="M17.2233 46.1407C16.2873 45.2029 15.3512 44.4526 14.4152 43.7023C14.6024 43.7023 14.6024 43.5148 14.7896 43.5148C23.7756 37.5127 26.5838 22.3201 25.4605 10.6911C25.0861 6.75229 24.15 3.00102 23.0268 0H26.9582C28.0814 3.00102 28.6431 6.56473 29.0175 10.316C30.1407 23.2579 27.1454 39.0133 17.2233 46.1407Z" fill="#480025"/>
<path d="M86.4907 0C85.9291 0.375127 85.3674 0.937819 84.8058 1.31295C84.6186 1.31295 84.6186 1.50051 84.4314 1.50051C79.9384 4.31397 75.2581 4.68909 70.3907 4.87666C63.0895 5.43935 54.6651 4.31397 47.5512 1.87564C46.2407 1.31295 44.743 0.750255 43.2454 0H54.2907C59.5326 1.31295 65.1488 1.68807 70.2035 1.50051C73.5733 1.31295 76.5686 1.12538 79.3768 0H86.4907Z" fill="#480025"/>
<path d="M88.9243 87.0296C84.4313 89.843 79.7511 90.2181 74.8836 90.5933C67.5825 90.9684 59.1581 89.843 52.2313 87.4047C46.4278 85.3415 38.9394 81.4027 35.9441 74.4628C33.136 67.5229 35.1953 56.8318 41.5604 46.3282C48.6743 34.5117 59.9069 24.946 72.8243 19.5066C73.7604 19.1315 74.8836 19.5066 75.2581 20.4445C75.6325 21.3823 75.2581 22.5077 74.322 22.8828C61.9662 27.947 51.4825 36.9501 44.7429 48.2039C39.1267 57.5821 36.8801 67.3354 39.3139 73.1499C43.2453 82.7156 60.8429 87.9674 74.6964 87.2171C79.3767 86.842 83.4953 86.6544 87.2394 84.0285C96.2255 78.0265 99.0336 62.8339 97.9104 51.2049C96.9743 41.6392 93.6046 34.3242 89.1115 32.4485C84.8057 30.5729 76.5685 34.1366 68.1441 41.264C58.4092 49.7044 52.2313 60.0204 53.5418 65.6473C53.9162 67.5229 55.7883 69.211 58.5964 70.7115C63.2767 73.1499 69.6418 74.2752 73.0115 72.9623C77.5046 71.2742 79.7511 64.8971 80.1255 59.0826C80.3127 54.2059 79.1894 51.7676 78.815 51.3925C78.815 51.3925 76.5685 50.6422 67.9569 61.3333C67.3953 61.896 66.272 61.896 65.5232 61.3333C64.7743 60.7707 64.5871 59.6453 65.336 58.7075C72.8243 49.5168 77.5046 46.3282 80.6871 47.8288C84.2441 49.5168 84.2441 56.6442 84.0569 58.7075C83.6825 65.2722 81.0615 73.7125 74.5092 75.9633C70.0162 77.6514 62.715 76.526 57.0987 73.525C53.3546 71.4618 50.9208 69.0235 50.172 66.0224C48.1127 57.7696 56.5371 46.1407 65.8976 38.0754C75.6325 29.8226 84.8057 26.2589 90.6092 28.6973C96.4127 31.1356 100.531 39.2008 101.467 50.2671C102.778 63.3965 99.4081 79.527 89.2987 86.4669C89.1115 86.842 88.9243 86.842 88.9243 87.0296Z" fill="#480025"/>
<path d="M118.129 21.1947C116.631 15.0051 120.937 6.93986 126.928 0H131.795C124.494 7.50255 120.375 15.5678 121.499 20.2569C121.873 22.1325 123.745 23.8206 126.553 25.3211C131.234 27.7594 137.599 28.8848 140.968 27.5719C145.461 25.8838 147.708 19.5066 148.082 13.6922C148.27 8.81549 147.334 6.37717 146.772 6.00204C146.772 6.00204 144.525 5.25178 135.914 15.9429C135.352 16.6932 134.229 16.8807 133.293 16.1305C132.357 15.3802 132.357 14.4424 133.106 13.6922C140.594 4.50153 145.087 1.31295 148.457 2.81346C152.014 4.50153 152.014 11.629 151.827 13.6922C151.452 20.2569 148.831 28.6972 142.466 30.948C137.973 32.6361 130.672 31.5107 125.056 28.5097C121.311 26.634 118.878 24.0082 118.129 21.1947Z" fill="#480025"/>
<path d="M157.256 41.6391C157.068 41.6391 157.068 41.8267 156.881 41.8267C152.388 44.6402 147.708 45.0153 142.841 45.3904C135.539 45.7656 127.115 44.6402 120.188 42.2018C114.385 40.1386 106.896 36.1998 103.901 29.2599C101.093 22.3201 103.152 11.629 109.517 1.12538C109.704 0.750255 109.892 0.562691 110.079 0.187564H114.385C113.823 1.12538 113.074 2.0632 112.513 3.00102C106.896 12.3792 104.65 22.1325 107.084 27.947C111.015 37.5127 128.613 42.9521 142.466 42.0143C147.146 41.6391 151.265 41.4516 155.009 38.8257C163.995 32.8237 166.803 17.631 165.493 6.00204C165.493 3.75127 165.306 1.87564 164.744 0H168.488C168.863 1.68807 169.05 3.56371 169.237 5.43935C170.548 18.5688 167.365 34.6993 157.256 41.6391Z" fill="#480025"/>
<path d="M221.469 0C218.286 1.12538 214.916 1.31295 211.546 1.50051C206.305 1.87564 200.314 1.31295 194.698 0H221.469Z" fill="#480025"/>
<path d="M122.622 171.058C120.001 175.372 118.129 179.874 117.193 184H113.449C114.572 179.311 116.631 174.247 119.627 169.182C126.741 157.366 137.973 147.8 150.891 142.361C151.827 141.986 152.763 142.361 153.324 143.299C153.699 144.237 153.324 145.362 152.388 145.737C139.845 150.801 129.362 159.804 122.622 171.058Z" fill="#480025"/>
<path d="M146.21 184C154.635 173.684 156.881 174.434 156.881 174.434C157.443 174.622 158.566 177.248 158.192 182.124C158.192 182.687 158.192 183.437 158.005 184H161.562C161.562 183.25 161.749 182.687 161.749 182.124C161.936 180.061 161.936 172.934 158.379 171.246C155.196 169.745 150.516 172.934 143.028 182.124C142.466 182.687 142.466 183.437 142.841 184.188H146.21V184Z" fill="#480025"/>
<path d="M179.534 183.812H175.977C176.351 180.436 176.164 177.06 175.977 173.872C175.041 164.306 171.671 156.991 167.178 155.115C162.872 153.24 154.635 156.803 146.21 163.931C138.722 170.495 133.293 177.998 131.982 183.625H128.238C129.736 176.122 136.663 167.494 143.964 161.117C153.699 152.864 162.872 149.301 168.675 151.739C174.479 154.177 178.598 162.243 179.534 173.309C179.721 176.873 179.721 180.436 179.534 183.812Z" fill="#480025"/>
<path d="M234.76 164.868C230.267 167.682 225.587 168.057 220.72 168.432C213.419 168.807 204.994 167.682 198.067 165.244C192.264 163.18 184.776 159.242 181.78 152.302C178.972 145.362 181.031 134.671 187.396 124.167C194.51 112.351 205.743 102.785 218.66 97.3456C219.596 96.9704 220.72 97.3456 221.094 98.2834C221.469 99.2212 221.094 100.347 220.158 100.722C207.802 105.786 197.319 114.789 190.579 126.043C184.963 135.421 182.716 145.174 185.15 150.989C189.081 160.555 206.679 165.806 220.532 165.056C225.213 164.681 229.331 164.493 233.076 161.867C242.062 155.865 244.87 140.673 243.746 129.044C242.81 119.478 239.441 112.163 234.948 110.287C230.642 108.412 222.405 111.976 213.98 119.103C204.245 127.543 198.067 137.859 199.378 143.486C199.752 145.362 201.624 147.05 204.432 148.55C209.113 150.989 215.478 152.114 218.848 150.801C223.341 149.113 225.587 142.736 225.962 136.922C226.149 132.045 225.026 129.607 224.651 129.231C224.651 129.231 222.405 128.481 213.793 139.172C213.231 139.923 212.108 140.11 211.172 139.36C210.423 138.797 210.236 137.672 210.985 136.734C218.473 127.543 223.153 124.355 226.336 125.855C229.893 127.543 229.893 134.671 229.706 136.734C229.331 143.299 226.71 151.739 220.158 153.99C215.665 155.678 208.364 154.552 202.748 151.551C199.003 149.488 196.57 147.05 195.821 144.049C193.762 135.796 202.186 124.167 211.546 116.102C221.281 107.849 230.455 104.285 236.258 106.724C242.062 109.162 246.18 117.227 247.116 128.294C248.427 141.423 245.057 157.554 234.948 164.493C235.135 164.681 234.948 164.868 234.76 164.868Z" fill="#480025"/>
<path d="M303.653 121.166C299.16 123.98 294.48 124.355 289.613 124.73C282.312 125.105 273.887 123.98 266.96 121.541C261.157 119.478 253.669 115.539 250.673 108.599C247.865 101.66 249.924 90.9684 256.29 80.4648C263.403 68.6483 274.636 59.0826 287.553 53.6432C288.49 53.2681 289.613 53.6432 289.987 54.581C290.362 55.5189 289.987 56.6442 289.051 57.0194C276.695 62.0836 266.212 71.0867 259.472 82.3405C253.856 91.7187 251.609 101.472 254.043 107.286C257.974 116.852 275.572 122.104 289.426 121.354C294.106 120.979 298.224 120.791 301.969 118.165C310.955 112.163 313.763 96.9704 312.64 85.3415C311.703 75.7757 308.334 68.4608 303.841 66.5851C299.535 64.7095 291.298 68.2732 282.873 75.4006C273.138 83.841 266.96 94.157 268.271 99.7839C268.645 101.66 270.517 103.348 273.326 104.848C278.006 107.286 284.371 108.412 287.741 107.099C292.234 105.411 294.48 99.0336 294.855 93.2192C295.042 88.3425 293.919 85.9042 293.544 85.5291C293.544 85.5291 291.298 84.7788 282.686 95.4699C282.124 96.2202 281.001 96.4078 280.065 95.6575C279.316 95.0948 279.129 93.9694 279.878 93.0316C287.366 83.841 292.046 80.6524 295.229 82.1529C298.786 83.841 298.786 90.9684 298.599 93.0316C298.224 99.5963 295.603 108.037 289.051 110.287C284.558 111.976 277.257 110.85 271.641 107.849C267.897 105.786 265.463 103.348 264.714 100.347C262.655 92.0938 271.079 80.4648 280.44 72.3996C290.174 64.1468 299.348 60.5831 305.151 63.0214C310.955 65.4597 315.073 73.525 316.009 84.5912C317.32 97.7207 313.95 113.851 303.841 120.791C303.841 120.979 303.653 120.979 303.653 121.166Z" fill="#480025"/>
<path d="M372.734 78.0265C368.241 80.84 363.56 81.2151 358.693 81.5902C351.392 81.9654 342.967 80.84 336.041 78.4016C330.237 76.3384 322.749 72.3996 319.753 65.4598C316.945 58.5199 319.005 47.8288 325.37 37.3252C332.484 25.5087 343.716 15.9429 356.634 10.5036C357.57 10.1285 358.693 10.5036 359.067 11.4414C359.442 12.3792 359.067 13.5046 358.131 13.8797C345.776 18.9439 335.292 27.947 328.552 39.2008C322.936 48.579 320.689 58.3323 323.123 64.1468C327.055 73.7126 344.652 78.9643 358.506 78.2141C363.186 77.839 367.305 77.6514 371.049 75.0255C380.035 69.0235 382.843 53.8308 381.72 42.2018C380.784 32.6361 377.414 25.3211 372.921 23.4455C368.615 21.5698 360.378 25.1336 351.953 32.261C342.219 40.7013 336.041 51.0173 337.351 56.6443C337.726 58.5199 339.598 60.208 342.406 61.7085C347.086 64.1468 353.451 65.2722 356.821 63.9592C361.314 62.2712 363.56 55.894 363.935 50.0795C364.122 45.2029 362.999 42.7645 362.624 42.3894C362.624 42.3894 360.378 41.6392 351.766 52.3303C351.205 53.0805 350.081 53.2681 349.145 52.5179C348.396 51.9552 348.209 50.8298 348.958 49.892C356.446 40.7013 361.127 37.5128 364.309 39.0133C367.866 40.7013 367.866 47.8288 367.679 49.892C367.305 56.4567 364.684 64.8971 358.131 67.1478C353.638 68.8359 346.337 67.7105 340.721 64.7095C336.977 62.6463 334.543 60.208 333.794 57.2069C331.735 48.9541 340.159 37.3252 349.52 29.26C359.255 21.0072 368.428 17.4434 374.231 19.8818C380.035 22.3201 384.153 30.3853 385.089 41.4516C386.4 54.5811 383.03 70.7115 372.921 77.6514C373.108 77.839 372.921 78.0265 372.734 78.0265Z" fill="#480025"/>
<path d="M428.896 0C427.212 1.31295 424.591 3.75127 420.846 8.44037C420.285 9.19062 419.162 9.37819 418.413 8.62793C417.664 8.06524 417.477 6.93986 418.225 6.1896C420.285 3.75127 422.157 1.68807 423.655 0H428.896Z" fill="#480025"/>
<path d="M436.198 0H432.453C432.828 1.31295 433.202 3.37615 433.015 6.1896C432.641 12.0041 430.394 18.5688 425.901 20.0693C422.531 21.3823 416.166 20.2569 411.486 17.8186C408.678 16.318 406.806 14.4424 406.431 12.7543C405.682 9.56575 407.18 4.87666 410.55 0H406.244C403.436 4.87666 401.938 9.56575 402.874 13.6922C403.623 16.5056 405.87 19.1315 409.801 21.0071C415.417 24.0082 422.718 25.1335 427.212 23.4455C433.577 21.0071 436.385 12.7543 436.759 6.1896C436.759 5.06422 436.759 2.43833 436.198 0Z" fill="#480025"/>
<path d="M442.001 33.949C441.814 33.949 441.814 34.1366 441.627 34.1366C437.134 36.9501 432.453 37.3252 427.586 37.5127C420.285 38.0754 411.86 36.7625 404.934 34.3242C399.13 32.261 391.642 28.3221 388.646 21.3823C386.4 15.9429 387.336 8.06524 390.893 -0.187561H394.824C391.08 7.69011 389.957 15.1927 392.016 19.8818C395.948 29.4475 413.545 34.6993 427.399 33.949C432.079 33.5739 436.198 33.3863 439.942 30.7605C448.366 25.1335 451.362 11.0663 450.613 -0.187561H454.17C455.106 12.5668 451.736 27.5719 442.001 33.949Z" fill="#480025"/>
<path d="M366.93 179.874C364.122 180.999 361.501 182.5 358.88 184H352.328C356.446 180.999 360.94 178.561 365.62 176.685C366.556 176.31 367.679 176.685 368.053 177.623C368.241 178.373 367.866 179.498 366.93 179.874Z" fill="#480025"/>
<path d="M406.619 162.055C401.938 169.933 399.505 177.998 400.441 183.812H396.884C396.135 177.248 398.569 168.62 403.623 160.179C410.737 148.363 421.97 138.797 434.887 133.358C435.823 132.983 436.946 133.358 437.321 134.296C437.695 135.233 437.321 136.171 436.385 136.734C423.842 141.986 413.358 150.989 406.619 162.055Z" fill="#480025"/>
<path d="M445.932 173.121C445.745 176.497 444.809 180.624 443.124 184H438.819C440.878 181.187 442.001 177.06 442.188 173.121C442.376 168.245 441.252 165.806 440.878 165.431C440.878 165.431 438.631 164.681 430.02 175.372C429.458 176.122 428.335 176.31 427.399 175.56C426.65 174.997 426.463 173.872 427.212 173.121C434.7 163.931 439.38 160.742 442.376 162.243C446.12 163.931 445.932 170.871 445.932 173.121Z" fill="#480025"/>
<path d="M461.845 183.812H458.101C459.786 177.81 460.348 170.871 459.786 165.056C458.85 155.49 455.48 148.175 450.987 146.3C446.681 144.424 438.444 147.988 430.02 155.115C420.098 163.556 414.107 173.872 415.417 179.498C415.792 180.999 417.102 182.499 419.162 183.812H413.733C412.797 182.687 412.235 181.562 412.048 180.436C409.988 172.183 418.413 160.555 427.773 152.489C437.321 144.236 446.681 140.673 452.298 143.111C458.101 145.549 462.22 153.615 463.156 164.681C463.905 170.871 463.53 177.623 461.845 183.812Z" fill="#480025"/>
<path d="M483 153.802V157.554C477.197 155.49 469.708 151.551 466.713 144.612C465.777 142.548 465.402 140.11 465.402 137.484C466.713 138.61 468.023 139.923 469.334 140.86C469.521 141.611 469.708 142.361 469.895 143.111C471.767 147.613 476.822 151.364 483 153.802Z" fill="#480025"/>
<path d="M11.0453 149.113C7.11395 150.801 3.55698 152.677 0 154.928V150.614C2.99535 148.738 6.17791 147.05 9.54767 145.737C10.4837 145.362 11.4198 145.737 11.9814 146.675C12.3558 147.8 11.7942 148.738 11.0453 149.113Z" fill="#480025"/>
<path d="M20.7802 183.812H17.036C17.036 180.061 16.0999 177.998 15.5383 177.81C15.5383 177.81 13.8534 177.248 7.86273 183.812H3.1825C9.92203 175.747 14.2278 173.121 17.2232 174.434C20.2185 176.122 20.593 180.999 20.7802 183.812Z" fill="#480025"/>
<path d="M38.3779 183.812H34.8209C34.8209 181.562 34.8209 179.498 34.6337 177.435C33.6976 167.87 30.3279 160.555 25.8348 158.679C21.529 156.803 13.2918 160.367 4.8674 167.494C2.9953 168.995 1.49763 170.683 -0.187256 172.183V167.119C0.748791 166.369 1.49763 165.431 2.43367 164.681C12.1686 156.428 21.3418 152.864 27.1453 155.303C32.9488 157.741 37.0674 165.806 38.0034 176.873C38.3779 179.311 38.5651 181.562 38.3779 183.812Z" fill="#480025"/>
<path d="M94.3535 169.745C89.8604 172.559 85.3674 172.934 80.5 173.309C73.1988 173.684 64.7744 172.559 57.8476 170.12C52.0442 168.057 44.5558 164.118 41.5604 157.178C38.7523 150.239 40.8116 139.547 47.1767 129.044C54.2907 117.227 65.5232 107.662 78.4407 102.222C79.3767 101.847 80.5 102.222 80.8744 103.16C81.2488 104.098 80.8744 105.223 79.9383 105.598C67.5825 110.663 57.0988 119.666 50.3593 130.919C44.743 140.298 42.4965 150.051 44.9302 155.865C48.8616 165.431 66.4593 170.683 80.3128 169.933C84.993 169.558 89.1116 169.37 92.8558 166.744C101.842 160.742 104.65 145.549 103.527 133.921C102.591 124.355 99.2209 117.04 94.7279 115.164C90.4221 113.289 82.1849 116.852 73.7604 123.98C64.0256 132.42 57.8476 142.736 59.1581 148.363C59.5325 150.239 61.4046 151.927 64.2128 153.427C68.893 155.865 75.2581 156.991 78.6279 155.678C83.1209 153.99 85.3674 147.613 85.7418 141.798C85.929 136.922 84.8058 134.483 84.4314 134.108C84.4314 134.108 82.1848 133.358 73.5732 144.049C73.0116 144.799 71.8883 144.987 70.9523 144.237C70.2035 143.674 70.0162 142.548 70.7651 141.611C78.2535 132.42 82.9337 129.231 86.1162 130.732C89.6732 132.42 89.6732 139.547 89.486 141.611C89.1116 148.175 86.4907 156.616 79.9383 158.866C75.4453 160.555 68.1442 159.429 62.5279 156.428C58.7837 154.365 56.35 151.927 55.6011 148.926C53.5418 140.673 61.9662 129.044 71.3267 120.979C81.0616 112.726 90.2349 109.162 96.0383 111.6C101.842 114.039 105.96 122.104 106.896 133.17C108.207 146.3 104.837 162.43 94.7279 169.37C94.7279 169.558 94.5407 169.745 94.3535 169.745Z" fill="#480025"/>
<path d="M162.31 124.542C157.817 127.356 153.137 127.731 148.27 128.106C140.969 128.481 132.544 127.356 125.617 124.917C119.814 122.854 112.326 118.915 109.33 111.976C106.522 105.036 108.581 94.3445 114.946 83.841C122.06 72.0245 133.293 62.4587 146.21 57.0194C147.146 56.6442 148.27 57.0194 148.644 57.9572C149.019 58.895 148.644 60.0204 147.708 60.3955C135.352 65.4597 124.869 74.4628 118.129 85.7166C112.513 95.0948 110.266 104.848 112.7 110.663C116.631 120.228 134.229 125.48 148.083 124.73C152.763 124.355 156.881 124.167 160.626 121.541C169.612 115.539 172.42 100.347 171.296 88.7176C170.36 79.1519 166.991 71.8369 162.498 69.9613C158.192 68.0856 149.955 71.6493 141.53 78.7768C131.795 87.2171 125.617 97.5331 126.928 103.16C127.302 105.036 129.174 106.724 131.983 108.224C136.663 110.663 143.028 111.788 146.398 110.475C150.891 108.787 153.137 102.41 153.512 96.5953C153.699 91.7186 152.576 89.2803 152.201 88.9052C152.201 88.9052 149.955 88.1549 141.343 98.8461C140.781 99.5963 139.658 99.7839 138.722 99.0336C137.973 98.4709 137.786 97.3456 138.535 96.4077C146.023 87.2171 150.703 84.0285 153.886 85.529C157.443 87.2171 157.443 94.3445 157.256 96.4077C156.881 102.972 154.26 111.413 147.708 113.664C143.215 115.352 135.914 114.226 130.298 111.225C126.553 109.162 124.12 106.724 123.371 103.723C121.312 95.4699 129.736 83.841 139.096 75.7757C148.831 67.5229 158.005 63.9592 163.808 66.3975C169.612 68.8359 173.73 76.9011 174.666 87.9674C175.977 101.097 172.607 117.227 162.498 124.167C162.685 124.542 162.498 124.542 162.31 124.542Z" fill="#480025"/>
<path d="M231.203 80.84C226.71 83.6534 222.03 84.0286 217.163 84.4037C209.862 84.7788 201.437 83.6534 194.51 81.2151C188.707 79.1519 181.219 75.2131 178.223 68.2732C175.415 61.3333 177.474 50.6422 183.839 40.1386C190.953 28.1346 201.999 18.5688 215.103 13.1295C216.039 12.7543 217.163 13.1295 217.537 14.0673C217.912 15.0051 217.537 16.1305 216.601 16.5056C204.245 21.5698 193.762 30.5729 187.022 41.8267C181.406 51.2049 179.159 60.9582 181.593 66.7727C185.524 76.3384 203.122 81.5902 216.975 80.84C221.656 80.4648 225.774 80.2773 229.519 77.6514C238.505 71.6494 241.313 56.4567 240.189 44.8277C239.253 35.262 235.884 27.947 231.391 26.0714C227.085 24.1957 218.848 27.7594 210.423 34.8869C200.688 43.3272 194.51 53.6432 195.821 59.2701C196.195 61.1458 198.067 62.8339 200.875 64.3344C205.556 66.7727 211.921 67.8981 215.291 66.5851C219.784 64.8971 222.03 58.5199 222.405 52.7054C222.592 47.8288 221.469 45.3904 221.094 45.0153C221.094 45.0153 218.848 44.265 210.236 54.9562C209.674 55.7064 208.551 55.894 207.615 55.1437C206.866 54.5811 206.679 53.4557 207.428 52.5178C214.916 43.3272 219.596 40.1386 222.779 41.6392C226.336 43.3272 226.336 50.4546 226.149 52.5178C225.774 59.0826 223.153 67.5229 216.601 69.7737C212.108 71.4618 204.807 70.3364 199.191 67.3354C195.446 65.2722 193.013 62.8339 192.264 59.8328C190.205 51.58 198.629 39.9511 207.989 31.8858C217.724 23.633 226.898 20.0693 232.701 22.5077C238.505 24.946 242.623 33.0112 243.559 44.0775C244.87 57.2069 241.5 73.3374 231.391 80.2773C231.391 80.6524 231.203 80.84 231.203 80.84Z" fill="#480025"/>
<path d="M286.43 5.36442e-06C283.809 1.68808 280.814 4.87666 276.883 9.56575C276.321 10.316 276.321 11.4414 277.07 12.0041C277.819 12.5668 278.942 12.5668 279.691 11.8165C288.302 1.31295 290.549 1.87564 290.549 1.87564C291.111 2.06321 292.234 4.6891 291.859 9.56575C291.485 15.3802 289.238 21.945 284.745 23.4455C281.376 24.7584 275.011 23.633 270.33 21.1947C267.522 19.6942 265.65 17.8186 265.276 16.1305C264.34 12.1916 266.961 6.18961 272.015 -0.187558H267.522C263.216 5.81448 260.595 12.0041 261.906 16.8807C262.655 19.6942 264.901 22.3201 268.833 24.1957C274.449 27.1967 281.75 28.3221 286.243 26.6341C292.608 24.1957 295.416 15.9429 295.791 9.37819C295.978 7.50255 295.978 2.25077 293.731 -0.375122H286.43V5.36442e-06Z" fill="#480025"/>
<path d="M300.845 37.5127C300.658 37.5127 300.658 37.7003 300.471 37.7003C295.978 40.5138 291.298 40.8889 286.43 41.0765C279.129 41.6391 270.705 40.3262 263.778 37.8879C257.974 35.8247 250.486 31.8858 247.491 24.946C244.87 18.7564 246.367 9.37819 251.235 0H255.354C250.299 9.00306 248.427 18.1937 250.673 23.633C254.605 33.1988 272.202 38.4506 286.056 37.7003C290.736 37.3252 294.855 37.1376 298.599 34.5117C307.585 28.5097 310.393 13.317 309.083 1.68807C309.083 1.12538 308.895 0.562691 308.895 0H312.452C312.452 0.375127 312.64 0.937819 312.64 1.31295C314.137 14.4424 310.955 30.7605 300.845 37.5127Z" fill="#480025"/>
<path d="M225.774 183.437C225.4 183.625 225.025 183.812 224.464 184H216.414C218.848 182.5 221.468 181.187 224.277 180.061C225.213 179.686 226.336 180.061 226.71 180.999C227.085 181.937 226.523 182.875 225.774 183.437Z" fill="#480025"/>
<path d="M264.901 164.869C260.97 171.621 258.723 178.373 258.536 183.812H254.979C255.166 177.623 257.413 170.12 261.906 162.993C269.02 151.176 280.252 141.611 293.17 136.171C294.106 135.796 295.042 136.171 295.603 137.109C295.978 138.047 295.603 139.172 294.667 139.547C282.124 144.799 271.641 153.802 264.901 164.869Z" fill="#480025"/>
<path d="M304.215 175.935C304.028 178.373 303.653 181.374 302.717 184H298.786C299.909 181.562 300.471 178.748 300.658 175.935C300.845 171.058 299.722 168.62 299.348 168.245C299.348 168.245 297.101 167.494 288.489 178.186C287.928 178.936 286.805 179.123 285.868 178.373C285.12 177.81 284.932 176.497 285.681 175.935C293.17 166.744 297.85 163.556 301.032 165.056C304.402 166.744 304.215 173.872 304.215 175.935Z" fill="#480025"/>
<path d="M320.877 183.812H317.133C318.256 178.561 318.63 172.746 318.069 167.87C317.133 158.304 313.763 150.989 309.27 149.113C304.964 147.238 296.727 150.801 288.302 157.929C278.38 166.369 272.389 176.685 273.7 182.312C273.887 182.875 274.074 183.25 274.449 183.812H270.517C270.517 183.625 270.33 183.437 270.33 183.25C268.271 174.997 276.695 163.18 286.056 155.303C295.603 147.05 304.964 143.486 310.58 145.925C316.384 148.363 320.502 156.428 321.438 167.494C322.187 172.746 322 178.561 320.877 183.812Z" fill="#480025"/>
<path d="M378.35 160.93C373.857 163.743 369.177 164.118 364.309 164.493C357.008 164.869 348.584 163.743 341.657 161.305C335.853 159.242 328.365 155.303 325.37 148.363C322.561 141.423 324.621 130.732 330.986 120.228C338.1 108.412 349.332 98.8461 362.25 93.4067C363.186 93.0316 364.309 93.4067 364.684 94.3446C365.058 95.2824 364.684 96.4078 363.748 96.7829C351.392 101.847 340.908 110.85 334.168 122.104C328.552 131.482 326.306 141.235 328.739 147.05C332.671 156.616 350.268 161.868 364.122 161.117C368.802 160.742 372.921 160.555 376.665 157.929C385.651 151.927 388.459 136.734 387.336 125.105C386.4 115.539 383.03 108.224 378.537 106.349C374.231 104.473 365.994 108.037 357.57 115.164C347.835 123.604 341.657 133.921 342.967 139.547C343.342 141.423 345.214 143.111 348.022 144.612C352.702 147.05 359.067 148.175 362.437 146.862C366.93 145.174 369.177 138.797 369.551 132.983C369.738 128.106 368.615 125.668 368.241 125.293C368.241 125.293 365.994 124.542 357.382 135.233C356.821 135.984 355.698 136.171 354.761 135.421C354.013 134.858 353.825 133.733 354.574 132.795C362.063 123.605 366.743 120.416 369.925 121.916C373.482 123.604 373.482 130.732 373.295 132.795C372.921 139.36 370.3 147.8 363.748 150.051C359.255 151.739 351.953 150.614 346.337 147.613C342.593 145.549 340.159 143.111 339.41 140.11C337.351 131.857 345.775 120.228 355.136 112.163C364.871 103.91 374.044 100.347 379.848 102.785C385.651 105.223 389.77 113.288 390.706 124.355C392.016 137.484 388.646 153.615 378.537 160.555C378.724 160.742 378.537 160.742 378.35 160.93Z" fill="#480025"/>
<path d="M448.928 110.85C449.302 112.163 449.677 113.476 450.238 114.601C449.489 115.352 448.553 116.102 447.617 116.665C447.43 116.665 447.43 116.852 447.243 116.852C442.75 119.666 438.07 120.041 433.202 120.416C425.901 120.791 417.477 119.666 410.363 117.227C404.559 115.164 397.071 111.225 394.075 104.285C391.267 97.3456 393.327 86.6544 399.692 76.1509C406.806 64.3344 418.038 54.7686 430.956 49.3293C431.892 48.9541 432.828 49.3293 433.389 50.2671C433.764 51.2049 433.389 52.3303 432.453 52.7054C420.098 57.7696 409.614 66.7727 402.874 78.0265C397.258 87.4047 395.011 97.158 397.445 102.972C401.377 112.538 418.974 117.978 432.828 117.04C437.508 116.665 441.627 116.477 445.371 113.851C446.868 113.101 447.805 111.976 448.928 110.85Z" fill="#480025"/>
<path d="M453.234 62.4587C452.672 63.5841 451.923 64.8971 451.361 66.0225C450.238 64.1468 448.741 63.0214 447.243 62.2712C442.937 60.3955 434.7 63.9593 426.275 71.0867C416.541 79.527 410.363 89.8431 411.673 95.47C412.047 97.3456 413.92 99.0337 416.728 100.534C421.408 102.973 427.773 104.098 431.143 102.785C435.636 101.284 437.882 94.7197 438.257 88.9052C438.444 84.0286 437.321 81.5902 436.946 81.2151C436.946 81.2151 434.7 80.4649 426.088 91.156C425.527 91.9062 424.216 92.0938 423.467 91.3436C422.718 90.7809 422.531 89.6555 423.28 88.9052C430.768 79.7146 435.449 76.526 438.631 78.0265C442.188 79.7146 442.188 86.842 442.001 88.9052C441.627 95.47 439.006 103.91 432.641 106.161C428.148 107.849 420.846 106.724 415.23 103.723C411.486 101.66 409.052 99.0337 408.303 96.2202C406.244 87.9674 414.668 76.3385 424.029 68.2732C433.764 60.0204 442.937 56.4567 448.741 58.895C450.425 59.6453 451.923 60.9582 453.234 62.4587Z" fill="#480025"/>
<path d="M483 13.8797V18.5688C478.32 22.6952 474.201 27.5719 471.019 33.0112C468.21 37.7003 466.338 42.3894 465.402 46.7034C463.905 48.2039 462.407 49.7044 461.096 51.2049C461.284 45.2029 463.717 38.0754 468.023 31.1356C471.767 24.5709 477.009 18.7564 483 13.8797Z" fill="#480025"/>
<path d="M481.315 35.0744C481.877 34.3242 482.251 33.5739 482.813 33.0112V34.5117C482.438 34.6993 481.877 34.8869 481.315 35.0744Z" fill="#480025"/>
</g>
<path d="M82.5592 135.233C81.436 135.233 80.4999 135.046 79.5639 134.671C78.6279 134.296 77.879 133.733 77.1302 133.17C76.3813 132.42 75.8197 131.67 75.4453 130.732C75.0709 129.794 74.8837 128.856 74.8837 127.731C74.8837 126.606 75.0709 125.668 75.4453 124.73C75.8197 123.792 76.3813 123.042 77.1302 122.479C77.879 121.916 78.6279 121.354 79.5639 120.979C80.4999 120.603 81.436 120.416 82.5592 120.416C83.8697 120.416 84.993 120.603 85.929 121.166C87.0523 121.541 87.8011 122.292 88.3627 123.042L85.929 125.48C85.3674 124.917 84.993 124.542 84.4313 124.167C83.8697 123.792 83.1209 123.792 82.372 123.792C81.6232 123.792 80.8744 123.98 80.3127 124.355C79.7511 124.73 79.1895 125.105 78.8151 125.855C78.4406 126.418 78.2534 127.168 78.2534 128.106C78.2534 129.044 78.4406 129.607 78.8151 130.357C79.1895 130.919 79.5639 131.482 80.3127 131.857C80.8744 132.232 81.6232 132.42 82.372 132.42C83.1209 132.42 83.8697 132.232 84.4313 132.045C84.993 131.67 85.3674 131.295 85.7418 130.732C86.1162 130.169 86.1162 129.419 86.1162 128.669L88.5499 130.169L81.9976 129.982V126.981H89.8604V127.543C89.8604 129.231 89.486 130.732 88.9244 131.857C88.3627 132.983 87.4267 133.92 86.3034 134.483C85.1802 135.046 83.8697 135.233 82.5592 135.233Z" fill="#480025"/>
<path d="M96.5999 135.233C95.4767 135.233 94.3534 135.046 93.4174 134.483C92.4813 133.92 91.7325 133.358 91.3581 132.42C90.7965 131.482 90.6093 130.544 90.6093 129.419V120.791H94.1662V129.607C94.1662 130.169 94.3534 130.544 94.5406 130.919C94.7279 131.295 95.1023 131.482 95.4767 131.857C95.8511 132.045 96.2255 132.232 96.7872 132.232C97.3488 132.232 97.7232 132.045 98.0976 131.857C98.472 131.67 98.6593 131.295 99.0337 131.107C99.4081 130.919 99.4081 130.357 99.4081 129.794V120.979H102.965V129.419C102.965 130.544 102.778 131.67 102.216 132.42C101.655 133.358 100.906 133.92 100.157 134.483C98.8465 135.046 97.9104 135.233 96.5999 135.233Z" fill="#480025"/>
<path d="M104.276 135.046V120.791H107.832V135.046H104.276ZM107.084 129.231V126.606H109.892C110.453 126.606 111.015 126.418 111.202 126.23C111.577 125.855 111.764 125.48 111.764 125.105C111.764 124.542 111.577 124.167 111.202 123.98C110.828 123.604 110.453 123.604 109.892 123.604H107.084V120.979H110.266C111.202 120.979 112.138 121.166 112.887 121.541C113.636 121.916 114.198 122.479 114.572 123.042C114.946 123.604 115.134 124.355 115.134 125.293C115.134 126.23 114.946 126.793 114.572 127.543C114.198 128.106 113.636 128.669 112.887 129.044C112.138 129.419 111.202 129.607 110.266 129.607H107.084V129.231ZM111.951 135.046L107.832 128.856L111.015 128.106L116.07 135.046H111.951Z" fill="#480025"/>
<path d="M122.435 135.233C121.312 135.233 120.188 135.046 119.252 134.483C118.316 133.92 117.567 133.358 117.193 132.42C116.631 131.482 116.444 130.544 116.444 129.419V120.791H119.814V129.607C119.814 130.169 120.001 130.544 120.188 130.919C120.375 131.295 120.75 131.482 121.124 131.857C121.499 132.045 121.873 132.232 122.435 132.232C122.996 132.232 123.371 132.045 123.745 131.857C124.12 131.67 124.307 131.295 124.681 131.107C125.056 130.919 125.056 130.357 125.056 129.794V120.979H128.613V129.419C128.613 130.544 128.425 131.67 127.864 132.42C127.302 133.358 126.553 133.92 125.805 134.483C124.681 135.046 123.558 135.233 122.435 135.233Z" fill="#480025"/>
<path d="M77.879 151.551V137.672H79.3767V151.551H77.879ZM79.0023 145.925V144.612H83.1209C83.6825 144.612 84.2441 144.424 84.6186 144.236C84.993 144.049 85.3674 143.674 85.7418 143.299C85.929 142.924 86.1162 142.361 86.1162 141.798C86.1162 141.235 85.929 140.673 85.7418 140.298C85.5546 139.923 85.1802 139.547 84.6186 139.36C84.2441 139.172 83.6825 138.985 83.1209 138.985H79.0023V137.672H83.1209C83.8697 137.672 84.6186 137.859 85.3674 138.234C86.1162 138.61 86.4907 138.985 86.8651 139.735C87.2395 140.298 87.4267 141.048 87.4267 141.986C87.4267 142.736 87.2395 143.486 86.8651 144.236C86.4907 144.799 85.929 145.362 85.3674 145.737C84.6186 146.112 84.0569 146.3 83.1209 146.3H79.0023V145.925Z" fill="#480025"/>
<path d="M90.0476 151.551L95.6639 137.672H96.7871L102.403 151.551H100.906L96.0383 139.36H96.5999L91.7325 151.551H90.0476ZM92.6685 147.988V146.675H99.9697V147.988H92.6685Z" fill="#480025"/>
<path d="M110.453 151.739C109.33 151.739 108.394 151.551 107.645 151.176C106.897 150.801 106.148 150.239 105.586 149.488L106.522 148.55C107.084 149.301 107.458 149.676 108.207 150.051C108.769 150.426 109.517 150.614 110.453 150.614C111.39 150.614 112.138 150.426 112.7 150.051C113.262 149.676 113.449 149.113 113.449 148.363C113.449 147.8 113.262 147.425 113.074 147.05C112.887 146.675 112.513 146.487 112.138 146.112C111.764 145.925 111.202 145.737 110.828 145.549C110.266 145.362 109.892 145.174 109.33 144.987C108.769 144.799 108.394 144.612 108.02 144.236C107.645 143.861 107.271 143.486 107.084 143.111C106.709 142.361 106.709 141.798 106.709 141.048C106.709 140.298 106.897 139.735 107.271 139.172C107.645 138.61 108.207 138.234 108.769 137.859C109.33 137.484 110.079 137.484 111.015 137.484C111.951 137.484 112.7 137.672 113.449 138.047C114.198 138.422 114.759 138.797 115.134 139.547L114.198 140.485C113.823 139.923 113.262 139.547 112.7 139.36C112.138 139.172 111.577 138.985 110.828 138.985C110.079 138.985 109.33 139.172 108.956 139.547C108.581 139.923 108.207 140.485 108.207 141.048C108.207 141.611 108.394 141.986 108.581 142.361C108.769 142.736 109.143 142.924 109.517 143.111C109.892 143.299 110.453 143.486 110.828 143.674C111.39 143.861 111.764 144.049 112.326 144.236C112.887 144.424 113.262 144.612 113.636 144.987C114.01 145.362 114.385 145.737 114.572 146.112C114.759 146.675 114.947 147.238 114.947 147.988C114.947 149.113 114.572 150.051 113.636 150.801C113.074 151.364 111.951 151.739 110.453 151.739Z" fill="#480025"/>
<path d="M123.558 151.739C122.435 151.739 121.499 151.551 120.75 151.176C120.001 150.801 119.252 150.239 118.691 149.488L119.627 148.55C120.188 149.301 120.563 149.676 121.312 150.051C121.873 150.426 122.622 150.614 123.558 150.614C124.494 150.614 125.243 150.426 125.805 150.051C126.366 149.676 126.553 149.113 126.553 148.363C126.553 147.8 126.366 147.425 126.179 147.05C125.992 146.675 125.617 146.487 125.243 146.112C124.869 145.925 124.307 145.737 123.933 145.549C123.371 145.362 122.996 145.174 122.435 144.987C121.873 144.799 121.499 144.612 121.124 144.236C120.75 143.861 120.376 143.486 120.188 143.111C119.814 142.361 119.814 141.798 119.814 141.048C119.814 140.298 120.001 139.735 120.376 139.172C120.75 138.61 121.312 138.234 121.873 137.859C122.435 137.484 123.184 137.484 124.12 137.484C125.056 137.484 125.805 137.672 126.553 138.047C127.302 138.422 127.864 138.797 128.238 139.547L127.302 140.485C126.928 139.923 126.366 139.547 125.805 139.36C125.243 139.172 124.681 138.985 123.933 138.985C123.184 138.985 122.435 139.172 122.06 139.547C121.686 139.923 121.312 140.485 121.312 141.048C121.312 141.611 121.499 141.986 121.686 142.361C121.873 142.736 122.248 142.924 122.622 143.111C122.996 143.299 123.558 143.486 123.933 143.674C124.494 143.861 124.869 144.049 125.43 144.236C125.992 144.424 126.366 144.612 126.741 144.987C127.115 145.362 127.49 145.737 127.677 146.112C127.864 146.675 128.051 147.238 128.051 147.988C128.051 149.113 127.677 150.051 126.741 150.801C125.805 151.551 125.056 151.739 123.558 151.739Z" fill="#480025"/>
<path d="M399.879 150.051H310.955V155.115H399.879V150.051Z" fill="#480025"/>
<path d="M399.879 140.485H310.955V143.111H399.879V140.485Z" fill="#480025"/>
<path d="M399.879 126.605H310.955V129.231H399.879V126.605Z" fill="#480025"/>
<path d="M399.879 99.2212H310.955V104.285H399.879V99.2212Z" fill="#480025"/>
<path d="M399.879 109.537H310.955V118.728H399.879V109.537Z" fill="#480025"/>
<path d="M399.879 44.6401H310.955V49.7044H399.879V44.6401Z" fill="#480025"/>
<path d="M399.879 75.9633H310.955V78.5892H399.879V75.9633Z" fill="#480025"/>
<path d="M399.879 60.3955H310.955V61.896H399.879V60.3955Z" fill="#480025"/>
<path d="M399.879 68.4608H310.955V69.9613H399.879V68.4608Z" fill="#480025"/>
<path d="M399.879 28.6972H310.955V30.1977H399.879V28.6972Z" fill="#480025"/>
<path d="M399.879 36.7625H310.955V38.263H399.879V36.7625Z" fill="#480025"/>
<path d="M399.879 84.5912H310.955V87.2171H399.879V84.5912Z" fill="#480025"/>
<path d="M399.879 91.3435H310.955V94.9072H399.879V91.3435Z" fill="#480025"/>
<path d="M140.22 140.298L143.964 131.295H144.9L148.644 140.298H147.334L144.151 132.608H144.526L141.53 140.298H140.22ZM141.905 138.234V137.109H146.585V138.234H141.905Z" fill="#480025"/>
<path d="M153.324 140.485C152.763 140.485 152.014 140.298 151.452 140.11C150.891 139.923 150.329 139.547 149.955 139.172C149.58 138.797 149.206 138.234 149.019 137.672C148.831 137.109 148.644 136.546 148.644 135.796C148.644 135.233 148.831 134.483 149.019 133.92C149.206 133.358 149.58 132.795 149.955 132.42C150.329 132.045 150.891 131.67 151.452 131.482C152.014 131.295 152.576 131.107 153.324 131.107C154.073 131.107 154.635 131.295 155.196 131.482C155.758 131.67 156.133 132.045 156.694 132.42L155.758 133.358C155.384 132.983 155.196 132.795 154.635 132.608C154.073 132.42 153.699 132.42 153.137 132.42C152.576 132.42 152.201 132.42 151.827 132.608C151.452 132.795 151.078 132.983 150.703 133.358C150.329 133.733 150.142 134.108 149.955 134.483C149.767 134.858 149.767 135.421 149.767 135.796C149.767 136.359 149.767 136.734 149.955 137.109C150.142 137.484 150.329 137.859 150.703 138.234C151.078 138.61 151.265 138.797 151.827 138.985C152.201 139.172 152.576 139.172 153.137 139.172C153.699 139.172 154.26 139.172 154.635 138.985C155.009 138.797 155.384 138.61 155.758 138.234L156.694 138.985C156.32 139.36 155.758 139.735 155.196 139.923C154.635 140.11 154.073 140.485 153.324 140.485Z" fill="#480025"/>
<path d="M158.192 140.298V131.295H159.502V140.298H158.192ZM158.941 132.42V131.295H163.995V132.42H158.941ZM158.941 136.171V135.046H163.621V136.171H158.941ZM158.941 140.298V139.172H164.182V140.298H158.941Z" fill="#480025"/>
<path d="M168.114 140.485C167.365 140.485 166.803 140.298 166.242 140.11C165.68 139.923 165.306 139.547 164.931 138.985L165.68 138.234C166.055 138.61 166.242 138.985 166.616 139.172C166.991 139.36 167.365 139.547 167.927 139.547C168.488 139.547 168.863 139.36 169.237 139.172C169.612 138.985 169.799 138.61 169.799 138.234C169.799 137.859 169.799 137.672 169.612 137.484C169.424 137.297 169.237 137.109 169.05 136.922C168.863 136.734 168.488 136.734 168.114 136.546C167.74 136.359 167.552 136.359 167.178 136.171C166.803 135.984 166.616 135.984 166.242 135.796C166.055 135.609 165.68 135.421 165.68 135.046C165.493 134.671 165.493 134.296 165.493 133.92C165.493 133.358 165.68 132.983 165.867 132.608C166.055 132.232 166.429 132.045 166.803 131.857C167.178 131.67 167.74 131.482 168.301 131.482C168.863 131.482 169.424 131.67 169.799 131.857C170.173 132.045 170.735 132.42 170.922 132.795L170.173 133.17C169.986 132.795 169.612 132.608 169.237 132.42C168.863 132.232 168.488 132.232 168.114 132.232C167.552 132.232 167.178 132.42 166.991 132.608C166.616 132.795 166.616 133.17 166.616 133.545C166.616 133.92 166.616 134.108 166.803 134.296C166.991 134.483 167.178 134.671 167.365 134.858C167.552 135.046 168.114 135.046 168.488 135.046C168.863 135.233 169.05 135.233 169.424 135.421C169.799 135.609 169.986 135.796 170.36 135.984C170.735 136.171 170.922 136.359 170.922 136.734C171.109 137.109 171.109 137.484 171.109 137.859C171.109 138.61 170.922 139.36 170.36 139.735C169.799 140.11 169.05 140.485 168.114 140.485Z" fill="#480025"/>
<path d="M175.041 140.485C174.292 140.485 173.73 140.298 173.169 140.11C172.607 139.923 172.233 139.547 171.858 138.985L172.607 138.234C172.981 138.61 173.169 138.985 173.543 139.172C173.917 139.36 174.292 139.547 174.854 139.547C175.415 139.547 175.79 139.36 176.164 139.172C176.538 138.985 176.726 138.61 176.726 138.234C176.726 137.859 176.726 137.672 176.538 137.484C176.351 137.297 176.164 137.109 175.977 136.922C175.79 136.734 175.415 136.734 175.041 136.546C174.666 136.359 174.479 136.359 174.105 136.171C173.73 135.984 173.543 135.984 173.169 135.796C172.981 135.609 172.607 135.421 172.607 135.046C172.42 134.671 172.42 134.296 172.42 133.92C172.42 133.358 172.607 132.983 172.794 132.608C172.981 132.232 173.356 132.045 173.73 131.857C174.105 131.67 174.666 131.482 175.228 131.482C175.79 131.482 176.351 131.67 176.726 131.857C177.1 132.045 177.662 132.42 177.849 132.795L177.287 133.17C177.1 132.795 176.726 132.608 176.351 132.42C175.977 132.232 175.602 132.232 175.228 132.232C174.666 132.232 174.292 132.42 174.105 132.608C173.73 132.795 173.73 133.17 173.73 133.545C173.73 133.92 173.73 134.108 173.917 134.296C174.105 134.483 174.292 134.671 174.479 134.858C174.666 135.046 175.041 135.046 175.415 135.233C175.79 135.421 175.977 135.421 176.351 135.609C176.726 135.796 176.913 135.984 177.287 136.171C177.662 136.359 177.849 136.546 177.849 136.922C178.036 137.297 178.036 137.672 178.036 138.047C178.036 138.797 177.849 139.547 177.287 139.923C176.726 140.298 175.977 140.485 175.041 140.485Z" fill="#480025"/>
<path d="M183.84 140.485C183.278 140.485 182.529 140.298 181.967 140.11C181.406 139.923 180.844 139.547 180.47 139.172C180.095 138.797 179.721 138.234 179.534 137.672C179.347 137.109 179.159 136.546 179.159 135.796C179.159 135.233 179.347 134.483 179.534 133.92C179.721 133.358 180.095 132.795 180.47 132.42C180.844 132.045 181.406 131.67 181.967 131.482C182.529 131.295 183.091 131.107 183.84 131.107C184.401 131.107 185.15 131.295 185.712 131.482C186.273 131.67 186.835 132.045 187.209 132.42C187.584 132.795 187.958 133.358 188.145 133.92C188.333 134.483 188.52 135.046 188.52 135.796C188.52 136.359 188.333 137.109 188.145 137.672C187.958 138.234 187.584 138.797 187.209 139.172C186.835 139.547 186.273 139.923 185.712 140.11C185.15 140.298 184.588 140.485 183.84 140.485ZM183.84 139.36C184.401 139.36 185.15 139.172 185.524 138.985C186.086 138.61 186.46 138.234 186.648 137.672C187.022 137.109 187.022 136.546 187.022 135.796C187.022 135.233 187.022 134.858 186.835 134.483C186.648 134.108 186.46 133.733 186.086 133.358C185.712 132.983 185.524 132.795 184.963 132.608C184.401 132.42 184.214 132.42 183.652 132.42C183.091 132.42 182.529 132.608 181.967 132.795C181.406 132.983 181.031 133.545 180.844 134.108C180.47 134.671 180.47 135.233 180.47 135.984C180.47 136.546 180.47 136.922 180.657 137.297C180.844 137.672 181.031 138.047 181.406 138.422C181.78 138.797 181.967 138.985 182.529 139.172C182.903 139.172 183.465 139.36 183.84 139.36Z" fill="#480025"/>
<path d="M191.89 140.298L195.634 131.295H196.57L200.314 140.298H199.003L196.008 132.608H196.383L193.387 140.298H191.89ZM193.574 138.234V137.109H198.255V138.234H193.574Z" fill="#480025"/>
<path d="M206.866 140.298L203.309 131.295H204.62L207.615 138.985H207.053L210.049 131.295H211.359L207.802 140.298H206.866Z" fill="#480025"/>
<path d="M212.857 140.298V131.295H214.167V140.298H212.857ZM213.606 132.42V131.295H218.66V132.42H213.606ZM213.606 136.171V135.046H218.286V136.171H213.606ZM213.606 140.298V139.172H218.848V140.298H213.606Z" fill="#480025"/>
<path d="M220.532 140.298V131.295H221.843V140.298H220.532ZM221.281 136.359V135.421H223.715C224.277 135.421 224.651 135.233 225.025 135.046C225.4 134.858 225.4 134.483 225.4 133.92C225.4 133.545 225.213 133.17 225.025 132.795C224.838 132.42 224.277 132.42 223.902 132.42H221.469V131.295H223.902C224.464 131.295 225.025 131.482 225.4 131.67C225.774 131.857 226.149 132.232 226.336 132.608C226.523 132.983 226.71 133.358 226.71 133.92C226.71 134.483 226.523 134.858 226.336 135.233C226.149 135.609 225.774 135.984 225.4 136.171C225.025 136.359 224.464 136.546 223.902 136.546H221.281V136.359ZM225.587 140.298L222.405 136.171L223.528 135.796L227.272 140.298H225.587Z" fill="#480025"/>
<path d="M230.642 140.485C229.893 140.485 229.331 140.298 228.77 140.11C228.208 139.923 227.834 139.547 227.459 138.985L228.208 138.234C228.582 138.61 228.77 138.985 229.144 139.172C229.519 139.36 229.893 139.547 230.455 139.547C231.016 139.547 231.391 139.36 231.765 139.172C232.139 138.985 232.327 138.61 232.327 138.234C232.327 137.859 232.327 137.672 232.139 137.484C231.952 137.297 231.765 137.109 231.578 136.922C231.391 136.734 231.016 136.734 230.642 136.546C230.267 136.359 230.08 136.359 229.706 136.171C229.331 135.984 229.144 135.984 228.77 135.796C228.582 135.609 228.208 135.421 228.208 135.046C228.021 134.671 228.021 134.296 228.021 133.92C228.021 133.358 228.208 132.983 228.395 132.608C228.582 132.232 228.957 132.045 229.331 131.857C229.706 131.67 230.267 131.482 230.829 131.482C231.391 131.482 231.952 131.67 232.327 131.857C232.701 132.045 233.263 132.42 233.45 132.795L232.701 133.545C232.514 133.17 232.139 132.983 231.765 132.795C231.391 132.608 231.016 132.608 230.642 132.608C230.08 132.608 229.706 132.795 229.519 132.983C229.144 133.17 229.144 133.545 229.144 133.92C229.144 134.296 229.144 134.483 229.331 134.671C229.519 134.858 229.706 135.046 229.893 135.233C230.08 135.421 230.455 135.421 230.829 135.609C231.203 135.796 231.391 135.796 231.765 135.984C232.139 136.171 232.327 136.359 232.701 136.546C233.076 136.734 233.263 136.922 233.263 137.297C233.45 137.672 233.45 138.047 233.45 138.422C233.45 139.172 233.263 139.923 232.701 140.298C232.139 140.673 231.578 140.485 230.642 140.485Z" fill="#480025"/>
<path d="M234.386 140.298L238.13 131.295H239.066L242.81 140.298H241.5L238.505 132.608H238.879L235.884 140.298H234.386ZM239.441 130.357C239.253 130.357 238.879 130.357 238.692 130.169C238.505 129.982 238.317 129.982 238.13 129.794C237.943 129.607 237.756 129.607 237.569 129.607C237.381 129.607 237.194 129.607 237.007 129.794C236.82 129.794 236.82 129.982 236.633 130.169L236.071 129.607C236.258 129.419 236.445 129.044 236.82 129.044C237.007 128.856 237.381 128.856 237.756 128.856C238.13 128.856 238.317 128.856 238.505 129.044C238.692 129.231 238.879 129.231 239.066 129.419C239.253 129.607 239.441 129.607 239.628 129.607C239.815 129.607 240.002 129.607 240.189 129.419C240.377 129.419 240.377 129.231 240.564 129.044L241.126 129.607C240.938 129.794 240.751 130.169 240.377 130.169C240.002 130.169 239.815 130.357 239.441 130.357ZM236.258 138.234V137.109H240.938V138.234H236.258Z" fill="#480025"/>
<path d="M247.491 140.485C246.929 140.485 246.18 140.298 245.619 140.11C245.057 139.923 244.495 139.547 244.121 139.172C243.746 138.797 243.372 138.234 243.185 137.672C242.998 137.109 242.81 136.546 242.81 135.796C242.81 135.233 242.998 134.483 243.185 133.92C243.372 133.358 243.746 132.795 244.121 132.42C244.495 132.045 245.057 131.67 245.619 131.482C246.18 131.295 246.742 131.107 247.491 131.107C248.052 131.107 248.801 131.295 249.363 131.482C249.924 131.67 250.486 132.045 250.86 132.42C251.235 132.795 251.609 133.358 251.796 133.92C251.984 134.483 252.171 135.046 252.171 135.796C252.171 136.359 251.984 137.109 251.796 137.672C251.609 138.234 251.235 138.797 250.86 139.172C250.486 139.547 249.924 139.923 249.363 140.11C248.801 140.298 248.239 140.485 247.491 140.485ZM247.491 139.36C248.052 139.36 248.801 139.172 249.176 138.985C249.737 138.61 250.112 138.234 250.299 137.672C250.673 137.109 250.673 136.546 250.673 135.796C250.673 135.233 250.673 134.858 250.486 134.483C250.299 134.108 250.112 133.733 249.737 133.358C249.363 132.983 249.176 132.795 248.614 132.608C248.052 132.42 247.865 132.42 247.303 132.42C246.742 132.42 246.18 132.608 245.619 132.795C245.057 132.983 244.683 133.545 244.495 134.108C244.121 134.671 244.121 135.233 244.121 135.984C244.121 136.546 244.121 136.922 244.308 137.297C244.495 137.672 244.683 138.047 245.057 138.422C245.431 138.797 245.619 138.985 246.18 139.172C246.555 139.172 247.116 139.36 247.491 139.36Z" fill="#480025"/>
<path d="M255.541 140.298L259.285 131.295H260.221L263.965 140.298H262.655L259.659 132.608H260.034L257.038 140.298H255.541ZM257.226 138.234V137.109H261.906V138.234H257.226Z" fill="#480025"/>
<path d="M265.088 140.298V131.295H266.399V140.298H265.088ZM265.837 140.298V139.172H270.705V140.298H265.837Z" fill="#480025"/>
<path d="M272.202 140.298V131.295H273.513V140.298H272.202ZM273.138 136.734V135.609H275.572C275.946 135.609 276.134 135.609 276.508 135.421C276.695 135.233 277.07 135.046 277.07 134.858C277.07 134.671 277.257 134.296 277.257 133.92C277.257 133.545 277.257 133.358 277.07 132.983C276.883 132.608 276.695 132.608 276.508 132.42C276.321 132.232 275.946 132.232 275.572 132.232H273.138V131.295H275.759C276.321 131.295 276.883 131.482 277.257 131.67C277.631 131.857 278.006 132.232 278.38 132.608C278.755 132.983 278.755 133.545 278.755 134.108C278.755 134.671 278.567 135.233 278.38 135.609C278.193 135.984 277.819 136.359 277.257 136.546C276.883 136.734 276.321 136.922 275.759 136.922H273.138V136.734Z" fill="#480025"/>
<path d="M280.065 140.298V131.295H281.376V140.298H280.065ZM280.814 136.171V135.046H286.056V136.171H280.814ZM285.869 140.298V131.295H287.179V140.298H285.869Z" fill="#480025"/>
<path d="M288.49 140.298L292.234 131.295H293.17L296.914 140.298H295.603L292.608 132.608H292.983L289.987 140.298H288.49ZM290.362 138.234V137.109H295.042V138.234H290.362Z" fill="#480025"/>
</g>
<defs>
<clipPath id="clip0_289_8571">
<rect width="483" height="184" fill="white"/>
</clipPath>
</defs>
</svg>
