<svg width="146" height="45" viewBox="0 0 146 45" fill="none" xmlns="http://www.w3.org/2000/svg">
<rect x="0.940002" width="144.71" height="45" rx="8" fill="white"/>
<g clip-path="url(#clip0_151_214)">
<path d="M23.224 26.3565L29.8957 22.5L23.224 18.6435V26.3565ZM38.0844 16.291C38.2515 16.8952 38.3672 17.7051 38.4443 18.7335C38.5343 19.7619 38.5729 20.6488 38.5729 21.4201L38.65 22.5C38.65 25.3152 38.4443 27.3849 38.0844 28.7089C37.763 29.8659 37.0174 30.6115 35.8605 30.9329C35.2563 31.1 34.1508 31.2157 32.4539 31.2928C30.7827 31.3828 29.253 31.4213 27.8389 31.4213L25.795 31.4985C20.4088 31.4985 17.0536 31.2928 15.7295 30.9329C14.5726 30.6115 13.827 29.8659 13.5056 28.7089C13.3385 28.1048 13.2228 27.2949 13.1457 26.2665C13.0557 25.2381 13.0171 24.3511 13.0171 23.5798L12.94 22.5C12.94 19.6847 13.1457 17.6151 13.5056 16.291C13.827 15.1341 14.5726 14.3885 15.7295 14.0671C16.3337 13.9 17.4393 13.7843 19.1361 13.7071C20.8073 13.6172 22.337 13.5786 23.7511 13.5786L25.795 13.5015C31.1812 13.5015 34.5364 13.7071 35.8605 14.0671C37.0174 14.3885 37.763 15.1341 38.0844 16.291Z" fill="#C4302B"/>
</g>
<path d="M48.4 32C48.15 32 47.9083 31.9417 47.675 31.825C47.4583 31.6917 47.35 31.5 47.35 31.25V24.925C47.35 24.825 47.3333 24.7417 47.3 24.675L42.125 15.025C42.0917 14.9417 42.0667 14.8667 42.05 14.8C42.0333 14.7167 42.025 14.65 42.025 14.6C42.025 14.4333 42.0917 14.2833 42.225 14.15C42.3583 14.0167 42.5167 13.9167 42.7 13.85C42.9 13.7667 43.0917 13.725 43.275 13.725C43.4583 13.725 43.6 13.775 43.7 13.875C43.8167 13.9583 43.925 14.0917 44.025 14.275L48.4 22.85L52.8 14.275C52.9 14.0917 53.0083 13.9583 53.125 13.875C53.2417 13.775 53.3833 13.725 53.55 13.725C53.7333 13.725 53.9167 13.7667 54.1 13.85C54.3 13.9167 54.4667 14.0167 54.6 14.15C54.7333 14.2833 54.8 14.4333 54.8 14.6C54.8 14.65 54.7917 14.7167 54.775 14.8C54.7583 14.8667 54.7333 14.9417 54.7 15.025L49.525 24.675C49.475 24.7417 49.45 24.825 49.45 24.925V31.25C49.45 31.5 49.3417 31.6917 49.125 31.825C48.9083 31.9417 48.6667 32 48.4 32ZM61.3818 32.15C60.3652 32.15 59.4485 31.975 58.6318 31.625C57.8318 31.2583 57.1902 30.6833 56.7068 29.9C56.2402 29.1 56.0068 28.0333 56.0068 26.7V19.175C56.0068 17.8417 56.2402 16.7833 56.7068 16C57.1902 15.2 57.8318 14.625 58.6318 14.275C59.4485 13.9083 60.3652 13.725 61.3818 13.725C62.3985 13.725 63.3152 13.9083 64.1318 14.275C64.9485 14.625 65.5902 15.2 66.0568 16C66.5402 16.7833 66.7818 17.8417 66.7818 19.175V26.7C66.7818 28.0333 66.5402 29.1 66.0568 29.9C65.5902 30.6833 64.9485 31.2583 64.1318 31.625C63.3152 31.975 62.3985 32.15 61.3818 32.15ZM61.3818 30.25C62.4152 30.25 63.2235 29.9667 63.8068 29.4C64.3902 28.8167 64.6818 27.9167 64.6818 26.7V19.175C64.6818 17.9583 64.3902 17.0667 63.8068 16.5C63.2235 15.9167 62.4152 15.625 61.3818 15.625C60.3485 15.625 59.5402 15.9167 58.9568 16.5C58.3902 17.0667 58.1068 17.9583 58.1068 19.175V26.7C58.1068 27.9167 58.3902 28.8167 58.9568 29.4C59.5402 29.9667 60.3485 30.25 61.3818 30.25ZM75.0217 32.15C73.9883 32.15 73.0633 31.975 72.2467 31.625C71.43 31.2583 70.78 30.6833 70.2967 29.9C69.8133 29.1 69.5717 28.0333 69.5717 26.7V14.45C69.5717 14.2 69.6717 14.0167 69.8717 13.9C70.0883 13.7833 70.3383 13.725 70.6217 13.725C70.8883 13.725 71.13 13.7833 71.3467 13.9C71.5633 14.0167 71.6717 14.2 71.6717 14.45V26.7C71.6717 27.9167 71.9633 28.8167 72.5467 29.4C73.13 29.9667 73.955 30.25 75.0217 30.25C76.0717 30.25 76.8883 29.9667 77.4717 29.4C78.0717 28.8167 78.3717 27.9167 78.3717 26.7V14.45C78.3717 14.2 78.48 14.0167 78.6967 13.9C78.9133 13.7833 79.155 13.725 79.4217 13.725C79.6883 13.725 79.93 13.7833 80.1467 13.9C80.3633 14.0167 80.4717 14.2 80.4717 14.45V26.7C80.4717 28.0333 80.23 29.1 79.7467 29.9C79.2633 30.6833 78.605 31.2583 77.7717 31.625C76.955 31.975 76.0383 32.15 75.0217 32.15ZM87.8033 32C87.5367 32 87.295 31.9417 87.0783 31.825C86.8617 31.6917 86.7533 31.5 86.7533 31.25V15.675H82.7033C82.4867 15.675 82.3117 15.575 82.1783 15.375C82.045 15.175 81.9783 14.9417 81.9783 14.675C81.9783 14.4417 82.0367 14.225 82.1533 14.025C82.27 13.825 82.4533 13.725 82.7033 13.725H92.9033C93.1533 13.725 93.3367 13.825 93.4533 14.025C93.57 14.225 93.6283 14.4417 93.6283 14.675C93.6283 14.925 93.57 15.1583 93.4533 15.375C93.3367 15.575 93.1533 15.675 92.9033 15.675H88.8533V31.25C88.8533 31.5 88.745 31.6917 88.5283 31.825C88.3117 31.9417 88.07 32 87.8033 32ZM100.584 32.15C99.5508 32.15 98.6258 31.975 97.8092 31.625C96.9925 31.2583 96.3425 30.6833 95.8592 29.9C95.3758 29.1 95.1342 28.0333 95.1342 26.7V14.45C95.1342 14.2 95.2342 14.0167 95.4342 13.9C95.6508 13.7833 95.9008 13.725 96.1842 13.725C96.4508 13.725 96.6925 13.7833 96.9092 13.9C97.1258 14.0167 97.2342 14.2 97.2342 14.45V26.7C97.2342 27.9167 97.5258 28.8167 98.1092 29.4C98.6925 29.9667 99.5175 30.25 100.584 30.25C101.634 30.25 102.451 29.9667 103.034 29.4C103.634 28.8167 103.934 27.9167 103.934 26.7V14.45C103.934 14.2 104.043 14.0167 104.259 13.9C104.476 13.7833 104.718 13.725 104.984 13.725C105.251 13.725 105.493 13.7833 105.709 13.9C105.926 14.0167 106.034 14.2 106.034 14.45V26.7C106.034 28.0333 105.793 29.1 105.309 29.9C104.826 30.6833 104.168 31.2583 103.334 31.625C102.518 31.975 101.601 32.15 100.584 32.15ZM109.966 32C109.682 32 109.449 31.9333 109.266 31.8C109.099 31.65 109.016 31.475 109.016 31.275V14.475C109.016 14.225 109.116 14.0417 109.316 13.925C109.516 13.7917 109.732 13.725 109.966 13.725H114.266C115.182 13.725 116.024 13.8417 116.791 14.075C117.574 14.2917 118.191 14.7083 118.641 15.325C119.107 15.9417 119.341 16.8333 119.341 18C119.341 19.05 119.149 19.925 118.766 20.625C118.382 21.325 117.866 21.8167 117.216 22.1C117.732 22.3 118.182 22.575 118.566 22.925C118.949 23.2583 119.249 23.7 119.466 24.25C119.682 24.7833 119.791 25.4833 119.791 26.35V26.8C119.791 28.0833 119.574 29.1083 119.141 29.875C118.707 30.625 118.116 31.1667 117.366 31.5C116.616 31.8333 115.774 32 114.841 32H109.966ZM111.116 30.1H114.491C115.507 30.1 116.291 29.825 116.841 29.275C117.407 28.725 117.691 27.8583 117.691 26.675V26.25C117.691 25.05 117.407 24.2083 116.841 23.725C116.291 23.225 115.507 22.975 114.491 22.975H111.116V30.1ZM111.116 21.225H114.241C115.274 21.225 116.032 21 116.516 20.55C116.999 20.0833 117.241 19.3333 117.241 18.3C117.241 17.6167 117.107 17.0833 116.841 16.7C116.591 16.3 116.232 16.025 115.766 15.875C115.316 15.7083 114.782 15.625 114.166 15.625H111.116V21.225ZM123.089 32C122.856 32 122.639 31.9417 122.439 31.825C122.239 31.6917 122.139 31.5 122.139 31.25V14.475C122.139 14.225 122.239 14.0417 122.439 13.925C122.639 13.7917 122.856 13.725 123.089 13.725H131.989C132.256 13.725 132.439 13.825 132.539 14.025C132.656 14.225 132.714 14.4333 132.714 14.65C132.714 14.9 132.647 15.125 132.514 15.325C132.397 15.525 132.222 15.625 131.989 15.625H124.239V21.975H128.139C128.372 21.975 128.547 22.0667 128.664 22.25C128.797 22.4333 128.864 22.6417 128.864 22.875C128.864 23.075 128.806 23.2667 128.689 23.45C128.589 23.6333 128.406 23.725 128.139 23.725H124.239V30.1H131.989C132.222 30.1 132.397 30.2 132.514 30.4C132.647 30.5833 132.714 30.8083 132.714 31.075C132.714 31.2917 132.656 31.5 132.539 31.7C132.439 31.9 132.256 32 131.989 32H123.089Z" fill="#C4302B"/>
<defs>
<clipPath id="clip0_151_214">
<rect width="25.71" height="17.997" fill="white" transform="translate(12.94 13.5015)"/>
</clipPath>
</defs>
</svg>
