<svg width="23" height="19" viewBox="0 0 23 19" fill="none" xmlns="http://www.w3.org/2000/svg">
<g clip-path="url(#clip0_107_460)">
<path d="M7.64999 10.6001C10.158 10.6001 12.05 8.70808 12.05 6.20008C12.05 3.69208 10.158 1.80008 7.64999 1.80008C5.14199 1.80008 3.24999 3.69208 3.24999 6.20008C3.24999 8.70808 5.14199 10.6001 7.64999 10.6001ZM7.64999 4.00008C8.94579 4.00008 9.84999 4.90428 9.84999 6.20008C9.84999 7.49588 8.94579 8.40008 7.64999 8.40008C6.35419 8.40008 5.44999 7.49588 5.44999 6.20008C5.44999 4.90428 6.35419 4.00008 7.64999 4.00008ZM8.74999 11.7001H6.54999C3.51729 11.7001 1.04999 14.1674 1.04999 17.2001V18.3001H3.24999V17.2001C3.24999 15.3807 4.73059 13.9001 6.54999 13.9001H8.74999C10.5694 13.9001 12.05 15.3807 12.05 17.2001V18.3001H14.25V17.2001C14.25 14.1674 11.7827 11.7001 8.74999 11.7001ZM19.0504 0.299683L17.495 1.85508C18.9481 3.31038 19.75 5.24418 19.75 7.30008C19.75 9.35598 18.9481 11.2898 17.495 12.7451L19.0504 14.3005C20.9204 12.4294 21.95 9.94338 21.95 7.30008C21.95 4.65678 20.9204 2.17078 19.0504 0.299683Z" fill="white"/>
<path d="M15.9385 3.4104L14.3831 4.968C15.0068 5.5895 15.35 6.4178 15.35 7.3C15.35 8.1822 15.0068 9.0105 14.3831 9.632L15.9385 11.1896C16.9769 10.1512 17.55 8.7707 17.55 7.3C17.55 5.8293 16.9769 4.4488 15.9385 3.4104Z" fill="white"/>
</g>
<defs>
<clipPath id="clip0_107_460">
<rect width="22" height="18.7" fill="white" transform="translate(0.5 0.150024)"/>
</clipPath>
</defs>
</svg>
