<svg width="28" height="28" viewBox="0 0 28 28" fill="none" xmlns="http://www.w3.org/2000/svg">
<g clip-path="url(#clip0_267_110)">
<path d="M19.495 8.69626C19.6112 8.81235 19.7034 8.95021 19.7663 9.10196C19.8292 9.25371 19.8616 9.41637 19.8616 9.58064C19.8616 9.74491 19.8292 9.90756 19.7663 10.0593C19.7034 10.2111 19.6112 10.3489 19.495 10.465L15.7675 14.1913L19.1125 17.535C19.347 17.7696 19.4788 18.0877 19.4788 18.4194C19.4788 18.7511 19.347 19.0692 19.1125 19.3038C18.8779 19.5383 18.5598 19.6701 18.2281 19.6701C17.8964 19.6701 17.5783 19.5383 17.3437 19.3038L14 15.9588L10.6562 19.3038C10.4217 19.5383 10.1036 19.6701 9.77187 19.6701C9.44016 19.6701 9.12204 19.5383 8.88749 19.3038C8.65294 19.0692 8.52117 18.7511 8.52117 18.4194C8.52117 18.0877 8.65294 17.7696 8.88749 17.535L12.2325 14.1913L8.50499 10.465C8.38885 10.3488 8.29674 10.2108 8.23392 10.059C8.1711 9.9072 8.1388 9.7445 8.13886 9.58019C8.13891 9.41589 8.17133 9.25321 8.23426 9.10144C8.29719 8.94966 8.3894 8.81177 8.50562 8.69564C8.62184 8.5795 8.75979 8.48739 8.91161 8.42457C9.06343 8.36174 9.22613 8.32944 9.39043 8.3295C9.55474 8.32956 9.71742 8.36198 9.86919 8.42491C10.021 8.48783 10.1589 8.58004 10.275 8.69626L14 12.425L17.7262 8.69751C17.8423 8.58129 17.9802 8.48909 18.1319 8.42619C18.2837 8.36328 18.4464 8.3309 18.6106 8.3309C18.7749 8.3309 18.9375 8.36328 19.0893 8.42619C19.241 8.48909 19.3789 8.58004 19.495 8.69626Z" fill="#F12417"/>
<path fill-rule="evenodd" clip-rule="evenodd" d="M4 0.25C3.00544 0.25 2.05161 0.645088 1.34835 1.34835C0.645088 2.05161 0.25 3.00544 0.25 4V24C0.25 24.9946 0.645088 25.9484 1.34835 26.6516C2.05161 27.3549 3.00544 27.75 4 27.75H24C24.9946 27.75 25.9484 27.3549 26.6516 26.6516C27.3549 25.9484 27.75 24.9946 27.75 24V4C27.75 3.00544 27.3549 2.05161 26.6516 1.34835C25.9484 0.645088 24.9946 0.25 24 0.25H4ZM24 2.75H4C3.66848 2.75 3.35054 2.8817 3.11612 3.11612C2.8817 3.35054 2.75 3.66848 2.75 4V24C2.75 24.3315 2.8817 24.6495 3.11612 24.8839C3.35054 25.1183 3.66848 25.25 4 25.25H24C24.3315 25.25 24.6495 25.1183 24.8839 24.8839C25.1183 24.6495 25.25 24.3315 25.25 24V4C25.25 3.66848 25.1183 3.35054 24.8839 3.11612C24.6495 2.8817 24.3315 2.75 24 2.75Z" fill="#F12417"/>
</g>
<defs>
<clipPath id="clip0_267_110">
<rect width="28" height="28" fill="white"/>
</clipPath>
</defs>
</svg>
