<svg width="20" height="21" viewBox="0 0 20 21" fill="none" xmlns="http://www.w3.org/2000/svg">
<g clip-path="url(#clip0_161_111)">
<path d="M13.2325 1.75C15.335 1.75 16.875 3.4625 16.875 5.8125C16.875 7.99375 15.63 10.0113 13.5975 11.8513C13.39 12.0388 13.1775 12.2225 12.9613 12.3988L14.3562 19.3788C14.3888 19.5418 14.3774 19.7105 14.3233 19.8677C14.2691 20.0249 14.1741 20.1648 14.0481 20.2732C13.922 20.3816 13.7694 20.4545 13.6059 20.4845C13.4424 20.5144 13.2738 20.5004 13.1175 20.4438L10.1062 19.3488C10.0376 19.3239 9.96241 19.3239 9.89375 19.3488L6.8825 20.4438C6.7262 20.5004 6.55765 20.5144 6.39412 20.4845C6.2306 20.4545 6.07798 20.3816 5.95192 20.2732C5.82586 20.1648 5.73088 20.0249 5.67673 19.8677C5.62258 19.7105 5.61119 19.5418 5.64375 19.3788L7.0375 12.3988C6.82058 12.2215 6.60802 12.0389 6.4 11.8513C4.37125 10.0113 3.125 7.99375 3.125 5.8125C3.125 3.4625 4.665 1.75 6.7675 1.75C7.97125 1.75 9.07125 2.25375 9.86 3.09125L10 3.2475L10.14 3.09125C10.8839 2.29549 11.9061 1.81731 12.9938 1.75625L13.2325 1.75ZM8.70625 13.6188L7.80875 18.1113L9.2525 17.5863C9.66476 17.4367 10.1125 17.4145 10.5375 17.5225L10.7475 17.5863L12.19 18.1113L11.2925 13.6213C11.0438 13.7838 10.83 13.915 10.6613 14.0138L10.45 14.135C10.312 14.2105 10.1573 14.2501 10 14.2501C9.84272 14.2501 9.68797 14.2105 9.55 14.135C9.33143 14.0134 9.11674 13.8851 8.90625 13.75L8.70625 13.6188ZM13.2325 3.625C12.1538 3.625 11.2188 4.35 10.9 5.44875C10.6388 6.35 9.36125 6.35 9.1 5.44875C8.78125 4.35 7.84625 3.625 6.7675 3.625C5.7475 3.625 5 4.45625 5 5.8125C5 7.35 5.9825 8.9425 7.66 10.4613C8.2725 11.015 8.9325 11.5188 9.5925 11.9588L9.99875 12.2213L10.0938 12.1625L10.4075 11.9588C11.0874 11.5075 11.7333 11.007 12.34 10.4613C14.0175 8.9425 15 7.34875 15 5.8125C15 4.45625 14.2525 3.625 13.2325 3.625Z" fill="white"/>
</g>
<defs>
<clipPath id="clip0_161_111">
<rect width="20" height="20" fill="white" transform="translate(0 0.5)"/>
</clipPath>
</defs>
</svg>
