<svg width="21" height="21" viewBox="0 0 21 21" fill="none" xmlns="http://www.w3.org/2000/svg">
<g clip-path="url(#clip0_161_111)">
<path d="M13.7325 1.75C15.835 1.75 17.375 3.4625 17.375 5.8125C17.375 7.99375 16.13 10.0113 14.0975 11.8513C13.89 12.0388 13.6775 12.2225 13.4613 12.3988L14.8562 19.3788C14.8888 19.5418 14.8774 19.7105 14.8233 19.8677C14.7691 20.0249 14.6741 20.1648 14.5481 20.2732C14.422 20.3816 14.2694 20.4545 14.1059 20.4845C13.9424 20.5144 13.7738 20.5004 13.6175 20.4438L10.6062 19.3488C10.5376 19.3239 10.4624 19.3239 10.3938 19.3488L7.3825 20.4438C7.2262 20.5004 7.05765 20.5144 6.89412 20.4845C6.7306 20.4545 6.57798 20.3816 6.45192 20.2732C6.32586 20.1648 6.23088 20.0249 6.17673 19.8677C6.12258 19.7105 6.11119 19.5418 6.14375 19.3788L7.5375 12.3988C7.32058 12.2215 7.10802 12.0389 6.9 11.8513C4.87125 10.0113 3.625 7.99375 3.625 5.8125C3.625 3.4625 5.165 1.75 7.2675 1.75C8.47125 1.75 9.57125 2.25375 10.36 3.09125L10.5 3.2475L10.64 3.09125C11.3839 2.29549 12.4061 1.81731 13.4938 1.75625L13.7325 1.75ZM9.20625 13.6188L8.30875 18.1113L9.7525 17.5863C10.1648 17.4367 10.6125 17.4145 11.0375 17.5225L11.2475 17.5863L12.69 18.1113L11.7925 13.6213C11.5438 13.7838 11.33 13.915 11.1613 14.0138L10.95 14.135C10.812 14.2105 10.6573 14.2501 10.5 14.2501C10.3427 14.2501 10.188 14.2105 10.05 14.135C9.83143 14.0134 9.61674 13.8851 9.40625 13.75L9.20625 13.6188ZM13.7325 3.625C12.6538 3.625 11.7188 4.35 11.4 5.44875C11.1388 6.35 9.86125 6.35 9.6 5.44875C9.28125 4.35 8.34625 3.625 7.2675 3.625C6.2475 3.625 5.5 4.45625 5.5 5.8125C5.5 7.35 6.4825 8.9425 8.16 10.4613C8.7725 11.015 9.4325 11.5188 10.0925 11.9588L10.4988 12.2213L10.5938 12.1625L10.9075 11.9588C11.5874 11.5075 12.2333 11.007 12.84 10.4613C14.5175 8.9425 15.5 7.34875 15.5 5.8125C15.5 4.45625 14.7525 3.625 13.7325 3.625Z" fill="#3F0129"/>
</g>
<defs>
<clipPath id="clip0_161_111">
<rect width="20" height="20" fill="white" transform="translate(0.5 0.5)"/>
</clipPath>
</defs>
</svg>
