<svg width="31" height="32" viewBox="0 0 31 32" fill="none" xmlns="http://www.w3.org/2000/svg">
<g clip-path="url(#clip0_172_188)">
<path fill-rule="evenodd" clip-rule="evenodd" d="M2.7755 28.7245C4.96084 30.9069 8.47289 30.9069 15.5 30.9069C22.5271 30.9069 26.0406 30.9069 28.223 28.723C30.4068 26.5421 30.4068 23.0271 30.4068 16C30.4068 8.97295 30.4068 5.45941 28.223 3.27556C26.0421 1.0932 22.5271 1.0932 15.5 1.0932C8.47289 1.0932 4.95935 1.0932 2.7755 3.27556C0.59314 5.4609 0.59314 8.97295 0.59314 16C0.59314 23.0271 0.59314 26.5421 2.7755 28.7245ZM25.5621 21.9628C25.5621 22.2593 25.4443 22.5436 25.2346 22.7533C25.025 22.963 24.7406 23.0808 24.4441 23.0808H6.55587C6.25936 23.0808 5.97499 22.963 5.76532 22.7533C5.55565 22.5436 5.43786 22.2593 5.43786 21.9628C5.43786 21.6662 5.55565 21.3819 5.76532 21.1722C5.97499 20.9625 6.25936 20.8447 6.55587 20.8447H24.4441C24.7406 20.8447 25.025 20.9625 25.2346 21.1722C25.4443 21.3819 25.5621 21.6662 25.5621 21.9628ZM24.4441 17.118C24.7406 17.118 25.025 17.0003 25.2346 16.7906C25.4443 16.5809 25.5621 16.2965 25.5621 16C25.5621 15.7035 25.4443 15.4191 25.2346 15.2095C25.025 14.9998 24.7406 14.882 24.4441 14.882H6.55587C6.25936 14.882 5.97499 14.9998 5.76532 15.2095C5.55565 15.4191 5.43786 15.7035 5.43786 16C5.43786 16.2965 5.55565 16.5809 5.76532 16.7906C5.97499 17.0003 6.25936 17.118 6.55587 17.118H24.4441ZM25.5621 10.0373C25.5621 10.3338 25.4443 10.6182 25.2346 10.8279C25.025 11.0375 24.7406 11.1553 24.4441 11.1553H6.55587C6.25936 11.1553 5.97499 11.0375 5.76532 10.8279C5.55565 10.6182 5.43786 10.3338 5.43786 10.0373C5.43786 9.74078 5.55565 9.45641 5.76532 9.24674C5.97499 9.03708 6.25936 8.91929 6.55587 8.91929H24.4441C24.7406 8.91929 25.025 9.03708 25.2346 9.24674C25.4443 9.45641 25.5621 9.74078 25.5621 10.0373Z" fill="white"/>
</g>
<defs>
<clipPath id="clip0_172_188">
<rect width="30" height="31.3043" fill="white" transform="translate(0.5 0.347839)"/>
</clipPath>
</defs>
</svg>
