<svg width="20" height="21" viewBox="0 0 20 21" fill="none" xmlns="http://www.w3.org/2000/svg">
<path d="M10 0.499992C15.523 0.499992 20 4.97699 20 10.5C20 16.023 15.523 20.5 10 20.5C8.23279 20.5028 6.49667 20.0352 4.97001 19.145L0.00401407 20.5L1.35601 15.532C0.465107 14.0049 -0.00293838 12.268 1.38802e-05 10.5C1.38802e-05 4.97699 4.47701 0.499992 10 0.499992ZM6.59201 5.79999L6.39201 5.80799C6.26254 5.81588 6.13599 5.84989 6.02001 5.90799C5.91153 5.96942 5.81251 6.04622 5.72601 6.13599C5.60601 6.24899 5.53801 6.34699 5.46501 6.44199C5.09514 6.9229 4.89599 7.51331 4.89901 8.11999C4.90101 8.60999 5.02901 9.08699 5.22901 9.53299C5.63801 10.435 6.31101 11.39 7.19901 12.275C7.41301 12.488 7.62301 12.702 7.84901 12.901C8.9524 13.8725 10.2673 14.573 11.689 14.947L12.257 15.034C12.442 15.044 12.627 15.03 12.813 15.021C13.1043 15.006 13.3886 14.9271 13.646 14.79C13.777 14.7225 13.9048 14.6491 14.029 14.57C14.029 14.57 14.072 14.542 14.154 14.48C14.289 14.38 14.372 14.309 14.484 14.192C14.567 14.106 14.639 14.005 14.694 13.89C14.772 13.727 14.85 13.416 14.882 13.157C14.906 12.959 14.899 12.851 14.896 12.784C14.892 12.677 14.803 12.566 14.706 12.519L14.124 12.258C14.124 12.258 13.254 11.879 12.722 11.637C12.6663 11.6127 12.6067 11.5988 12.546 11.596C12.4776 11.589 12.4085 11.5967 12.3433 11.6186C12.2781 11.6405 12.2183 11.6761 12.168 11.723C12.163 11.721 12.096 11.778 11.373 12.654C11.3315 12.7098 11.2744 12.7519 11.2088 12.775C11.1433 12.7982 11.0723 12.8013 11.005 12.784C10.9399 12.7665 10.876 12.7445 10.814 12.718C10.69 12.666 10.647 12.646 10.562 12.61C9.98808 12.3595 9.4567 12.0211 8.98701 11.607C8.86101 11.497 8.74401 11.377 8.62401 11.261C8.2306 10.8842 7.88774 10.458 7.60401 9.99299L7.54501 9.89799C7.50264 9.83416 7.46837 9.76529 7.44301 9.69299C7.40501 9.54599 7.50401 9.42799 7.50401 9.42799C7.50401 9.42799 7.74701 9.16199 7.86001 9.01799C7.97001 8.87799 8.06301 8.74199 8.12301 8.64499C8.24101 8.45499 8.27801 8.25999 8.21601 8.10899C7.93601 7.42499 7.64601 6.74399 7.34801 6.06799C7.28901 5.93399 7.11401 5.83799 6.95501 5.81899C6.90101 5.81299 6.84701 5.80699 6.79301 5.80299C6.65872 5.79632 6.52415 5.79766 6.39001 5.80699L6.59201 5.79999Z" fill="white"/>
</svg>
